<svg width="275" height="66" viewBox="0 0 275 66" fill="none" xmlns="http://www.w3.org/2000/svg">
<path d="M44.1817 34.8232C44.1078 26.6115 50.9073 22.6164 51.2182 22.4304C47.3674 16.8175 41.3987 16.0506 39.3013 15.9894C34.2883 15.462 29.4257 18.9882 26.872 18.9882C24.2674 18.9882 20.335 16.0404 16.0968 16.127C10.6429 16.2111 5.54077 19.3679 2.74247 24.27C-3.03252 34.2652 1.27451 48.9537 6.80739 57.033C9.5751 60.9923 12.8092 65.4078 17.0423 65.2524C21.1837 65.0842 22.7307 62.6153 27.7283 62.6153C32.6802 62.6153 34.1328 65.2524 38.4501 65.153C42.8947 65.0842 45.693 61.1783 48.3639 57.1858C51.5623 52.6532 52.8467 48.1842 52.8977 47.9549C52.7958 47.9192 44.2684 44.6631 44.1817 34.8232ZM36.0264 10.6746C38.2538 7.88975 39.7778 4.10107 39.3548 0.256348C36.1309 0.399028 32.0991 2.48573 29.7774 5.2094C27.7232 7.60948 25.8883 11.5434 26.3623 15.2429C29.9838 15.513 33.7021 13.4161 36.0264 10.6746Z" fill="white" fill-opacity="0.2"/>
<path d="M99.9534 51.2219H94.1656L90.9953 41.2623H79.9754L76.9553 51.2219H71.3205L82.241 17.3149H88.9845L99.9534 51.2219ZM90.0395 37.0838L87.1724 28.23C86.8692 27.3255 86.2983 25.1955 85.4624 21.8425H85.3604C85.024 23.2846 84.4863 25.4146 83.7497 28.23L80.9311 37.0838H90.0395ZM127.982 38.6966C127.982 42.8547 126.853 46.1415 124.593 48.5543C122.569 50.7021 120.054 51.7748 117.054 51.7748C113.815 51.7748 111.485 50.6206 110.071 48.3071V61.1356H104.638V34.8085C104.638 32.197 104.569 29.5192 104.436 26.7726H109.215L109.518 30.6479H109.62C111.432 27.728 114.182 26.2681 117.872 26.2681C120.757 26.2681 123.165 27.407 125.092 29.6873C127.016 31.9728 127.982 34.9742 127.982 38.6966ZM122.447 38.8953C122.447 36.5156 121.912 34.5538 120.836 33.0072C119.661 31.3995 118.084 30.5944 116.106 30.5944C114.765 30.5944 113.547 31.0428 112.459 31.9269C111.368 32.8187 110.655 33.983 110.321 35.4251C110.172 35.9644 110.087 36.5195 110.069 37.0787V41.1578C110.069 42.9337 110.614 44.4344 111.705 45.6625C112.795 46.8854 114.212 47.4995 115.956 47.4995C118.002 47.4995 119.595 46.7071 120.734 45.135C121.876 43.5579 122.447 41.4789 122.447 38.8953ZM156.11 38.6966C156.11 42.8547 154.981 46.1415 152.721 48.5543C150.695 50.7021 148.182 51.7748 145.18 51.7748C141.941 51.7748 139.611 50.6206 138.197 48.3071V61.1356H132.763V34.8085C132.763 32.197 132.694 29.5192 132.562 26.7726H137.34L137.644 30.6479H137.746C139.555 27.728 142.305 26.2681 145.998 26.2681C148.88 26.2681 151.289 27.407 153.22 29.6873C155.142 31.9728 156.11 34.9742 156.11 38.6966ZM150.572 38.8953C150.572 36.5156 150.035 34.5538 148.959 33.0072C147.784 31.3995 146.212 30.5944 144.234 30.5944C142.894 30.5944 141.676 31.0428 140.582 31.9269C139.491 32.8187 138.78 33.983 138.446 35.4251C138.281 36.0978 138.192 36.6456 138.192 37.0787V41.1578C138.192 42.9337 138.74 44.4344 139.825 45.6625C140.916 46.8829 142.333 47.4995 144.081 47.4995C146.13 47.4995 147.723 46.7071 148.86 45.135C150.002 43.5579 150.572 41.4789 150.572 38.8953ZM187.559 41.7107C187.559 44.5974 186.55 46.944 184.544 48.7556C182.337 50.7327 179.256 51.7238 175.306 51.7238C171.657 51.7238 168.731 51.0206 166.524 49.6116L167.78 45.0841C170.163 46.4956 172.78 47.1988 175.63 47.1988C177.679 47.1988 179.272 46.7351 180.408 45.8153C181.547 44.893 182.123 43.6598 182.123 42.1209C182.123 40.7425 181.647 39.5883 180.711 38.6482C179.771 37.7106 178.216 36.8366 176.032 36.0341C170.094 33.82 167.123 30.5816 167.123 26.3216C167.123 23.5394 168.173 21.2616 170.268 19.4806C172.362 17.7022 175.14 16.813 178.596 16.813C181.682 16.813 184.254 17.3506 186.295 18.4232L184.932 22.8514C183.01 21.8119 180.841 21.2921 178.415 21.2921C176.499 21.2921 174.995 21.7635 173.92 22.7011C173.015 23.5393 172.556 24.561 172.556 25.7738C172.556 27.1115 173.079 28.2223 174.118 29.0937C175.021 29.8963 176.667 30.7702 179.047 31.7078C181.968 32.8849 184.114 34.2557 185.487 35.8302C186.871 37.4048 187.559 39.3692 187.559 41.7107ZM205.57 30.8492H199.581V42.7197C199.581 45.7389 200.636 47.2447 202.751 47.2447C203.722 47.2447 204.528 47.1631 205.165 46.9924L205.315 51.1174C204.245 51.5174 202.835 51.7187 201.09 51.7187C198.944 51.7187 197.267 51.0639 196.056 49.7543C194.851 48.4447 194.244 46.251 194.244 43.163V30.839H190.676V26.7624H194.244V22.2858L199.581 20.6755V26.7624H205.57V30.8492ZM232.539 38.796C232.539 42.5541 231.463 45.6395 229.317 48.0523C227.072 50.5365 224.085 51.7748 220.362 51.7748C216.768 51.7748 213.911 50.5849 211.781 48.2078C209.65 45.8255 208.585 42.8241 208.585 39.2036C208.585 35.4149 209.686 32.3116 211.88 29.8988C214.079 27.4834 217.041 26.2758 220.764 26.2758C224.353 26.2758 227.235 27.4682 229.417 29.8479C231.501 32.1562 232.539 35.1372 232.539 38.796ZM226.906 38.9208C226.906 36.6812 226.422 34.7601 225.451 33.1524C224.312 31.211 222.681 30.2402 220.568 30.2402C218.392 30.2402 216.722 31.211 215.586 33.1524C214.612 34.7601 214.128 36.7144 214.128 39.0227C214.128 41.2648 214.612 43.191 215.586 44.7936C216.761 46.7351 218.399 47.7058 220.522 47.7058C222.599 47.7058 224.228 46.7147 225.405 44.7452C226.404 43.0993 226.906 41.1655 226.906 38.9208ZM250.208 31.5498C249.642 31.4478 249.069 31.3975 248.495 31.3995C246.584 31.3995 245.105 32.118 244.066 33.5652C243.163 34.8391 242.71 36.4494 242.71 38.3934V51.2219H237.276V34.4722C237.281 31.9057 237.228 29.3393 237.118 26.7751H241.851L242.05 31.453H242.2C242.776 29.8453 243.678 28.5485 244.917 27.5777C246.051 26.7295 247.428 26.2701 248.844 26.2681C249.346 26.2681 249.8 26.3038 250.202 26.3675L250.208 31.5498ZM274.508 37.8405C274.522 38.6663 274.455 39.4914 274.309 40.3043H258.009C258.07 42.7197 258.86 44.5694 260.374 45.8433C261.747 46.9797 263.524 47.5504 265.705 47.5504C268.119 47.5504 270.321 47.1682 272.301 46.3962L273.152 50.1645C270.838 51.1735 268.106 51.6754 264.953 51.6754C261.161 51.6754 258.185 50.5594 256.018 48.3326C253.857 46.1032 252.774 43.1069 252.774 39.3539C252.774 35.6697 253.781 32.5996 255.797 30.1511C257.907 27.5369 260.759 26.2299 264.347 26.2299C267.872 26.2299 270.54 27.5369 272.352 30.1511C273.787 32.2225 274.508 34.7907 274.508 37.8405ZM269.327 36.4315C269.365 34.8187 269.008 33.4302 268.272 32.2556C267.331 30.7422 265.884 29.988 263.944 29.988C262.168 29.988 260.72 30.7243 259.619 32.2021C258.715 33.3766 258.177 34.7882 258.011 36.4264L269.327 36.4315Z" fill="white" fill-opacity="0.2"/>
</svg>
