<svg width="270" height="66" viewBox="0 0 270 66" fill="none" xmlns="http://www.w3.org/2000/svg">
<path fill-rule="evenodd" clip-rule="evenodd" d="M1.57329 2.4489C0.86885 3.20601 0.463959 4.3713 0.463959 5.88553V59.7459C0.463959 61.2601 0.86885 62.4254 1.59963 63.1562L1.79055 63.3175L31.9697 33.1383V32.4602L1.76422 2.2876L1.57329 2.4489Z" fill="white" fill-opacity="0.2"/>
<path fill-rule="evenodd" clip-rule="evenodd" d="M45.0628 43.1543L34.9965 33.0847V32.3803L45.0661 22.3107L45.2833 22.4456L57.193 29.2136C60.6033 31.136 60.6033 34.3027 57.193 36.2514L45.2833 43.0194C45.28 43.0194 45.0628 43.1543 45.0628 43.1543Z" fill="white" fill-opacity="0.2"/>
<path fill-rule="evenodd" clip-rule="evenodd" d="M43.7294 44.2048L33.4458 33.918L3.07568 64.2881C4.18502 65.4797 6.05147 65.6147 8.13847 64.4494L43.7294 44.2048Z" fill="white" fill-opacity="0.2"/>
<path fill-rule="evenodd" clip-rule="evenodd" d="M43.7294 21.2917L8.13847 1.0735C6.05476 -0.118128 4.18502 0.0431704 3.07568 1.2348L33.4425 31.5753L43.7294 21.2917Z" fill="white" fill-opacity="0.2"/>
<path fill-rule="evenodd" clip-rule="evenodd" d="M69.8598 31.0436C69.8598 22.4158 77.1116 15.3911 85.7394 15.3911C90.5092 15.3911 93.9031 17.2641 96.4641 19.7034L93.4488 22.7187C91.6186 21.0003 89.1366 19.6672 85.7361 19.6672C79.4356 19.6672 74.5111 24.7398 74.5111 31.0403C74.5111 37.3408 79.4356 42.4201 85.7328 42.4201C89.818 42.4201 92.142 40.7807 93.6331 39.2863C94.8544 38.065 95.6543 36.3105 95.9637 33.9042H85.7394V29.638H100.131C100.283 30.4017 100.362 31.3168 100.362 32.3077C100.362 35.5106 99.4827 39.4838 96.655 42.3114C93.9031 45.1753 90.394 46.7027 85.7361 46.7027C77.105 46.7027 69.8532 39.6846 69.8532 31.0502L69.8598 31.0436ZM111.995 26.5404C106.422 26.5404 101.873 30.7803 101.873 36.6166C101.873 42.4233 106.418 46.6928 111.995 46.6928C117.571 46.6928 122.11 42.4168 122.11 36.6133C122.11 30.777 117.568 26.5371 111.995 26.5404ZM111.995 42.7295C108.943 42.7295 106.307 40.2113 106.307 36.6199C106.307 32.9923 108.94 30.5103 111.995 30.5103C115.046 30.5103 117.68 32.9891 117.68 36.6199C117.68 40.208 115.05 42.7295 111.995 42.7295ZM134.066 26.5404C128.493 26.5404 123.951 30.7803 123.951 36.6166C123.951 42.4233 128.493 46.6928 134.066 46.6928C139.639 46.6928 144.182 42.4168 144.182 36.6133C144.182 30.777 139.643 26.5371 134.066 26.5404ZM134.066 42.7295C131.015 42.7295 128.378 40.2113 128.378 36.6199C128.378 32.9923 131.011 30.5103 134.066 30.5103C137.118 30.5103 139.755 32.9891 139.755 36.6199C139.755 40.208 137.118 42.7295 134.066 42.7295ZM161.154 27.1527V28.792H161.003C160.012 27.6037 158.103 26.5371 155.7 26.5371C150.66 26.5371 146.035 30.9679 146.035 36.6594C146.035 42.3048 150.657 46.6994 155.7 46.6994C158.103 46.6994 160.012 45.6328 161.003 44.4116H161.154V45.86C161.154 49.7147 159.094 51.7786 155.772 51.7786C153.06 51.7786 151.381 49.8299 150.693 48.1939L146.835 49.797C147.941 52.4666 150.884 55.7518 155.769 55.7518C160.957 55.7518 165.348 52.6937 165.348 45.251V27.1494L161.154 27.1527ZM156.079 42.7295C153.027 42.7295 150.463 40.1685 150.463 36.6594C150.463 33.1109 153.024 30.5136 156.079 30.5136C159.094 30.5136 161.461 33.1076 161.461 36.6594C161.464 40.1685 159.097 42.7295 156.079 42.7295ZM168.406 16.4609H172.837V46.0871H168.406V16.4609ZM184.981 42.7295C182.729 42.7295 181.123 41.6959 180.099 39.678L193.575 34.0984L193.111 32.9528C192.275 30.7045 189.714 26.5404 184.483 26.5404C179.292 26.5404 174.977 30.6255 174.977 36.6199C174.977 42.2653 179.253 46.6961 184.981 46.6961C189.602 46.6961 192.275 43.875 193.381 42.2291L189.945 39.9413C188.796 41.6234 187.229 42.7328 184.981 42.7295ZM184.635 30.4346C186.389 30.4346 187.877 31.3135 188.374 32.571L179.361 36.3138C179.249 32.4196 182.38 30.4346 184.635 30.4346Z" fill="white" fill-opacity="0.2"/>
<path fill-rule="evenodd" clip-rule="evenodd" d="M213.017 16.4613H202.424V46.0875H206.844V34.8657H213.02C217.921 34.8657 222.741 31.3172 222.741 25.6619C222.741 20.0164 217.925 16.4646 213.026 16.4646L213.017 16.4613ZM213.132 30.7411H206.844V20.5826H213.132C216.437 20.5826 218.32 23.3247 218.32 25.6619C218.32 27.9595 216.437 30.7411 213.132 30.7411ZM229.597 46.0875V16.4613H225.176V46.0875H229.597ZM249.457 46.0348V34.6781C249.457 29.4178 245.526 26.4848 240.454 26.4848C237.257 26.4848 233.943 27.897 232.57 31.0209L236.494 32.6569C237.333 31.0209 238.893 30.4844 240.536 30.4844C242.82 30.4844 245.145 31.857 245.181 34.2995V34.6057C244.381 34.1481 242.669 33.4601 240.569 33.4601C236.339 33.4601 232.033 35.7842 232.033 40.1293C232.033 44.0959 235.503 46.6471 239.39 46.6471C242.366 46.6471 244.002 45.3139 245.029 43.7536H245.181V46.0414H249.453L249.457 46.0348ZM239.927 42.7233C238.479 42.7233 236.457 41.9991 236.457 40.2116C236.457 37.9238 238.976 37.0416 241.148 37.0416C243.094 37.0416 244.006 37.4597 245.191 38.0324C244.852 40.6922 242.603 42.6903 239.927 42.7233ZM265.004 27.1333L259.935 39.9746H259.783L254.523 27.1333H249.76L257.647 45.0868L253.147 55.0708H257.759L269.915 27.1333H265.004Z" fill="white" fill-opacity="0.2"/>
</svg>
