<svg width="258" height="66" viewBox="0 0 258 66" fill="none" xmlns="http://www.w3.org/2000/svg">
<path d="M257.464 29.5063H253.64V17.2711L249.179 25.2367H246.63L242.807 17.2711V29.5063H238.346V8.47694H242.807L247.905 19.8201L253.64 8.47694H257.464V29.5063ZM232.611 29.5063H228.15L226.875 25.8103H219.866L218.591 29.5063H214.13L221.777 8.47694H224.964L232.611 29.5063ZM226.238 22.3054L223.689 14.6583L221.14 22.3054H226.238ZM207.758 29.5063H193.738V8.47694H207.758V12.1093H198.199V17.0799H206.483V20.7122H198.199V25.874H207.758V29.5063ZM187.366 12.1093H182.268V29.5063H177.807V12.1093H172.072V8.47694H187.366V12.1093ZM166.973 23.325C166.973 27.6583 163.15 29.6338 159.326 29.6975C155.503 29.6975 152.954 28.8054 151.679 26.8936L154.228 24.2809C155.503 25.4279 156.777 26.0652 159.326 26.0652C161.875 26.0652 163.15 25.173 163.15 23.4524C163.15 21.8593 161.875 21.1583 160.601 20.9034L158.052 20.5848C154.228 20.075 152.317 18.0995 152.317 14.6583C152.317 12.7465 152.954 11.2171 154.228 10.0063C155.503 8.85929 157.415 8.28576 159.326 8.28576C162.513 8.28576 164.424 9.11419 166.336 10.7073L163.787 13.3201C162.513 12.3642 161.238 11.8544 159.326 11.8544C157.415 11.9818 156.14 12.6828 156.14 14.5309C156.14 15.9965 157.415 16.6975 158.689 16.825L161.238 17.2073C164.424 17.5897 166.973 19.7563 166.973 23.325ZM134.473 19.5014C134.473 25.2367 129.375 29.8887 123.64 29.8887C117.905 29.8887 113.444 25.2367 113.444 19.5014C113.444 13.8299 117.905 9.17792 123.64 9.17792C129.375 9.17792 134.473 13.8299 134.473 19.5014ZM123.64 0.256348C113.444 0.256348 104.523 8.79556 104.523 19.4377L92.4147 36.7073C91.7774 36.643 91.7774 36.5799 91.1402 36.5799C88.5911 36.5799 86.0421 37.3446 83.4931 38.6191L29.0715 16.6975C27.6058 10.1975 21.8068 5.35439 14.9245 5.35439C7.02251 5.35439 0.509766 11.8544 0.509766 19.8201C0.509766 27.722 7.02251 34.222 14.9245 34.222C17.6653 34.222 20.15 33.5211 22.3173 32.1828L77.1212 54.1044C78.3957 60.7956 84.131 65.2563 91.1408 65.2563C98.1506 65.2563 104.523 59.5211 105.16 52.4475L123.641 38.9377C134.474 38.9377 143.396 30.2711 143.396 19.5652C143.395 8.92301 134.473 0.256348 123.64 0.256348ZM123.64 6.6289C131.287 6.6289 137.023 12.4279 137.023 19.5652C137.023 26.7662 131.287 32.5652 123.64 32.5652C116.63 32.5652 110.895 26.7662 110.895 19.5652C110.895 12.4279 116.63 6.6289 123.64 6.6289ZM14.9245 9.17792C19.0029 9.17792 22.5715 11.4083 24.3565 14.7858L19.0666 12.6828C14.797 11.1534 10.0813 13.2563 8.36075 17.4622C6.70388 21.7318 8.61565 26.5113 12.7578 28.3593L17.2186 30.1436C16.517 30.3348 15.7529 30.3985 14.9238 30.3985C9.06173 30.3985 4.3454 25.6828 4.3454 19.8201C4.34604 13.8936 9.06173 9.17792 14.9245 9.17792ZM91.1402 40.4034C96.8754 40.4034 101.336 45.1828 101.336 51.0456C101.336 56.972 96.8754 61.4328 91.1402 61.4328C86.6794 61.4328 83.4931 59.5211 81.5813 56.0162C83.4931 56.972 84.7676 57.6093 86.6794 58.2465C91.1402 60.1583 95.6009 57.6093 97.5127 53.5309C98.7872 49.5805 97.5127 44.1638 93.0519 42.4433L88.5911 40.6589C89.2284 40.5309 90.5029 40.4034 91.1402 40.4034Z" fill="white" fill-opacity="0.2"/>
</svg>
