<?xml version="1.0" standalone="no"?>
<!DOCTYPE svg PUBLIC "-//W3C//DTD SVG 1.1//EN" "http://www.w3.org/Graphics/SVG/1.1/DTD/svg11.dtd" >
<svg xmlns="http://www.w3.org/2000/svg" xmlns:xlink="http://www.w3.org/1999/xlink" version="1.1">
<metadata>
Created by FontForge 20190801 at Mon Apr 18 13:48:03 2022
 By root
Copyright \(c\) 2022 by PangramPangram\(R\)Foundry. All rights reserved.
</metadata>
<defs>
<font id="PPMori-Regular" horiz-adv-x="0" >
  <font-face 
    font-family="PP Mori"
    font-weight="400"
    font-stretch="normal"
    units-per-em="1000"
    panose-1="0 0 5 0 0 0 0 0 0 0"
    ascent="800"
    descent="-200"
    x-height="530"
    cap-height="700"
    bbox="-454 -389 2089 1207"
    underline-thickness="50"
    underline-position="-100"
    stemh="72"
    stemv="83"
    unicode-range="U+000D-1F318"
  />
<missing-glyph horiz-adv-x="581" 
d="M526 0h-471v700h471v-700zM98 676l192 -302l193 302h-385zM81 655v-609l194 304zM306 350l194 -304v609zM291 327l-194 -303h387z" />
    <glyph glyph-name="f_f" unicode="ff" horiz-adv-x="703" 
d="M210 0h-83v460h-98v70h98v74c0 95 53 146 151 146h118v-70h-118c-44 0 -68 -27 -68 -76v-74h216v74c0 95 53 146 151 146h118v-70h-118c-44 0 -68 -27 -68 -76v-74h172v-70h-172v-460h-83v460h-216v-460z" />
    <glyph glyph-name="f_t" unicode="ft" horiz-adv-x="706" 
d="M210 0h-83v460h-98v70h98v74c0 95 53 146 151 146h118v-70h-118c-44 0 -68 -27 -68 -76v-74h240v181h83v-181h143v-70h-143v-309c0 -53 26 -81 75 -81h59v-70h-59c-103 0 -158 53 -158 151v309h-240v-460z" />
    <glyph glyph-name="t_f" unicode="tf" horiz-adv-x="679" 
d="M344 0h-59c-103 0 -158 53 -158 151v309h-98v70h98v181h83v-181h192v74c0 95 53 146 151 146h118v-70h-118c-44 0 -68 -27 -68 -76v-74h172v-70h-172v-460h-83v460h-192v-309c0 -53 26 -81 75 -81h59v-70z" />
    <glyph glyph-name="t_t" unicode="tt" horiz-adv-x="672" 
d="M344 0h-59c-103 0 -158 53 -158 151v309h-98v70h98v181h83v-181h206v181h83v-181h143v-70h-143v-309c0 -53 26 -81 75 -81h59v-70h-59c-103 0 -158 53 -158 151v309h-206v-309c0 -53 26 -81 75 -81h59v-70z" />
    <glyph glyph-name=".notdef" horiz-adv-x="581" 
d="M526 0h-471v700h471v-700zM98 676l192 -302l193 302h-385zM81 655v-609l194 304zM306 350l194 -304v609zM291 327l-194 -303h387z" />
    <glyph glyph-name=".null" horiz-adv-x="600" 
 />
    <glyph glyph-name="CR" unicode="&#xd;" horiz-adv-x="600" 
 />
    <glyph glyph-name="space" unicode=" " horiz-adv-x="225" 
 />
    <glyph glyph-name="A" unicode="A" horiz-adv-x="718" 
d="M115 0h-87l288 700h85l289 -700h-87l-82 200h-324zM359 593l-130 -317h260z" />
    <glyph glyph-name="Aacute" unicode="&#xc1;" horiz-adv-x="718" 
d="M606 960l-267 -220l-47 52l267 220zM115 0h-87l288 700h85l289 -700h-87l-82 200h-324zM359 593l-130 -317h260z" />
    <glyph glyph-name="Abreve" unicode="&#x102;" horiz-adv-x="718" 
d="M359 769c-98 0 -166 60 -166 146v13h72v-13c0 -49 39 -83 94 -83c54 0 92 34 92 83v13h72v-13c0 -86 -67 -146 -164 -146zM115 0h-87l288 700h85l289 -700h-87l-82 200h-324zM359 593l-130 -317h260z" />
    <glyph glyph-name="Acircumflex" unicode="&#xc2;" horiz-adv-x="718" 
d="M358 894l-153 -143l-51 48l175 160h59l175 -160l-51 -48zM115 0h-87l288 700h85l289 -700h-87l-82 200h-324zM359 593l-130 -317h260z" />
    <glyph glyph-name="Adieresis" unicode="&#xc4;" horiz-adv-x="718" 
d="M256 765c-35 0 -63 28 -63 63s28 62 63 62s62 -27 62 -62s-27 -63 -62 -63zM462 765c-35 0 -63 28 -63 63s28 62 63 62s62 -27 62 -62s-27 -63 -62 -63zM115 0h-87l288 700h85l289 -700h-87l-82 200h-324zM359 593l-130 -317h260z" />
    <glyph glyph-name="Agrave" unicode="&#xc0;" horiz-adv-x="718" 
d="M426 792l-47 -52l-267 220l47 52zM115 0h-87l288 700h85l289 -700h-87l-82 200h-324zM359 593l-130 -317h260z" />
    <glyph glyph-name="Amacron" unicode="&#x100;" horiz-adv-x="718" 
d="M541 808h-364v67h364v-67zM115 0h-87l288 700h85l289 -700h-87l-82 200h-324zM359 593l-130 -317h260z" />
    <glyph glyph-name="Aogonek" unicode="&#x104;" horiz-adv-x="718" 
d="M688 -134l11 -67c-22 -8 -43 -11 -64 -11c-65 0 -104 35 -104 85c0 42 27 90 79 127h-7l-82 200h-324l-82 -200h-87l288 700h85l289 -700h-9c-56 -37 -83 -74 -83 -105c0 -25 18 -38 45 -38c16 0 28 3 45 9zM359 593l-130 -317h260z" />
    <glyph glyph-name="Aring" unicode="&#xc5;" horiz-adv-x="718" 
d="M359 747c-57 0 -100 41 -100 95s43 95 100 95s100 -41 100 -95s-43 -95 -100 -95zM359 792c29 0 50 21 50 50s-21 50 -50 50s-50 -21 -50 -50s21 -50 50 -50zM115 0h-87l288 700h85l289 -700h-87l-82 200h-324zM359 593l-130 -317h260z" />
    <glyph glyph-name="uni01CD" unicode="&#x1cd;" horiz-adv-x="718" 
d="M388 766h-59l-175 160l51 48l153 -143l154 143l51 -48zM115 0h-87l288 700h85l289 -700h-87l-82 200h-324zM359 593l-130 -317h260z" />
    <glyph glyph-name="Atilde" unicode="&#xc3;" horiz-adv-x="718" 
d="M450 779c-73 0 -125 78 -165 78c-26 0 -43 -30 -43 -72h-68c0 81 39 137 98 137c70 0 119 -78 165 -78c23 0 39 20 39 69h68c0 -85 -36 -134 -94 -134zM115 0h-87l288 700h85l289 -700h-87l-82 200h-324zM359 593l-130 -317h260z" />
    <glyph glyph-name="AE" unicode="&#xc6;" horiz-adv-x="981" 
d="M112 0h-84l264 700h631v-77h-395v-221h355v-75h-355v-250h404v-77h-487v206h-255zM346 620l-128 -338h227v338h-99z" />
    <glyph glyph-name="B" unicode="B" horiz-adv-x="681" 
d="M414 0h-329v700h321c122 0 207 -72 207 -176c0 -75 -53 -137 -135 -163c91 -18 151 -84 151 -170c0 -113 -88 -191 -215 -191zM168 623v-229h233c75 0 127 50 127 121c0 64 -47 108 -114 108h-246zM168 319v-242h255c70 0 119 50 119 123c0 78 -61 119 -136 119h-238z
" />
    <glyph glyph-name="C" unicode="C" horiz-adv-x="778" 
d="M395 -11c-215 0 -342 151 -342 363c0 208 127 359 342 359c178 0 300 -104 330 -280h-87c-26 128 -116 203 -243 203c-157 0 -254 -109 -254 -282c0 -179 97 -286 254 -286c131 0 216 71 243 203h87c-31 -182 -147 -280 -330 -280z" />
    <glyph glyph-name="Cacute" unicode="&#x106;" horiz-adv-x="778" 
d="M642 960l-267 -220l-47 52l267 220zM395 -11c-215 0 -342 151 -342 363c0 208 127 359 342 359c178 0 300 -104 330 -280h-87c-26 128 -116 203 -243 203c-157 0 -254 -109 -254 -282c0 -179 97 -286 254 -286c131 0 216 71 243 203h87c-31 -182 -147 -280 -330 -280z
" />
    <glyph glyph-name="Ccaron" unicode="&#x10c;" horiz-adv-x="778" 
d="M424 766h-59l-175 160l51 48l153 -143l154 143l51 -48zM395 -11c-215 0 -342 151 -342 363c0 208 127 359 342 359c178 0 300 -104 330 -280h-87c-26 128 -116 203 -243 203c-157 0 -254 -109 -254 -282c0 -179 97 -286 254 -286c131 0 216 71 243 203h87
c-31 -182 -147 -280 -330 -280z" />
    <glyph glyph-name="Ccedilla" unicode="&#xc7;" horiz-adv-x="778" 
d="M395 66c131 0 216 71 243 203h87c-29 -171 -133 -268 -297 -279l-67 -202l-68 13l63 190c-191 17 -303 162 -303 361c0 208 127 359 342 359c178 0 300 -104 330 -280h-87c-26 128 -116 203 -243 203c-157 0 -254 -109 -254 -282c0 -179 97 -286 254 -286z" />
    <glyph glyph-name="Cdotaccent" unicode="&#x10a;" horiz-adv-x="778" 
d="M395 765c-36 0 -63 27 -63 63c0 35 27 62 63 62s63 -27 63 -62c0 -36 -27 -63 -63 -63zM395 -11c-215 0 -342 151 -342 363c0 208 127 359 342 359c178 0 300 -104 330 -280h-87c-26 128 -116 203 -243 203c-157 0 -254 -109 -254 -282c0 -179 97 -286 254 -286
c131 0 216 71 243 203h87c-31 -182 -147 -280 -330 -280z" />
    <glyph glyph-name="D" unicode="D" horiz-adv-x="726" 
d="M332 0h-247v700h247c201 0 341 -142 341 -346c0 -209 -140 -354 -341 -354zM169 623v-546h168c145 0 247 114 247 277c0 151 -102 269 -247 269h-168z" />
    <glyph glyph-name="Eth" unicode="&#xd0;" horiz-adv-x="746" 
d="M352 0h-247v322h-104v67h104v311h247c201 0 341 -142 341 -346c0 -209 -140 -354 -341 -354zM189 322v-245h168c145 0 247 114 247 277c0 151 -102 269 -247 269h-168v-234h236v-67h-236z" />
    <glyph glyph-name="Dcaron" unicode="&#x10e;" horiz-adv-x="726" 
d="M355 766h-59l-175 160l51 48l153 -143l154 143l51 -48zM332 0h-247v700h247c201 0 341 -142 341 -346c0 -209 -140 -354 -341 -354zM169 623v-546h168c145 0 247 114 247 277c0 151 -102 269 -247 269h-168z" />
    <glyph glyph-name="Dcroat" unicode="&#x110;" horiz-adv-x="746" 
d="M352 0h-247v322h-104v67h104v311h247c201 0 341 -142 341 -346c0 -209 -140 -354 -341 -354zM189 322v-245h168c145 0 247 114 247 277c0 151 -102 269 -247 269h-168v-234h236v-67h-236z" />
    <glyph glyph-name="E" unicode="E" horiz-adv-x="621" 
d="M572 0h-487v700h478v-77h-395v-221h355v-75h-355v-250h404v-77z" />
    <glyph glyph-name="Eacute" unicode="&#xc9;" horiz-adv-x="621" 
d="M578 960l-267 -220l-47 52l267 220zM572 0h-487v700h478v-77h-395v-221h355v-75h-355v-250h404v-77z" />
    <glyph glyph-name="Ecaron" unicode="&#x11a;" horiz-adv-x="621" 
d="M360 766h-59l-175 160l51 48l153 -143l154 143l51 -48zM572 0h-487v700h478v-77h-395v-221h355v-75h-355v-250h404v-77z" />
    <glyph glyph-name="Ecircumflex" unicode="&#xca;" horiz-adv-x="621" 
d="M330 894l-153 -143l-51 48l175 160h59l175 -160l-51 -48zM572 0h-487v700h478v-77h-395v-221h355v-75h-355v-250h404v-77z" />
    <glyph glyph-name="Edieresis" unicode="&#xcb;" horiz-adv-x="621" 
d="M228 765c-35 0 -63 28 -63 63s28 62 63 62s62 -27 62 -62s-27 -63 -62 -63zM434 765c-35 0 -63 28 -63 63s28 62 63 62s62 -27 62 -62s-27 -63 -62 -63zM572 0h-487v700h478v-77h-395v-221h355v-75h-355v-250h404v-77z" />
    <glyph glyph-name="Edotaccent" unicode="&#x116;" horiz-adv-x="621" 
d="M331 765c-36 0 -63 27 -63 63c0 35 27 62 63 62s63 -27 63 -62c0 -36 -27 -63 -63 -63zM572 0h-487v700h478v-77h-395v-221h355v-75h-355v-250h404v-77z" />
    <glyph glyph-name="Egrave" unicode="&#xc8;" horiz-adv-x="621" 
d="M398 792l-47 -52l-267 220l47 52zM572 0h-487v700h478v-77h-395v-221h355v-75h-355v-250h404v-77z" />
    <glyph glyph-name="Emacron" unicode="&#x112;" horiz-adv-x="621" 
d="M513 808h-364v67h364v-67zM572 0h-487v700h478v-77h-395v-221h355v-75h-355v-250h404v-77z" />
    <glyph glyph-name="Eogonek" unicode="&#x118;" horiz-adv-x="621" 
d="M572 0h-21c-56 -37 -83 -74 -83 -105c0 -25 18 -38 45 -38c16 0 28 3 45 9l11 -67c-22 -8 -43 -11 -64 -11c-65 0 -104 35 -104 85c0 42 27 90 79 127h-395v700h478v-77h-395v-221h355v-75h-355v-250h404v-77z" />
    <glyph glyph-name="F" unicode="F" horiz-adv-x="604" 
d="M169 0h-84v700h477v-77h-393v-227h363v-77h-363v-319z" />
    <glyph glyph-name="G" unicode="G" horiz-adv-x="786" 
d="M384 -11c-193 0 -331 142 -331 363c0 208 127 359 340 359c178 0 301 -108 330 -280h-87c-26 128 -115 203 -243 203c-155 0 -252 -107 -252 -282c0 -177 99 -286 243 -286c131 0 214 89 214 216h-236v72h246c73 0 112 -37 112 -105v-249h-75v239h-2
c-13 -154 -104 -250 -259 -250z" />
    <glyph glyph-name="Gbreve" unicode="&#x11e;" horiz-adv-x="786" 
d="M393 769c-98 0 -166 60 -166 146v13h72v-13c0 -49 39 -83 94 -83c54 0 92 34 92 83v13h72v-13c0 -86 -67 -146 -164 -146zM384 -11c-193 0 -331 142 -331 363c0 208 127 359 340 359c178 0 301 -108 330 -280h-87c-26 128 -115 203 -243 203c-155 0 -252 -107 -252 -282
c0 -177 99 -286 243 -286c131 0 214 89 214 216h-236v72h246c73 0 112 -37 112 -105v-249h-75v239h-2c-13 -154 -104 -250 -259 -250z" />
    <glyph glyph-name="uni0122" unicode="&#x122;" horiz-adv-x="786" 
d="M384 -11c-193 0 -331 142 -331 363c0 208 127 359 340 359c178 0 301 -108 330 -280h-87c-26 128 -115 203 -243 203c-155 0 -252 -107 -252 -282c0 -177 99 -286 243 -286c131 0 214 89 214 216h-236v72h246c73 0 112 -37 112 -105v-249h-75v239h-2
c-13 -154 -104 -250 -259 -250zM434 -55l-109 -334l-67 21l105 335z" />
    <glyph glyph-name="Gdotaccent" unicode="&#x120;" horiz-adv-x="786" 
d="M393 765c-36 0 -63 27 -63 63c0 35 27 62 63 62s63 -27 63 -62c0 -36 -27 -63 -63 -63zM384 -11c-193 0 -331 142 -331 363c0 208 127 359 340 359c178 0 301 -108 330 -280h-87c-26 128 -115 203 -243 203c-155 0 -252 -107 -252 -282c0 -177 99 -286 243 -286
c131 0 214 89 214 216h-236v72h246c73 0 112 -37 112 -105v-249h-75v239h-2c-13 -154 -104 -250 -259 -250z" />
    <glyph glyph-name="H" unicode="H" horiz-adv-x="768" 
d="M169 0h-84v700h84v-301h430v301h84v-700h-84v322h-430v-322z" />
    <glyph glyph-name="Hbar" unicode="&#x126;" horiz-adv-x="816" 
d="M193 0h-84v533h-124v67h124v100h84v-100h430v100h84v-100h124v-67h-124v-533h-84v322h-430v-322zM193 533v-134h430v134h-430z" />
    <glyph glyph-name="I" unicode="I" horiz-adv-x="254" 
d="M169 0h-84v700h84v-700z" />
    <glyph glyph-name="Iacute" unicode="&#xcd;" horiz-adv-x="254" 
d="M374 960l-267 -220l-47 52l267 220zM169 0h-84v700h84v-700z" />
    <glyph glyph-name="Icircumflex" unicode="&#xce;" horiz-adv-x="254" 
d="M126 894l-153 -143l-51 48l175 160h59l175 -160l-51 -48zM169 0h-84v700h84v-700z" />
    <glyph glyph-name="Idieresis" unicode="&#xcf;" horiz-adv-x="254" 
d="M24 765c-35 0 -63 28 -63 63s28 62 63 62s62 -27 62 -62s-27 -63 -62 -63zM230 765c-35 0 -63 28 -63 63s28 62 63 62s62 -27 62 -62s-27 -63 -62 -63zM169 0h-84v700h84v-700z" />
    <glyph glyph-name="Idotaccent" unicode="&#x130;" horiz-adv-x="254" 
d="M127 765c-36 0 -63 27 -63 63c0 35 27 62 63 62s63 -27 63 -62c0 -36 -27 -63 -63 -63zM169 0h-84v700h84v-700z" />
    <glyph glyph-name="Igrave" unicode="&#xcc;" horiz-adv-x="254" 
d="M194 792l-47 -52l-267 220l47 52zM169 0h-84v700h84v-700z" />
    <glyph glyph-name="Imacron" unicode="&#x12a;" horiz-adv-x="254" 
d="M309 808h-364v67h364v-67zM169 0h-84v700h84v-700z" />
    <glyph glyph-name="Iogonek" unicode="&#x12e;" horiz-adv-x="254" 
d="M170 -134l11 -67c-22 -8 -43 -11 -64 -11c-65 0 -104 35 -104 85c0 42 27 90 79 127h-7v700h84v-700h-6c-56 -37 -83 -74 -83 -105c0 -25 18 -38 45 -38c16 0 28 3 45 9z" />
    <glyph glyph-name="uni01CF" unicode="&#x1cf;" horiz-adv-x="254" 
d="M156 766h-59l-175 160l51 48l153 -143l154 143l51 -48zM169 0h-84v700h84v-700z" />
    <glyph glyph-name="J" unicode="J" horiz-adv-x="580" 
d="M275 -11c-136 0 -231 81 -231 198v100h83v-99c0 -72 61 -122 148 -122c84 0 142 54 142 132v502h84v-504c0 -122 -92 -207 -226 -207z" />
    <glyph glyph-name="K" unicode="K" horiz-adv-x="679" 
d="M169 0h-84v700h84v-383l361 383h109l-279 -292l298 -408h-104l-252 347l-133 -139v-208z" />
    <glyph glyph-name="uni0136" unicode="&#x136;" horiz-adv-x="679" 
d="M169 0h-84v700h84v-383l361 383h109l-279 -292l298 -408h-104l-252 347l-133 -139v-208zM382 -55l-109 -334l-67 21l105 335z" />
    <glyph glyph-name="L" unicode="L" horiz-adv-x="584" 
d="M544 0h-459v700h84v-623h375v-77z" />
    <glyph glyph-name="Lacute" unicode="&#x139;" horiz-adv-x="584" 
d="M374 960l-267 -220l-47 52l267 220zM544 0h-459v700h84v-623h375v-77z" />
    <glyph glyph-name="Lcaron" unicode="&#x13d;" horiz-adv-x="584" 
d="M353 424h-76v326h76v-326zM544 0h-459v700h84v-623h375v-77z" />
    <glyph glyph-name="uni013B" unicode="&#x13b;" horiz-adv-x="584" 
d="M544 0h-459v700h84v-623h375v-77zM360 -55l-109 -334l-67 21l105 335z" />
    <glyph glyph-name="Lslash" unicode="&#x141;" horiz-adv-x="632" 
d="M592 0h-459v333l-112 -68l-30 55l142 87v293h84v-241l146 89l30 -56l-176 -107v-308h375v-77z" />
    <glyph glyph-name="M" unicode="M" horiz-adv-x="874" 
d="M169 0h-84v700h105l247 -600l246 600h106v-700h-84v554l-228 -554h-81l-227 552v-552z" />
    <glyph glyph-name="N" unicode="N" horiz-adv-x="746" 
d="M169 0h-84v700h96l396 -580v580h84v-700h-96l-396 580v-580z" />
    <glyph glyph-name="Nacute" unicode="&#x143;" horiz-adv-x="746" 
d="M620 960l-267 -220l-47 52l267 220zM169 0h-84v700h96l396 -580v580h84v-700h-96l-396 580v-580z" />
    <glyph glyph-name="Ncaron" unicode="&#x147;" horiz-adv-x="746" 
d="M402 766h-59l-175 160l51 48l153 -143l154 143l51 -48zM169 0h-84v700h96l396 -580v580h84v-700h-96l-396 580v-580z" />
    <glyph glyph-name="uni0145" unicode="&#x145;" horiz-adv-x="746" 
d="M169 0h-84v700h96l396 -580v580h84v-700h-96l-396 580v-580zM414 -55l-109 -334l-67 21l105 335z" />
    <glyph glyph-name="Eng" unicode="&#x14a;" horiz-adv-x="746" 
d="M503 -200h-74v70h74c49 0 75 28 75 81v49h-13l-396 580v-580h-84v700h96l396 -580v580h84v-749c0 -98 -55 -151 -158 -151z" />
    <glyph glyph-name="Ntilde" unicode="&#xd1;" horiz-adv-x="746" 
d="M464 779c-73 0 -125 78 -165 78c-26 0 -43 -30 -43 -72h-68c0 81 39 137 98 137c70 0 119 -78 165 -78c23 0 39 20 39 69h68c0 -85 -36 -134 -94 -134zM169 0h-84v700h96l396 -580v580h84v-700h-96l-396 580v-580z" />
    <glyph glyph-name="O" unicode="O" horiz-adv-x="782" 
d="M390 -11c-200 0 -337 142 -337 363c0 208 127 359 337 359c202 0 339 -142 339 -359c0 -210 -127 -363 -339 -363zM390 66c156 0 253 111 253 286c0 173 -98 282 -253 282c-154 0 -251 -109 -251 -282c0 -175 97 -286 251 -286z" />
    <glyph glyph-name="Oacute" unicode="&#xd3;" horiz-adv-x="782" 
d="M637 960l-267 -220l-47 52l267 220zM390 -11c-200 0 -337 142 -337 363c0 208 127 359 337 359c202 0 339 -142 339 -359c0 -210 -127 -363 -339 -363zM390 66c156 0 253 111 253 286c0 173 -98 282 -253 282c-154 0 -251 -109 -251 -282c0 -175 97 -286 251 -286z" />
    <glyph glyph-name="Ocircumflex" unicode="&#xd4;" horiz-adv-x="782" 
d="M389 894l-153 -143l-51 48l175 160h59l175 -160l-51 -48zM390 -11c-200 0 -337 142 -337 363c0 208 127 359 337 359c202 0 339 -142 339 -359c0 -210 -127 -363 -339 -363zM390 66c156 0 253 111 253 286c0 173 -98 282 -253 282c-154 0 -251 -109 -251 -282
c0 -175 97 -286 251 -286z" />
    <glyph glyph-name="Odieresis" unicode="&#xd6;" horiz-adv-x="782" 
d="M287 765c-35 0 -63 28 -63 63s28 62 63 62s62 -27 62 -62s-27 -63 -62 -63zM493 765c-35 0 -63 28 -63 63s28 62 63 62s62 -27 62 -62s-27 -63 -62 -63zM390 -11c-200 0 -337 142 -337 363c0 208 127 359 337 359c202 0 339 -142 339 -359c0 -210 -127 -363 -339 -363z
M390 66c156 0 253 111 253 286c0 173 -98 282 -253 282c-154 0 -251 -109 -251 -282c0 -175 97 -286 251 -286z" />
    <glyph glyph-name="Ograve" unicode="&#xd2;" horiz-adv-x="782" 
d="M457 792l-47 -52l-267 220l47 52zM390 -11c-200 0 -337 142 -337 363c0 208 127 359 337 359c202 0 339 -142 339 -359c0 -210 -127 -363 -339 -363zM390 66c156 0 253 111 253 286c0 173 -98 282 -253 282c-154 0 -251 -109 -251 -282c0 -175 97 -286 251 -286z" />
    <glyph glyph-name="Ohungarumlaut" unicode="&#x150;" horiz-adv-x="782" 
d="M545 1004l-206 -260l-62 36l208 259zM679 985l-206 -260l-62 36l208 259zM390 -11c-200 0 -337 142 -337 363c0 208 127 359 337 359c202 0 339 -142 339 -359c0 -210 -127 -363 -339 -363zM390 66c156 0 253 111 253 286c0 173 -98 282 -253 282
c-154 0 -251 -109 -251 -282c0 -175 97 -286 251 -286z" />
    <glyph glyph-name="Omacron" unicode="&#x14c;" horiz-adv-x="782" 
d="M572 808h-364v67h364v-67zM390 -11c-200 0 -337 142 -337 363c0 208 127 359 337 359c202 0 339 -142 339 -359c0 -210 -127 -363 -339 -363zM390 66c156 0 253 111 253 286c0 173 -98 282 -253 282c-154 0 -251 -109 -251 -282c0 -175 97 -286 251 -286z" />
    <glyph glyph-name="Oslash" unicode="&#xd8;" horiz-adv-x="782" 
d="M724 729l-90 -114c60 -63 95 -154 95 -263c0 -210 -127 -363 -339 -363c-78 0 -147 22 -202 62l-86 -110l-43 33l89 112c-60 64 -95 155 -95 266c0 208 127 359 337 359c79 0 148 -22 203 -61l88 112zM139 352c0 -83 22 -151 61 -200l343 435c-41 30 -93 47 -153 47
c-154 0 -251 -109 -251 -282zM390 66c156 0 253 111 253 286c0 81 -22 149 -61 197l-344 -435c41 -31 92 -48 152 -48z" />
    <glyph glyph-name="uni01D1" unicode="&#x1d1;" horiz-adv-x="782" 
d="M419 766h-59l-175 160l51 48l153 -143l154 143l51 -48zM390 -11c-200 0 -337 142 -337 363c0 208 127 359 337 359c202 0 339 -142 339 -359c0 -210 -127 -363 -339 -363zM390 66c156 0 253 111 253 286c0 173 -98 282 -253 282c-154 0 -251 -109 -251 -282
c0 -175 97 -286 251 -286z" />
    <glyph glyph-name="Otilde" unicode="&#xd5;" horiz-adv-x="782" 
d="M481 779c-73 0 -125 78 -165 78c-26 0 -43 -30 -43 -72h-68c0 81 39 137 98 137c70 0 119 -78 165 -78c23 0 39 20 39 69h68c0 -85 -36 -134 -94 -134zM390 -11c-200 0 -337 142 -337 363c0 208 127 359 337 359c202 0 339 -142 339 -359c0 -210 -127 -363 -339 -363z
M390 66c156 0 253 111 253 286c0 173 -98 282 -253 282c-154 0 -251 -109 -251 -282c0 -175 97 -286 251 -286z" />
    <glyph glyph-name="OE" unicode="&#x152;" horiz-adv-x="1183" 
d="M390 -11c-200 0 -337 142 -337 363c0 208 127 359 337 359c110 0 200 -49 257 -130v119h478v-77h-395v-221h355v-75h-355v-250h404v-77h-487v121c-57 -83 -147 -132 -257 -132zM390 66c156 0 253 111 253 286c0 173 -98 282 -253 282c-154 0 -251 -109 -251 -282
c0 -175 97 -286 251 -286z" />
    <glyph glyph-name="P" unicode="P" horiz-adv-x="680" 
d="M169 0h-84v700h331c146 0 224 -93 224 -205c0 -142 -100 -218 -224 -218h-247v-277zM169 623v-269h251c87 0 134 63 134 141c0 83 -60 128 -134 128h-251z" />
    <glyph glyph-name="Thorn" unicode="&#xde;" horiz-adv-x="679" 
d="M169 0h-84v700h84v-135h246c146 0 224 -93 224 -205c0 -142 -100 -218 -224 -218h-246v-142zM169 488v-269h250c87 0 134 63 134 141c0 83 -60 128 -134 128h-250z" />
    <glyph glyph-name="Q" unicode="Q" horiz-adv-x="782" 
d="M653 -99l-64 -33l-80 139c-36 -12 -76 -18 -119 -18c-200 0 -337 142 -337 363c0 208 127 359 337 359c202 0 339 -142 339 -359c0 -139 -55 -253 -154 -314zM390 66c28 0 55 4 79 11l-105 183l65 33l106 -185c69 47 108 133 108 244c0 173 -98 282 -253 282
c-154 0 -251 -109 -251 -282c0 -175 97 -286 251 -286z" />
    <glyph glyph-name="R" unicode="R" horiz-adv-x="692" 
d="M169 0h-84v700h319c132 0 223 -79 223 -193c0 -83 -56 -153 -141 -180c37 -10 63 -34 76 -69l97 -258h-90l-90 243c-11 30 -35 46 -68 46h-242v-289zM169 623v-259h239c87 0 134 60 134 135c0 82 -58 124 -134 124h-239z" />
    <glyph glyph-name="Racute" unicode="&#x154;" horiz-adv-x="692" 
d="M566 960l-267 -220l-47 52l267 220zM169 0h-84v700h319c132 0 223 -79 223 -193c0 -83 -56 -153 -141 -180c37 -10 63 -34 76 -69l97 -258h-90l-90 243c-11 30 -35 46 -68 46h-242v-289zM169 623v-259h239c87 0 134 60 134 135c0 82 -58 124 -134 124h-239z" />
    <glyph glyph-name="Rcaron" unicode="&#x158;" horiz-adv-x="692" 
d="M348 766h-59l-175 160l51 48l153 -143l154 143l51 -48zM169 0h-84v700h319c132 0 223 -79 223 -193c0 -83 -56 -153 -141 -180c37 -10 63 -34 76 -69l97 -258h-90l-90 243c-11 30 -35 46 -68 46h-242v-289zM169 623v-259h239c87 0 134 60 134 135c0 82 -58 124 -134 124
h-239z" />
    <glyph glyph-name="uni0156" unicode="&#x156;" horiz-adv-x="692" 
d="M169 0h-84v700h319c132 0 223 -79 223 -193c0 -83 -56 -153 -141 -180c37 -10 63 -34 76 -69l97 -258h-90l-90 243c-11 30 -35 46 -68 46h-242v-289zM169 623v-259h239c87 0 134 60 134 135c0 82 -58 124 -134 124h-239zM385 -55l-109 -334l-67 21l105 335z" />
    <glyph glyph-name="S" unicode="S" horiz-adv-x="647" 
d="M356 -11c-176 0 -297 91 -306 223h88c10 -90 95 -147 218 -147c107 0 163 44 163 117c0 71 -62 98 -129 119l-121 38c-56 18 -197 48 -197 185c0 113 93 187 238 187c160 0 259 -81 270 -230h-87c-7 99 -76 154 -187 154c-88 0 -150 -40 -150 -107c0 -77 80 -93 140 -112
l113 -35c89 -28 196 -63 196 -195c0 -123 -94 -197 -249 -197z" />
    <glyph glyph-name="Sacute" unicode="&#x15a;" horiz-adv-x="647" 
d="M567 960l-267 -220l-47 52l267 220zM356 -11c-176 0 -297 91 -306 223h88c10 -90 95 -147 218 -147c107 0 163 44 163 117c0 71 -62 98 -129 119l-121 38c-56 18 -197 48 -197 185c0 113 93 187 238 187c160 0 259 -81 270 -230h-87c-7 99 -76 154 -187 154
c-88 0 -150 -40 -150 -107c0 -77 80 -93 140 -112l113 -35c89 -28 196 -63 196 -195c0 -123 -94 -197 -249 -197z" />
    <glyph glyph-name="Scaron" unicode="&#x160;" horiz-adv-x="647" 
d="M349 766h-59l-175 160l51 48l153 -143l154 143l51 -48zM356 -11c-176 0 -297 91 -306 223h88c10 -90 95 -147 218 -147c107 0 163 44 163 117c0 71 -62 98 -129 119l-121 38c-56 18 -197 48 -197 185c0 113 93 187 238 187c160 0 259 -81 270 -230h-87
c-7 99 -76 154 -187 154c-88 0 -150 -40 -150 -107c0 -77 80 -93 140 -112l113 -35c89 -28 196 -63 196 -195c0 -123 -94 -197 -249 -197z" />
    <glyph glyph-name="Scedilla" unicode="&#x15e;" horiz-adv-x="647" 
d="M605 186c0 -118 -86 -191 -229 -197l-67 -201l-68 13l63 191c-147 16 -246 101 -254 220h88c10 -90 95 -147 218 -147c107 0 163 44 163 117c0 71 -62 98 -129 119l-121 38c-56 18 -197 48 -197 185c0 113 93 187 238 187c160 0 259 -81 270 -230h-87
c-7 99 -76 154 -187 154c-88 0 -150 -40 -150 -107c0 -77 80 -93 140 -112l113 -35c89 -28 196 -63 196 -195z" />
    <glyph glyph-name="uni0218" unicode="&#x218;" horiz-adv-x="647" 
d="M356 -11c-176 0 -297 91 -306 223h88c10 -90 95 -147 218 -147c107 0 163 44 163 117c0 71 -62 98 -129 119l-121 38c-56 18 -197 48 -197 185c0 113 93 187 238 187c160 0 259 -81 270 -230h-87c-7 99 -76 154 -187 154c-88 0 -150 -40 -150 -107c0 -77 80 -93 140 -112
l113 -35c89 -28 196 -63 196 -195c0 -123 -94 -197 -249 -197zM384 -55l-109 -334l-67 21l105 335z" />
    <glyph glyph-name="uni1E9E" unicode="&#x1e9e;" horiz-adv-x="715" 
d="M428 -11c-60 0 -119 16 -159 30v77c63 -26 116 -35 155 -35c92 0 150 54 150 138c0 105 -92 174 -232 174v62l161 188h-244c-60 0 -92 -30 -92 -87v-536h-82v536c0 107 61 164 174 164h348v-70l-178 -208c137 -15 229 -101 229 -226c0 -124 -92 -207 -230 -207z" />
    <glyph glyph-name="T" unicode="T" horiz-adv-x="638" 
d="M361 0h-84v623h-242v77h568v-77h-242v-623z" />
    <glyph glyph-name="Tbar" unicode="&#x166;" horiz-adv-x="638" 
d="M361 0h-84v346h-193v67h193v210h-242v77h568v-77h-242v-210h193v-67h-193v-346z" />
    <glyph glyph-name="Tcaron" unicode="&#x164;" horiz-adv-x="638" 
d="M348 766h-59l-175 160l51 48l153 -143l154 143l51 -48zM361 0h-84v623h-242v77h568v-77h-242v-623z" />
    <glyph glyph-name="uni0162" unicode="&#x162;" horiz-adv-x="638" 
d="M35 623v77h568v-77h-242v-623h-6l-70 -212l-68 13l66 199h-6v623h-242z" />
    <glyph glyph-name="uni021A" unicode="&#x21a;" horiz-adv-x="638" 
d="M361 0h-84v623h-242v77h568v-77h-242v-623zM360 -55l-109 -334l-67 21l105 335z" />
    <glyph glyph-name="U" unicode="U" horiz-adv-x="716" 
d="M358 -11c-181 0 -279 113 -279 246v465h84v-463c0 -111 88 -170 195 -170s195 59 195 170v463h84v-465c0 -133 -99 -247 -279 -246z" />
    <glyph glyph-name="Uacute" unicode="&#xda;" horiz-adv-x="716" 
d="M605 960l-267 -220l-47 52l267 220zM358 -11c-181 0 -279 113 -279 246v465h84v-463c0 -111 88 -170 195 -170s195 59 195 170v463h84v-465c0 -133 -99 -247 -279 -246z" />
    <glyph glyph-name="Ubreve" unicode="&#x16c;" horiz-adv-x="716" 
d="M358 769c-98 0 -166 60 -166 146v13h72v-13c0 -49 39 -83 94 -83c54 0 92 34 92 83v13h72v-13c0 -86 -67 -146 -164 -146zM358 -11c-181 0 -279 113 -279 246v465h84v-463c0 -111 88 -170 195 -170s195 59 195 170v463h84v-465c0 -133 -99 -247 -279 -246z" />
    <glyph glyph-name="Ucircumflex" unicode="&#xdb;" horiz-adv-x="716" 
d="M357 894l-153 -143l-51 48l175 160h59l175 -160l-51 -48zM358 -11c-181 0 -279 113 -279 246v465h84v-463c0 -111 88 -170 195 -170s195 59 195 170v463h84v-465c0 -133 -99 -247 -279 -246z" />
    <glyph glyph-name="Udieresis" unicode="&#xdc;" horiz-adv-x="716" 
d="M255 765c-35 0 -63 28 -63 63s28 62 63 62s62 -27 62 -62s-27 -63 -62 -63zM461 765c-35 0 -63 28 -63 63s28 62 63 62s62 -27 62 -62s-27 -63 -62 -63zM358 -11c-181 0 -279 113 -279 246v465h84v-463c0 -111 88 -170 195 -170s195 59 195 170v463h84v-465
c0 -133 -99 -247 -279 -246z" />
    <glyph glyph-name="Ugrave" unicode="&#xd9;" horiz-adv-x="716" 
d="M425 792l-47 -52l-267 220l47 52zM358 -11c-181 0 -279 113 -279 246v465h84v-463c0 -111 88 -170 195 -170s195 59 195 170v463h84v-465c0 -133 -99 -247 -279 -246z" />
    <glyph glyph-name="Uhungarumlaut" unicode="&#x170;" horiz-adv-x="716" 
d="M513 1004l-206 -260l-62 36l208 259zM647 985l-206 -260l-62 36l208 259zM358 -11c-181 0 -279 113 -279 246v465h84v-463c0 -111 88 -170 195 -170s195 59 195 170v463h84v-465c0 -133 -99 -247 -279 -246z" />
    <glyph glyph-name="Umacron" unicode="&#x16a;" horiz-adv-x="716" 
d="M540 808h-364v67h364v-67zM358 -11c-181 0 -279 113 -279 246v465h84v-463c0 -111 88 -170 195 -170s195 59 195 170v463h84v-465c0 -133 -99 -247 -279 -246z" />
    <glyph glyph-name="Uogonek" unicode="&#x172;" horiz-adv-x="716" 
d="M553 237v463h84v-465c0 -96 -52 -183 -149 -223c-55 -36 -82 -73 -82 -104c0 -25 18 -38 45 -38c16 0 28 3 45 9l11 -67c-22 -8 -43 -11 -64 -11c-65 0 -104 35 -104 85c0 33 18 71 52 104c-11 -1 -22 -1 -33 -1c-181 0 -279 113 -279 246v465h84v-463
c0 -111 88 -170 195 -170s195 59 195 170z" />
    <glyph glyph-name="Uring" unicode="&#x16e;" horiz-adv-x="716" 
d="M358 747c-57 0 -100 41 -100 95s43 95 100 95s100 -41 100 -95s-43 -95 -100 -95zM358 792c29 0 50 21 50 50s-21 50 -50 50s-50 -21 -50 -50s21 -50 50 -50zM358 -11c-181 0 -279 113 -279 246v465h84v-463c0 -111 88 -170 195 -170s195 59 195 170v463h84v-465
c0 -133 -99 -247 -279 -246z" />
    <glyph glyph-name="uni01D3" unicode="&#x1d3;" horiz-adv-x="716" 
d="M387 766h-59l-175 160l51 48l153 -143l154 143l51 -48zM358 -11c-181 0 -279 113 -279 246v465h84v-463c0 -111 88 -170 195 -170s195 59 195 170v463h84v-465c0 -133 -99 -247 -279 -246z" />
    <glyph glyph-name="uni01D7" unicode="&#x1d7;" horiz-adv-x="716" 
d="M605 1155l-267 -220l-47 52l267 220zM255 765c-35 0 -63 28 -63 63s28 62 63 62s62 -27 62 -62s-27 -63 -62 -63zM461 765c-35 0 -63 28 -63 63s28 62 63 62s62 -27 62 -62s-27 -63 -62 -63zM358 -11c-181 0 -279 113 -279 246v465h84v-463c0 -111 88 -170 195 -170
s195 59 195 170v463h84v-465c0 -133 -99 -247 -279 -246z" />
    <glyph glyph-name="uni01D9" unicode="&#x1d9;" horiz-adv-x="716" 
d="M387 961h-59l-175 160l51 48l153 -143l154 143l51 -48zM255 765c-35 0 -63 28 -63 63s28 62 63 62s62 -27 62 -62s-27 -63 -62 -63zM461 765c-35 0 -63 28 -63 63s28 62 63 62s62 -27 62 -62s-27 -63 -62 -63zM358 -11c-181 0 -279 113 -279 246v465h84v-463
c0 -111 88 -170 195 -170s195 59 195 170v463h84v-465c0 -133 -99 -247 -279 -246z" />
    <glyph glyph-name="uni01DB" unicode="&#x1db;" horiz-adv-x="716" 
d="M425 987l-47 -52l-267 220l47 52zM255 765c-35 0 -63 28 -63 63s28 62 63 62s62 -27 62 -62s-27 -63 -62 -63zM461 765c-35 0 -63 28 -63 63s28 62 63 62s62 -27 62 -62s-27 -63 -62 -63zM358 -11c-181 0 -279 113 -279 246v465h84v-463c0 -111 88 -170 195 -170
s195 59 195 170v463h84v-465c0 -133 -99 -247 -279 -246z" />
    <glyph glyph-name="uni01D5" unicode="&#x1d5;" horiz-adv-x="716" 
d="M540 1003h-364v67h364v-67zM255 765c-35 0 -63 28 -63 63s28 62 63 62s62 -27 62 -62s-27 -63 -62 -63zM461 765c-35 0 -63 28 -63 63s28 62 63 62s62 -27 62 -62s-27 -63 -62 -63zM358 -11c-181 0 -279 113 -279 246v465h84v-463c0 -111 88 -170 195 -170
s195 59 195 170v463h84v-465c0 -133 -99 -247 -279 -246z" />
    <glyph glyph-name="V" unicode="V" horiz-adv-x="666" 
d="M382 0h-90l-272 700h90l227 -584l220 584h89z" />
    <glyph glyph-name="W" unicode="W" horiz-adv-x="946" 
d="M312 0h-94l-198 700h87l162 -574l162 574h82l164 -576l162 576h87l-198 -700h-94l-162 570z" />
    <glyph glyph-name="Wacute" unicode="&#x1e82;" horiz-adv-x="946" 
d="M719 960l-267 -220l-47 52l267 220zM312 0h-94l-198 700h87l162 -574l162 574h82l164 -576l162 576h87l-198 -700h-94l-162 570z" />
    <glyph glyph-name="Wcircumflex" unicode="&#x174;" horiz-adv-x="946" 
d="M471 894l-153 -143l-51 48l175 160h59l175 -160l-51 -48zM312 0h-94l-198 700h87l162 -574l162 574h82l164 -576l162 576h87l-198 -700h-94l-162 570z" />
    <glyph glyph-name="Wdieresis" unicode="&#x1e84;" horiz-adv-x="946" 
d="M369 765c-35 0 -63 28 -63 63s28 62 63 62s62 -27 62 -62s-27 -63 -62 -63zM575 765c-35 0 -63 28 -63 63s28 62 63 62s62 -27 62 -62s-27 -63 -62 -63zM312 0h-94l-198 700h87l162 -574l162 574h82l164 -576l162 576h87l-198 -700h-94l-162 570z" />
    <glyph glyph-name="Wgrave" unicode="&#x1e80;" horiz-adv-x="946" 
d="M539 792l-47 -52l-267 220l47 52zM312 0h-94l-198 700h87l162 -574l162 574h82l164 -576l162 576h87l-198 -700h-94l-162 570z" />
    <glyph glyph-name="X" unicode="X" horiz-adv-x="694" 
d="M132 0h-102l266 352l-258 348h102l208 -282l207 282h102l-256 -346l263 -354h-102l-213 288z" />
    <glyph glyph-name="Y" unicode="Y" horiz-adv-x="651" 
d="M367 0h-84v309l-266 391h99l210 -311l209 311h99l-267 -391v-309z" />
    <glyph glyph-name="Yacute" unicode="&#xdd;" horiz-adv-x="651" 
d="M572 960l-267 -220l-47 52l267 220zM367 0h-84v309l-266 391h99l210 -311l209 311h99l-267 -391v-309z" />
    <glyph glyph-name="Ycircumflex" unicode="&#x176;" horiz-adv-x="651" 
d="M325 914l-167 -155l-51 47l189 173h59l188 -172l-51 -48zM367 0h-84v309l-266 391h99l210 -311l209 311h99l-267 -391v-309z" />
    <glyph glyph-name="Ydieresis" unicode="&#x178;" horiz-adv-x="651" 
d="M222 765c-35 0 -63 28 -63 63s28 62 63 62s62 -27 62 -62s-27 -63 -62 -63zM428 765c-35 0 -63 28 -63 63s28 62 63 62s62 -27 62 -62s-27 -63 -62 -63zM367 0h-84v309l-266 391h99l210 -311l209 311h99l-267 -391v-309z" />
    <glyph glyph-name="Ygrave" unicode="&#x1ef2;" horiz-adv-x="651" 
d="M392 792l-47 -52l-267 220l47 52zM367 0h-84v309l-266 391h99l210 -311l209 311h99l-267 -391v-309z" />
    <glyph glyph-name="Z" unicode="Z" horiz-adv-x="616" 
d="M564 0h-512v77l403 546h-385v77h484v-77l-403 -546h413v-77z" />
    <glyph glyph-name="Zacute" unicode="&#x179;" horiz-adv-x="616" 
d="M553 960l-267 -220l-47 52l267 220zM564 0h-512v77l403 546h-385v77h484v-77l-403 -546h413v-77z" />
    <glyph glyph-name="Zcaron" unicode="&#x17d;" horiz-adv-x="616" 
d="M335 766h-59l-175 160l51 48l153 -143l154 143l51 -48zM564 0h-512v77l403 546h-385v77h484v-77l-403 -546h413v-77z" />
    <glyph glyph-name="Zdotaccent" unicode="&#x17b;" horiz-adv-x="616" 
d="M306 765c-36 0 -63 27 -63 63c0 35 27 62 63 62s63 -27 63 -62c0 -36 -27 -63 -63 -63zM564 0h-512v77l403 546h-385v77h484v-77l-403 -546h413v-77z" />
    <glyph glyph-name="a" unicode="a" horiz-adv-x="581" 
d="M239 -8c-120 0 -197 62 -197 159c0 122 118 145 224 156c81 8 151 7 152 50c-1 67 -56 114 -136 114c-77 0 -137 -43 -146 -106h-82c10 104 104 177 230 177c131 0 215 -78 215 -190v-258c0 -17 9 -26 27 -26h30v-68h-47c-57 0 -87 26 -87 75v16
c-31 -61 -91 -99 -183 -99zM251 63c99 0 167 63 167 151v69c-23 -31 -82 -37 -147 -44c-73 -8 -146 -18 -146 -86c0 -55 50 -90 126 -90z" />
    <glyph glyph-name="aacute" unicode="&#xe1;" horiz-adv-x="581" 
d="M539 817l-281 -227l-47 52l281 227zM239 -8c-120 0 -197 62 -197 159c0 122 118 145 224 156c81 8 151 7 152 50c-1 67 -56 114 -136 114c-77 0 -137 -43 -146 -106h-82c10 104 104 177 230 177c131 0 215 -78 215 -190v-258c0 -17 9 -26 27 -26h30v-68h-47
c-57 0 -87 26 -87 75v16c-31 -61 -91 -99 -183 -99zM251 63c99 0 167 63 167 151v69c-23 -31 -82 -37 -147 -44c-73 -8 -146 -18 -146 -86c0 -55 50 -90 126 -90z" />
    <glyph glyph-name="abreve" unicode="&#x103;" horiz-adv-x="581" 
d="M278 609c-98 0 -166 60 -166 146v13h72v-13c0 -49 39 -83 94 -83c54 0 92 34 92 83v13h72v-13c0 -86 -67 -146 -164 -146zM239 -8c-120 0 -197 62 -197 159c0 122 118 145 224 156c81 8 151 7 152 50c-1 67 -56 114 -136 114c-77 0 -137 -43 -146 -106h-82
c10 104 104 177 230 177c131 0 215 -78 215 -190v-258c0 -17 9 -26 27 -26h30v-68h-47c-57 0 -87 26 -87 75v16c-31 -61 -91 -99 -183 -99zM251 63c99 0 167 63 167 151v69c-23 -31 -82 -37 -147 -44c-73 -8 -146 -18 -146 -86c0 -55 50 -90 126 -90z" />
    <glyph glyph-name="acircumflex" unicode="&#xe2;" horiz-adv-x="581" 
d="M278 744l-167 -155l-51 47l189 173h59l188 -172l-51 -48zM239 -8c-120 0 -197 62 -197 159c0 122 118 145 224 156c81 8 151 7 152 50c-1 67 -56 114 -136 114c-77 0 -137 -43 -146 -106h-82c10 104 104 177 230 177c131 0 215 -78 215 -190v-258c0 -17 9 -26 27 -26h30
v-68h-47c-57 0 -87 26 -87 75v16c-31 -61 -91 -99 -183 -99zM251 63c99 0 167 63 167 151v69c-23 -31 -82 -37 -147 -44c-73 -8 -146 -18 -146 -86c0 -55 50 -90 126 -90z" />
    <glyph glyph-name="adieresis" unicode="&#xe4;" horiz-adv-x="581" 
d="M175 605c-35 0 -63 28 -63 63s28 62 63 62s62 -27 62 -62s-27 -63 -62 -63zM381 605c-35 0 -63 28 -63 63s28 62 63 62s62 -27 62 -62s-27 -63 -62 -63zM239 -8c-120 0 -197 62 -197 159c0 122 118 145 224 156c81 8 151 7 152 50c-1 67 -56 114 -136 114
c-77 0 -137 -43 -146 -106h-82c10 104 104 177 230 177c131 0 215 -78 215 -190v-258c0 -17 9 -26 27 -26h30v-68h-47c-57 0 -87 26 -87 75v16c-31 -61 -91 -99 -183 -99zM251 63c99 0 167 63 167 151v69c-23 -31 -82 -37 -147 -44c-73 -8 -146 -18 -146 -86
c0 -55 50 -90 126 -90z" />
    <glyph glyph-name="agrave" unicode="&#xe0;" horiz-adv-x="581" 
d="M345 642l-47 -52l-281 227l47 52zM239 -8c-120 0 -197 62 -197 159c0 122 118 145 224 156c81 8 151 7 152 50c-1 67 -56 114 -136 114c-77 0 -137 -43 -146 -106h-82c10 104 104 177 230 177c131 0 215 -78 215 -190v-258c0 -17 9 -26 27 -26h30v-68h-47
c-57 0 -87 26 -87 75v16c-31 -61 -91 -99 -183 -99zM251 63c99 0 167 63 167 151v69c-23 -31 -82 -37 -147 -44c-73 -8 -146 -18 -146 -86c0 -55 50 -90 126 -90z" />
    <glyph glyph-name="amacron" unicode="&#x101;" horiz-adv-x="581" 
d="M460 636h-364v67h364v-67zM239 -8c-120 0 -197 62 -197 159c0 122 118 145 224 156c81 8 151 7 152 50c-1 67 -56 114 -136 114c-77 0 -137 -43 -146 -106h-82c10 104 104 177 230 177c131 0 215 -78 215 -190v-258c0 -17 9 -26 27 -26h30v-68h-47c-57 0 -87 26 -87 75
v16c-31 -61 -91 -99 -183 -99zM251 63c99 0 167 63 167 151v69c-23 -31 -82 -37 -147 -44c-73 -8 -146 -18 -146 -86c0 -55 50 -90 126 -90z" />
    <glyph glyph-name="aogonek" unicode="&#x105;" horiz-adv-x="581" 
d="M563 -134l11 -67c-22 -8 -43 -11 -64 -11c-65 0 -104 35 -104 85c0 42 28 91 81 128c-43 6 -65 32 -65 74v16c-31 -61 -91 -99 -183 -99c-120 0 -197 62 -197 159c0 122 118 145 224 156c81 8 151 7 152 50c-1 67 -56 114 -136 114c-77 0 -137 -43 -146 -106h-82
c10 104 104 177 230 177c131 0 215 -78 215 -190v-258c0 -17 9 -26 27 -26h30v-68c-56 -37 -83 -74 -83 -105c0 -25 18 -38 45 -38c16 0 28 3 45 9zM418 214v69c-23 -31 -82 -37 -147 -44c-73 -8 -146 -18 -146 -86c0 -55 50 -90 126 -90c99 0 167 63 167 151z" />
    <glyph glyph-name="aring" unicode="&#xe5;" horiz-adv-x="581" 
d="M278 587c-57 0 -100 41 -100 95s43 95 100 95s100 -41 100 -95s-43 -95 -100 -95zM278 637c26 0 45 19 45 45s-19 45 -45 45s-45 -19 -45 -45s19 -45 45 -45zM239 -8c-120 0 -197 62 -197 159c0 122 118 145 224 156c81 8 151 7 152 50c-1 67 -56 114 -136 114
c-77 0 -137 -43 -146 -106h-82c10 104 104 177 230 177c131 0 215 -78 215 -190v-258c0 -17 9 -26 27 -26h30v-68h-47c-57 0 -87 26 -87 75v16c-31 -61 -91 -99 -183 -99zM251 63c99 0 167 63 167 151v69c-23 -31 -82 -37 -147 -44c-73 -8 -146 -18 -146 -86
c0 -55 50 -90 126 -90z" />
    <glyph glyph-name="uni01CE" unicode="&#x1ce;" horiz-adv-x="581" 
d="M308 607h-59l-189 173l51 47l167 -155l167 155l51 -48zM239 -8c-120 0 -197 62 -197 159c0 122 118 145 224 156c81 8 151 7 152 50c-1 67 -56 114 -136 114c-77 0 -137 -43 -146 -106h-82c10 104 104 177 230 177c131 0 215 -78 215 -190v-258c0 -17 9 -26 27 -26h30
v-68h-47c-57 0 -87 26 -87 75v16c-31 -61 -91 -99 -183 -99zM251 63c99 0 167 63 167 151v69c-23 -31 -82 -37 -147 -44c-73 -8 -146 -18 -146 -86c0 -55 50 -90 126 -90z" />
    <glyph glyph-name="atilde" unicode="&#xe3;" horiz-adv-x="581" 
d="M369 639c-73 0 -125 78 -166 78c-25 0 -42 -30 -42 -72h-68c0 81 39 137 98 137c70 0 119 -78 165 -78c23 0 39 20 39 69h68c0 -85 -36 -134 -94 -134zM239 -8c-120 0 -197 62 -197 159c0 122 118 145 224 156c81 8 151 7 152 50c-1 67 -56 114 -136 114
c-77 0 -137 -43 -146 -106h-82c10 104 104 177 230 177c131 0 215 -78 215 -190v-258c0 -17 9 -26 27 -26h30v-68h-47c-57 0 -87 26 -87 75v16c-31 -61 -91 -99 -183 -99zM251 63c99 0 167 63 167 151v69c-23 -31 -82 -37 -147 -44c-73 -8 -146 -18 -146 -86
c0 -55 50 -90 126 -90z" />
    <glyph glyph-name="ae" unicode="&#xe6;" horiz-adv-x="953" 
d="M679 -11c-112 0 -196 58 -236 149c-23 -89 -90 -146 -204 -146c-120 0 -197 62 -197 159c0 122 118 145 224 156c81 8 151 7 152 50c-1 67 -56 114 -136 114c-77 0 -137 -43 -146 -106h-82c10 104 104 177 230 177c89 0 156 -36 190 -94c47 62 118 94 195 94
c146 0 240 -98 243 -268v-23h-411c5 -113 71 -190 178 -190c74 0 128 37 150 106h81c-24 -109 -110 -178 -231 -178zM506 320h319c-15 93 -71 150 -156 150c-84 0 -146 -55 -163 -150zM251 63c99 0 167 63 167 151v69c-23 -31 -82 -37 -147 -44c-73 -8 -146 -18 -146 -86
c0 -55 50 -90 126 -90z" />
    <glyph glyph-name="a.ss02" horiz-adv-x="616" 
d="M282 -11c-142 0 -241 114 -241 279c0 162 98 274 240 274c85 0 156 -40 193 -103l8 91h66v-530h-82v88c-37 -61 -103 -99 -184 -99zM295 61c101 0 171 86 171 209c0 119 -68 201 -166 201c-102 0 -173 -83 -173 -203c0 -122 69 -207 168 -207z" />
    <glyph glyph-name="aacute.ss02" horiz-adv-x="616" 
d="M566 817l-281 -227l-47 52l281 227zM282 -11c-142 0 -241 114 -241 279c0 162 98 274 240 274c85 0 156 -40 193 -103l8 91h66v-530h-82v88c-37 -61 -103 -99 -184 -99zM295 61c101 0 171 86 171 209c0 119 -68 201 -166 201c-102 0 -173 -83 -173 -203
c0 -122 69 -207 168 -207z" />
    <glyph glyph-name="abreve.ss02" horiz-adv-x="616" 
d="M305 609c-98 0 -166 60 -166 146v13h72v-13c0 -49 39 -83 94 -83c54 0 92 34 92 83v13h72v-13c0 -86 -67 -146 -164 -146zM282 -11c-142 0 -241 114 -241 279c0 162 98 274 240 274c85 0 156 -40 193 -103l8 91h66v-530h-82v88c-37 -61 -103 -99 -184 -99zM295 61
c101 0 171 86 171 209c0 119 -68 201 -166 201c-102 0 -173 -83 -173 -203c0 -122 69 -207 168 -207z" />
    <glyph glyph-name="acircumflex.ss02" horiz-adv-x="616" 
d="M305 744l-167 -155l-51 47l189 173h59l188 -172l-51 -48zM282 -11c-142 0 -241 114 -241 279c0 162 98 274 240 274c85 0 156 -40 193 -103l8 91h66v-530h-82v88c-37 -61 -103 -99 -184 -99zM295 61c101 0 171 86 171 209c0 119 -68 201 -166 201
c-102 0 -173 -83 -173 -203c0 -122 69 -207 168 -207z" />
    <glyph glyph-name="adieresis.ss02" horiz-adv-x="616" 
d="M202 605c-35 0 -63 28 -63 63s28 62 63 62s62 -27 62 -62s-27 -63 -62 -63zM408 605c-35 0 -63 28 -63 63s28 62 63 62s62 -27 62 -62s-27 -63 -62 -63zM282 -11c-142 0 -241 114 -241 279c0 162 98 274 240 274c85 0 156 -40 193 -103l8 91h66v-530h-82v88
c-37 -61 -103 -99 -184 -99zM295 61c101 0 171 86 171 209c0 119 -68 201 -166 201c-102 0 -173 -83 -173 -203c0 -122 69 -207 168 -207z" />
    <glyph glyph-name="agrave.ss02" horiz-adv-x="616" 
d="M372 642l-47 -52l-281 227l47 52zM282 -11c-142 0 -241 114 -241 279c0 162 98 274 240 274c85 0 156 -40 193 -103l8 91h66v-530h-82v88c-37 -61 -103 -99 -184 -99zM295 61c101 0 171 86 171 209c0 119 -68 201 -166 201c-102 0 -173 -83 -173 -203
c0 -122 69 -207 168 -207z" />
    <glyph glyph-name="amacron.ss02" horiz-adv-x="616" 
d="M487 636h-364v67h364v-67zM282 -11c-142 0 -241 114 -241 279c0 162 98 274 240 274c85 0 156 -40 193 -103l8 91h66v-530h-82v88c-37 -61 -103 -99 -184 -99zM295 61c101 0 171 86 171 209c0 119 -68 201 -166 201c-102 0 -173 -83 -173 -203c0 -122 69 -207 168 -207z
" />
    <glyph glyph-name="aogonek.ss02" horiz-adv-x="616" 
d="M548 -134l11 -67c-22 -8 -43 -11 -64 -11c-65 0 -104 35 -104 85c0 42 27 90 79 127h-4v88c-37 -61 -103 -99 -184 -99c-142 0 -241 114 -241 279c0 162 98 274 240 274c85 0 156 -40 193 -103l8 91h66v-530h-7c-56 -37 -83 -74 -83 -105c0 -25 18 -38 45 -38
c16 0 28 3 45 9zM295 61c101 0 171 86 171 209c0 119 -68 201 -166 201c-102 0 -173 -83 -173 -203c0 -122 69 -207 168 -207z" />
    <glyph glyph-name="aring.ss02" horiz-adv-x="616" 
d="M305 587c-57 0 -100 41 -100 95s43 95 100 95s100 -41 100 -95s-43 -95 -100 -95zM305 637c26 0 45 19 45 45s-19 45 -45 45s-45 -19 -45 -45s19 -45 45 -45zM282 -11c-142 0 -241 114 -241 279c0 162 98 274 240 274c85 0 156 -40 193 -103l8 91h66v-530h-82v88
c-37 -61 -103 -99 -184 -99zM295 61c101 0 171 86 171 209c0 119 -68 201 -166 201c-102 0 -173 -83 -173 -203c0 -122 69 -207 168 -207z" />
    <glyph glyph-name="atilde.ss02" horiz-adv-x="616" 
d="M396 639c-73 0 -125 78 -166 78c-25 0 -42 -30 -42 -72h-68c0 81 39 137 98 137c70 0 119 -78 165 -78c23 0 39 20 39 69h68c0 -85 -36 -134 -94 -134zM282 -11c-142 0 -241 114 -241 279c0 162 98 274 240 274c85 0 156 -40 193 -103l8 91h66v-530h-82v88
c-37 -61 -103 -99 -184 -99zM295 61c101 0 171 86 171 209c0 119 -68 201 -166 201c-102 0 -173 -83 -173 -203c0 -122 69 -207 168 -207z" />
    <glyph glyph-name="b" unicode="b" horiz-adv-x="619" 
d="M340 -11c-87 0 -158 43 -194 112l-9 -101h-66v750h83v-303c39 58 106 95 186 95c140 0 238 -112 238 -274c0 -165 -98 -279 -238 -279zM327 61c98 0 165 85 165 207c0 119 -67 202 -166 202c-100 0 -172 -81 -172 -198c0 -124 72 -211 173 -211z" />
    <glyph glyph-name="c" unicode="c" horiz-adv-x="586" 
d="M305 -11c-172 0 -264 126 -264 279c0 178 117 274 261 274c133 0 228 -80 243 -216h-81c-14 88 -75 144 -164 144c-105 0 -175 -77 -175 -202c0 -135 82 -207 181 -207c85 0 143 54 158 146h81c-15 -137 -103 -218 -240 -218z" />
    <glyph glyph-name="cacute" unicode="&#x107;" horiz-adv-x="586" 
d="M561 817l-281 -227l-47 52l281 227zM305 -11c-172 0 -264 126 -264 279c0 178 117 274 261 274c133 0 228 -80 243 -216h-81c-14 88 -75 144 -164 144c-105 0 -175 -77 -175 -202c0 -135 82 -207 181 -207c85 0 143 54 158 146h81c-15 -137 -103 -218 -240 -218z" />
    <glyph glyph-name="ccaron" unicode="&#x10d;" horiz-adv-x="586" 
d="M330 607h-59l-189 173l51 47l167 -155l167 155l51 -48zM305 -11c-172 0 -264 126 -264 279c0 178 117 274 261 274c133 0 228 -80 243 -216h-81c-14 88 -75 144 -164 144c-105 0 -175 -77 -175 -202c0 -135 82 -207 181 -207c85 0 143 54 158 146h81
c-15 -137 -103 -218 -240 -218z" />
    <glyph glyph-name="ccedilla" unicode="&#xe7;" horiz-adv-x="586" 
d="M306 61c85 0 143 54 158 146h81c-14 -126 -89 -204 -207 -216l-67 -203l-68 13l63 190c-147 18 -225 136 -225 277c0 178 117 274 261 274c133 0 228 -80 243 -216h-81c-14 88 -75 144 -164 144c-105 0 -175 -77 -175 -202c0 -135 82 -207 181 -207z" />
    <glyph glyph-name="cdotaccent" unicode="&#x10b;" horiz-adv-x="586" 
d="M300 605c-36 0 -63 27 -63 63c0 35 27 62 63 62s63 -27 63 -62c0 -36 -27 -63 -63 -63zM305 -11c-172 0 -264 126 -264 279c0 178 117 274 261 274c133 0 228 -80 243 -216h-81c-14 88 -75 144 -164 144c-105 0 -175 -77 -175 -202c0 -135 82 -207 181 -207
c85 0 143 54 158 146h81c-15 -137 -103 -218 -240 -218z" />
    <glyph glyph-name="d" unicode="d" horiz-adv-x="620" 
d="M282 -11c-142 0 -241 114 -241 279c0 162 98 274 240 274c80 0 147 -35 185 -91v299h83v-750h-66l-9 102c-35 -69 -105 -113 -192 -113zM295 61c101 0 171 86 171 209c0 119 -68 201 -166 201c-102 0 -173 -83 -173 -203c0 -122 69 -207 168 -207z" />
    <glyph glyph-name="eth" unicode="&#xf0;" horiz-adv-x="587" 
d="M283 -11c-142 0 -242 106 -242 256c0 148 98 248 233 248c73 0 133 -30 172 -79c-17 67 -60 129 -129 177l-181 -70l-27 62l132 51c-36 16 -77 30 -123 41l18 71c78 -16 144 -42 200 -75l178 69l27 -61l-141 -55c91 -79 137 -188 137 -321c0 -194 -101 -314 -254 -314z
M288 61c94 0 158 76 158 186c0 102 -66 173 -160 173s-160 -71 -160 -176c0 -106 67 -183 162 -183z" />
    <glyph glyph-name="dcaron" unicode="&#x10f;" horiz-adv-x="708" 
d="M282 -11c-142 0 -241 114 -241 279c0 162 98 274 240 274c80 0 147 -35 185 -91v299h83v-750h-66l-9 102c-35 -69 -105 -113 -192 -113zM708 424h-78v326h78v-326zM295 61c101 0 171 86 171 209c0 119 -68 201 -166 201c-102 0 -173 -83 -173 -203
c0 -122 69 -207 168 -207z" />
    <glyph glyph-name="dcroat" unicode="&#x111;" horiz-adv-x="652" 
d="M282 -11c-142 0 -241 114 -241 279c0 162 98 274 240 274c80 0 147 -35 185 -91v168h-242v67h242v64h83v-64h104v-67h-104v-619h-66l-9 102c-35 -69 -105 -113 -192 -113zM295 61c101 0 171 86 171 209c0 119 -68 201 -166 201c-102 0 -173 -83 -173 -203
c0 -122 69 -207 168 -207z" />
    <glyph glyph-name="e" unicode="e" horiz-adv-x="576" 
d="M302 -11c-157 0 -261 115 -261 274c0 181 117 279 251 279c146 0 240 -98 243 -268v-23h-411c5 -113 71 -190 178 -190c74 0 128 37 150 106h81c-24 -109 -110 -178 -231 -178zM129 320h319c-15 93 -71 150 -156 150c-84 0 -146 -55 -163 -150z" />
    <glyph glyph-name="eacute" unicode="&#xe9;" horiz-adv-x="576" 
d="M551 817l-281 -227l-47 52l281 227zM302 -11c-157 0 -261 115 -261 274c0 181 117 279 251 279c146 0 240 -98 243 -268v-23h-411c5 -113 71 -190 178 -190c74 0 128 37 150 106h81c-24 -109 -110 -178 -231 -178zM129 320h319c-15 93 -71 150 -156 150
c-84 0 -146 -55 -163 -150z" />
    <glyph glyph-name="ecaron" unicode="&#x11b;" horiz-adv-x="576" 
d="M320 607h-59l-189 173l51 47l167 -155l167 155l51 -48zM302 -11c-157 0 -261 115 -261 274c0 181 117 279 251 279c146 0 240 -98 243 -268v-23h-411c5 -113 71 -190 178 -190c74 0 128 37 150 106h81c-24 -109 -110 -178 -231 -178zM129 320h319
c-15 93 -71 150 -156 150c-84 0 -146 -55 -163 -150z" />
    <glyph glyph-name="ecircumflex" unicode="&#xea;" horiz-adv-x="576" 
d="M290 744l-167 -155l-51 47l189 173h59l188 -172l-51 -48zM302 -11c-157 0 -261 115 -261 274c0 181 117 279 251 279c146 0 240 -98 243 -268v-23h-411c5 -113 71 -190 178 -190c74 0 128 37 150 106h81c-24 -109 -110 -178 -231 -178zM129 320h319
c-15 93 -71 150 -156 150c-84 0 -146 -55 -163 -150z" />
    <glyph glyph-name="edieresis" unicode="&#xeb;" horiz-adv-x="576" 
d="M187 605c-35 0 -63 28 -63 63s28 62 63 62s62 -27 62 -62s-27 -63 -62 -63zM393 605c-35 0 -63 28 -63 63s28 62 63 62s62 -27 62 -62s-27 -63 -62 -63zM302 -11c-157 0 -261 115 -261 274c0 181 117 279 251 279c146 0 240 -98 243 -268v-23h-411
c5 -113 71 -190 178 -190c74 0 128 37 150 106h81c-24 -109 -110 -178 -231 -178zM129 320h319c-15 93 -71 150 -156 150c-84 0 -146 -55 -163 -150z" />
    <glyph glyph-name="edotaccent" unicode="&#x117;" horiz-adv-x="576" 
d="M290 605c-36 0 -63 27 -63 63c0 35 27 62 63 62s63 -27 63 -62c0 -36 -27 -63 -63 -63zM302 -11c-157 0 -261 115 -261 274c0 181 117 279 251 279c146 0 240 -98 243 -268v-23h-411c5 -113 71 -190 178 -190c74 0 128 37 150 106h81c-24 -109 -110 -178 -231 -178z
M129 320h319c-15 93 -71 150 -156 150c-84 0 -146 -55 -163 -150z" />
    <glyph glyph-name="egrave" unicode="&#xe8;" horiz-adv-x="576" 
d="M357 642l-47 -52l-281 227l47 52zM302 -11c-157 0 -261 115 -261 274c0 181 117 279 251 279c146 0 240 -98 243 -268v-23h-411c5 -113 71 -190 178 -190c74 0 128 37 150 106h81c-24 -109 -110 -178 -231 -178zM129 320h319c-15 93 -71 150 -156 150
c-84 0 -146 -55 -163 -150z" />
    <glyph glyph-name="emacron" unicode="&#x113;" horiz-adv-x="576" 
d="M472 636h-364v67h364v-67zM302 -11c-157 0 -261 115 -261 274c0 181 117 279 251 279c146 0 240 -98 243 -268v-23h-411c5 -113 71 -190 178 -190c74 0 128 37 150 106h81c-24 -109 -110 -178 -231 -178zM129 320h319c-15 93 -71 150 -156 150c-84 0 -146 -55 -163 -150z
" />
    <glyph glyph-name="eogonek" unicode="&#x119;" horiz-adv-x="576" 
d="M535 274v-23h-411c5 -113 71 -190 178 -190c74 0 128 37 150 106h81c-16 -73 -60 -128 -124 -157c-51 -35 -76 -70 -76 -100c0 -25 18 -38 45 -38c16 0 28 3 45 9l11 -67c-22 -8 -43 -11 -64 -11c-65 0 -104 35 -104 85c0 33 17 69 49 101h-13c-157 0 -261 115 -261 274
c0 181 117 279 251 279c146 0 240 -98 243 -268zM129 320h319c-15 93 -71 150 -156 150c-84 0 -146 -55 -163 -150z" />
    <glyph glyph-name="f" unicode="f" horiz-adv-x="404" 
d="M210 0h-83v460h-98v70h98v74c0 95 53 146 151 146h118v-70h-118c-44 0 -68 -27 -68 -76v-74h172v-70h-172v-460z" />
    <glyph glyph-name="g" unicode="g" horiz-adv-x="615" 
d="M299 -212c-143 0 -240 69 -240 181h83c0 -63 64 -111 157 -111c109 0 166 65 166 156v86c-37 -55 -101 -91 -182 -91c-141 0 -242 108 -242 264c0 159 102 269 242 269c85 0 154 -40 190 -104l9 92h65v-516c0 -134 -90 -226 -248 -226zM295 81c100 0 170 80 170 195
c0 114 -70 194 -170 194c-99 0 -168 -80 -168 -196c0 -114 69 -193 168 -193z" />
    <glyph glyph-name="gbreve" unicode="&#x11f;" horiz-adv-x="615" 
d="M294 609c-98 0 -166 60 -166 146v13h72v-13c0 -49 39 -83 94 -83c54 0 92 34 92 83v13h72v-13c0 -86 -67 -146 -164 -146zM299 -212c-143 0 -240 69 -240 181h83c0 -63 64 -111 157 -111c109 0 166 65 166 156v86c-37 -55 -101 -91 -182 -91c-141 0 -242 108 -242 264
c0 159 102 269 242 269c85 0 154 -40 190 -104l9 92h65v-516c0 -134 -90 -226 -248 -226zM295 81c100 0 170 80 170 195c0 114 -70 194 -170 194c-99 0 -168 -80 -168 -196c0 -114 69 -193 168 -193z" />
    <glyph glyph-name="uni0123" unicode="&#x123;" horiz-adv-x="615" 
d="M253 585l109 334l67 -21l-105 -335zM299 -212c-143 0 -240 69 -240 181h83c0 -63 64 -111 157 -111c109 0 166 65 166 156v86c-37 -55 -101 -91 -182 -91c-141 0 -242 108 -242 264c0 159 102 269 242 269c85 0 154 -40 190 -104l9 92h65v-516c0 -134 -90 -226 -248 -226
zM295 81c100 0 170 80 170 195c0 114 -70 194 -170 194c-99 0 -168 -80 -168 -196c0 -114 69 -193 168 -193z" />
    <glyph glyph-name="gdotaccent" unicode="&#x121;" horiz-adv-x="615" 
d="M294 605c-36 0 -63 27 -63 63c0 35 27 62 63 62s63 -27 63 -62c0 -36 -27 -63 -63 -63zM299 -212c-143 0 -240 69 -240 181h83c0 -63 64 -111 157 -111c109 0 166 65 166 156v86c-37 -55 -101 -91 -182 -91c-141 0 -242 108 -242 264c0 159 102 269 242 269
c85 0 154 -40 190 -104l9 92h65v-516c0 -134 -90 -226 -248 -226zM295 81c100 0 170 80 170 195c0 114 -70 194 -170 194c-99 0 -168 -80 -168 -196c0 -114 69 -193 168 -193z" />
    <glyph glyph-name="g.ss03" horiz-adv-x="557" 
d="M263 -212c-140 1 -233 60 -233 152c0 54 32 94 86 113c-26 18 -41 44 -41 74c0 44 31 77 83 93c-54 34 -81 91 -81 147c0 88 65 175 187 175c27 0 52 -4 76 -12h208v-64h-128c27 -30 44 -68 44 -113c0 -95 -77 -163 -191 -163c-21 0 -40 2 -57 6c-43 -5 -69 -25 -69 -54
c0 -27 22 -44 56 -44h156c99 0 163 -52 163 -135c0 -107 -107 -176 -259 -175zM272 259c68 0 116 44 116 107c0 64 -48 109 -116 109s-116 -44 -116 -108s48 -108 116 -108zM267 -143c108 -1 179 40 179 103c0 44 -36 69 -91 69h-163c-52 0 -88 -31 -88 -76
c0 -59 62 -95 163 -96z" />
    <glyph glyph-name="gbreve.ss03" horiz-adv-x="557" 
d="M272 609c-98 0 -166 60 -166 146v13h72v-13c0 -49 39 -83 94 -83c54 0 92 34 92 83v13h72v-13c0 -86 -67 -146 -164 -146zM263 -212c-140 1 -233 60 -233 152c0 54 32 94 86 113c-26 18 -41 44 -41 74c0 44 31 77 83 93c-54 34 -81 91 -81 147c0 88 65 175 187 175
c27 0 52 -4 76 -12h208v-64h-128c27 -30 44 -68 44 -113c0 -95 -77 -163 -191 -163c-21 0 -40 2 -57 6c-43 -5 -69 -25 -69 -54c0 -27 22 -44 56 -44h156c99 0 163 -52 163 -135c0 -107 -107 -176 -259 -175zM272 259c68 0 116 44 116 107c0 64 -48 109 -116 109
s-116 -44 -116 -108s48 -108 116 -108zM267 -143c108 -1 179 40 179 103c0 44 -36 69 -91 69h-163c-52 0 -88 -31 -88 -76c0 -59 62 -95 163 -96z" />
    <glyph glyph-name="uni0123.ss03" horiz-adv-x="557" 
d="M231 585l109 334l67 -21l-105 -335zM263 -212c-140 1 -233 60 -233 152c0 54 32 94 86 113c-26 18 -41 44 -41 74c0 44 31 77 83 93c-54 34 -81 91 -81 147c0 88 65 175 187 175c27 0 52 -4 76 -12h208v-64h-128c27 -30 44 -68 44 -113c0 -95 -77 -163 -191 -163
c-21 0 -40 2 -57 6c-43 -5 -69 -25 -69 -54c0 -27 22 -44 56 -44h156c99 0 163 -52 163 -135c0 -107 -107 -176 -259 -175zM272 259c68 0 116 44 116 107c0 64 -48 109 -116 109s-116 -44 -116 -108s48 -108 116 -108zM267 -143c108 -1 179 40 179 103c0 44 -36 69 -91 69
h-163c-52 0 -88 -31 -88 -76c0 -59 62 -95 163 -96z" />
    <glyph glyph-name="gdotaccent.ss03" horiz-adv-x="557" 
d="M272 605c-36 0 -63 27 -63 63c0 35 27 62 63 62s63 -27 63 -62c0 -36 -27 -63 -63 -63zM263 -212c-140 1 -233 60 -233 152c0 54 32 94 86 113c-26 18 -41 44 -41 74c0 44 31 77 83 93c-54 34 -81 91 -81 147c0 88 65 175 187 175c27 0 52 -4 76 -12h208v-64h-128
c27 -30 44 -68 44 -113c0 -95 -77 -163 -191 -163c-21 0 -40 2 -57 6c-43 -5 -69 -25 -69 -54c0 -27 22 -44 56 -44h156c99 0 163 -52 163 -135c0 -107 -107 -176 -259 -175zM272 259c68 0 116 44 116 107c0 64 -48 109 -116 109s-116 -44 -116 -108s48 -108 116 -108z
M267 -143c108 -1 179 40 179 103c0 44 -36 69 -91 69h-163c-52 0 -88 -31 -88 -76c0 -59 62 -95 163 -96z" />
    <glyph glyph-name="h" unicode="h" horiz-adv-x="581" 
d="M154 0h-83v750h83v-288c38 48 103 80 175 80c114 0 190 -74 190 -191v-351h-83v348c0 74 -48 121 -123 121c-100 0 -158 -66 -159 -147v-322z" />
    <glyph glyph-name="hbar" unicode="&#x127;" horiz-adv-x="616" 
d="M189 0h-83v619h-107v67h107v64h83v-64h235v-67h-235v-157c38 48 103 80 175 80c114 0 190 -74 190 -191v-351h-83v348c0 74 -48 121 -123 121c-100 0 -158 -66 -159 -147v-322z" />
    <glyph glyph-name="i" unicode="i" horiz-adv-x="219" 
d="M110 619c-35 0 -62 27 -62 62s27 61 62 61s61 -26 61 -61s-26 -62 -61 -62zM151 0h-83v530h83v-530z" />
    <glyph glyph-name="dotlessi" unicode="&#x131;" horiz-adv-x="220" 
d="M151 0h-83l1 530h83z" />
    <glyph glyph-name="iacute" unicode="&#xed;" horiz-adv-x="220" 
d="M372 817l-281 -227l-47 52l281 227zM151 0h-83l1 530h83z" />
    <glyph glyph-name="icircumflex" unicode="&#xee;" horiz-adv-x="220" 
d="M111 744l-167 -155l-51 47l189 173h59l188 -172l-51 -48zM151 0h-83l1 530h83z" />
    <glyph glyph-name="idieresis" unicode="&#xef;" horiz-adv-x="220" 
d="M8 605c-35 0 -63 28 -63 63s28 62 63 62s62 -27 62 -62s-27 -63 -62 -63zM214 605c-35 0 -63 28 -63 63s28 62 63 62s62 -27 62 -62s-27 -63 -62 -63zM151 0h-83l1 530h83z" />
    <glyph glyph-name="i.loclTRK" horiz-adv-x="220" 
d="M111 605c-36 0 -63 27 -63 63c0 35 27 62 63 62s63 -27 63 -62c0 -36 -27 -63 -63 -63zM151 0h-83l1 530h83z" />
    <glyph glyph-name="igrave" unicode="&#xec;" horiz-adv-x="220" 
d="M178 642l-47 -52l-281 227l47 52zM151 0h-83l1 530h83z" />
    <glyph glyph-name="imacron" unicode="&#x12b;" horiz-adv-x="220" 
d="M293 636h-364v67h364v-67zM151 0h-83l1 530h83z" />
    <glyph glyph-name="uni01D0" unicode="&#x1d0;" horiz-adv-x="220" 
d="M141 607h-59l-189 173l51 47l167 -155l167 155l51 -48zM151 0h-83l1 530h83z" />
    <glyph glyph-name="iogonek" unicode="&#x12f;" horiz-adv-x="219" 
d="M110 619c-35 0 -62 27 -62 62s27 61 62 61s61 -26 61 -61s-26 -62 -61 -62zM107 -143c16 0 28 3 45 9l11 -67c-22 -8 -43 -11 -64 -11c-65 0 -104 35 -104 85c0 42 27 90 79 127h-6v530h83v-530h-6c-56 -37 -83 -74 -83 -105c0 -25 18 -38 45 -38z" />
    <glyph glyph-name="j" unicode="j" horiz-adv-x="219" 
d="M110 619c-36 0 -62 26 -62 62c0 35 26 61 62 61c35 0 61 -26 61 -61c0 -36 -26 -62 -61 -62zM-7 -200h-74v70h74c49 0 75 28 75 81v579h83v-579c0 -98 -55 -151 -158 -151z" />
    <glyph glyph-name="k" unicode="k" horiz-adv-x="543" 
d="M154 0h-83v750h83v-481l258 261h100l-191 -193l220 -337h-97l-180 279l-110 -111v-168z" />
    <glyph glyph-name="uni0137" unicode="&#x137;" horiz-adv-x="543" 
d="M154 0h-83v750h83v-481l258 261h100l-191 -193l220 -337h-97l-180 279l-110 -111v-168zM327 -55l-109 -334l-67 21l105 335z" />
    <glyph glyph-name="l" unicode="l" horiz-adv-x="225" 
d="M154 0h-83v750h83v-750z" />
    <glyph glyph-name="lacute" unicode="&#x13a;" horiz-adv-x="225" 
d="M360 1010l-267 -220l-47 52l267 220zM154 0h-83v750h83v-750z" />
    <glyph glyph-name="lcaron" unicode="&#x13e;" horiz-adv-x="313" 
d="M154 0h-83v750h83v-750zM313 424h-78v326h78v-326z" />
    <glyph glyph-name="uni013C" unicode="&#x13c;" horiz-adv-x="225" 
d="M154 0h-83v750h83v-750zM154 -55l-109 -334l-67 21l105 335z" />
    <glyph glyph-name="lslash" unicode="&#x142;" horiz-adv-x="383" 
d="M233 0h-83v344l-129 -79l-31 54l160 98v333h83v-282l129 79l31 -55l-160 -98v-394z" />
    <glyph glyph-name="m" unicode="m" horiz-adv-x="924" 
d="M151 0h-83v530h66l8 -82c36 57 105 94 181 94c80 0 140 -41 167 -105c34 62 107 105 188 105c112 0 184 -79 184 -187v-355h-83v352c0 71 -44 117 -115 117c-99 0 -157 -66 -158 -147v-322h-82v352c0 71 -44 117 -115 117c-99 0 -157 -66 -158 -147v-322z" />
    <glyph glyph-name="n" unicode="n" horiz-adv-x="578" 
d="M151 0h-83v530h66l8 -81c36 56 105 93 184 93c114 0 190 -74 190 -191v-351h-83v348c0 74 -48 121 -128 121c-95 0 -153 -66 -154 -147v-322z" />
    <glyph glyph-name="nacute" unicode="&#x144;" horiz-adv-x="578" 
d="M560 817l-281 -227l-47 52l281 227zM151 0h-83v530h66l8 -81c36 56 105 93 184 93c114 0 190 -74 190 -191v-351h-83v348c0 74 -48 121 -128 121c-95 0 -153 -66 -154 -147v-322z" />
    <glyph glyph-name="ncaron" unicode="&#x148;" horiz-adv-x="578" 
d="M329 607h-59l-189 173l51 47l167 -155l167 155l51 -48zM151 0h-83v530h66l8 -81c36 56 105 93 184 93c114 0 190 -74 190 -191v-351h-83v348c0 74 -48 121 -128 121c-95 0 -153 -66 -154 -147v-322z" />
    <glyph glyph-name="uni0146" unicode="&#x146;" horiz-adv-x="578" 
d="M151 0h-83v530h66l8 -81c36 56 105 93 184 93c114 0 190 -74 190 -191v-351h-83v348c0 74 -48 121 -128 121c-95 0 -153 -66 -154 -147v-322zM333 -55l-109 -334l-67 21l105 335z" />
    <glyph glyph-name="eng" unicode="&#x14b;" horiz-adv-x="578" 
d="M358 -200h-74v70h74c49 0 75 28 75 81v397c0 74 -48 121 -128 121c-95 0 -153 -66 -154 -147v-322h-83v530h66l8 -81c36 56 105 93 184 93c114 0 190 -74 190 -191v-400c0 -98 -55 -151 -158 -151z" />
    <glyph glyph-name="ntilde" unicode="&#xf1;" horiz-adv-x="578" 
d="M390 639c-73 0 -125 78 -166 78c-25 0 -42 -30 -42 -72h-68c0 81 39 137 98 137c70 0 119 -78 165 -78c23 0 39 20 39 69h68c0 -85 -36 -134 -94 -134zM151 0h-83v530h66l8 -81c36 56 105 93 184 93c114 0 190 -74 190 -191v-351h-83v348c0 74 -48 121 -128 121
c-95 0 -153 -66 -154 -147v-322z" />
    <glyph glyph-name="o" unicode="o" horiz-adv-x="602" 
d="M301 -11c-170 0 -260 121 -260 281c0 177 116 272 260 272c169 0 260 -122 260 -272c0 -183 -111 -281 -260 -281zM301 61c113 0 175 94 175 209c0 119 -69 200 -175 200s-175 -81 -175 -200c0 -136 79 -209 175 -209z" />
    <glyph glyph-name="oacute" unicode="&#xf3;" horiz-adv-x="602" 
d="M562 817l-281 -227l-47 52l281 227zM301 -11c-170 0 -260 121 -260 281c0 177 116 272 260 272c169 0 260 -122 260 -272c0 -183 -111 -281 -260 -281zM301 61c113 0 175 94 175 209c0 119 -69 200 -175 200s-175 -81 -175 -200c0 -136 79 -209 175 -209z" />
    <glyph glyph-name="ocircumflex" unicode="&#xf4;" horiz-adv-x="602" 
d="M301 744l-167 -155l-51 47l189 173h59l188 -172l-51 -48zM301 -11c-170 0 -260 121 -260 281c0 177 116 272 260 272c169 0 260 -122 260 -272c0 -183 -111 -281 -260 -281zM301 61c113 0 175 94 175 209c0 119 -69 200 -175 200s-175 -81 -175 -200
c0 -136 79 -209 175 -209z" />
    <glyph glyph-name="odieresis" unicode="&#xf6;" horiz-adv-x="602" 
d="M198 605c-35 0 -63 28 -63 63s28 62 63 62s62 -27 62 -62s-27 -63 -62 -63zM404 605c-35 0 -63 28 -63 63s28 62 63 62s62 -27 62 -62s-27 -63 -62 -63zM301 -11c-170 0 -260 121 -260 281c0 177 116 272 260 272c169 0 260 -122 260 -272c0 -183 -111 -281 -260 -281z
M301 61c113 0 175 94 175 209c0 119 -69 200 -175 200s-175 -81 -175 -200c0 -136 79 -209 175 -209z" />
    <glyph glyph-name="ograve" unicode="&#xf2;" horiz-adv-x="602" 
d="M368 642l-47 -52l-281 227l47 52zM301 -11c-170 0 -260 121 -260 281c0 177 116 272 260 272c169 0 260 -122 260 -272c0 -183 -111 -281 -260 -281zM301 61c113 0 175 94 175 209c0 119 -69 200 -175 200s-175 -81 -175 -200c0 -136 79 -209 175 -209z" />
    <glyph glyph-name="ohungarumlaut" unicode="&#x151;" horiz-adv-x="602" 
d="M456 854l-206 -260l-62 36l208 259zM590 835l-206 -260l-62 36l208 259zM301 -11c-170 0 -260 121 -260 281c0 177 116 272 260 272c169 0 260 -122 260 -272c0 -183 -111 -281 -260 -281zM301 61c113 0 175 94 175 209c0 119 -69 200 -175 200s-175 -81 -175 -200
c0 -136 79 -209 175 -209z" />
    <glyph glyph-name="omacron" unicode="&#x14d;" horiz-adv-x="602" 
d="M483 636h-364v67h364v-67zM301 -11c-170 0 -260 121 -260 281c0 177 116 272 260 272c169 0 260 -122 260 -272c0 -183 -111 -281 -260 -281zM301 61c113 0 175 94 175 209c0 119 -69 200 -175 200s-175 -81 -175 -200c0 -136 79 -209 175 -209z" />
    <glyph glyph-name="oslash" unicode="&#xf8;" horiz-adv-x="602" 
d="M552 542l-60 -77c45 -49 69 -118 69 -195c0 -183 -111 -281 -260 -281c-60 0 -110 15 -150 42l-59 -75l-42 29l62 79c-47 51 -71 123 -71 206c0 177 116 272 260 272c61 0 112 -16 152 -43l56 72zM126 270c0 -58 14 -105 38 -139l240 306c-28 21 -63 33 -103 33
c-106 0 -175 -81 -175 -200zM301 61c113 0 175 94 175 209c0 51 -13 96 -36 129l-240 -305c29 -22 64 -33 101 -33z" />
    <glyph glyph-name="uni01D2" unicode="&#x1d2;" horiz-adv-x="602" 
d="M331 607h-59l-189 173l51 47l167 -155l167 155l51 -48zM301 -11c-170 0 -260 121 -260 281c0 177 116 272 260 272c169 0 260 -122 260 -272c0 -183 -111 -281 -260 -281zM301 61c113 0 175 94 175 209c0 119 -69 200 -175 200s-175 -81 -175 -200
c0 -136 79 -209 175 -209z" />
    <glyph glyph-name="otilde" unicode="&#xf5;" horiz-adv-x="602" 
d="M392 639c-73 0 -125 78 -166 78c-25 0 -42 -30 -42 -72h-68c0 81 39 137 98 137c70 0 119 -78 165 -78c23 0 39 20 39 69h68c0 -85 -36 -134 -94 -134zM301 -11c-170 0 -260 121 -260 281c0 177 116 272 260 272c169 0 260 -122 260 -272c0 -183 -111 -281 -260 -281z
M301 61c113 0 175 94 175 209c0 119 -69 200 -175 200s-175 -81 -175 -200c0 -136 79 -209 175 -209z" />
    <glyph glyph-name="oe" unicode="&#x153;" horiz-adv-x="1030" 
d="M301 -11c-170 0 -260 121 -260 281c0 177 116 272 260 272c110 0 187 -52 228 -130c44 85 126 130 217 130c146 0 240 -98 243 -268v-23h-411c5 -113 71 -190 178 -190c74 0 128 37 150 106h81c-24 -109 -110 -178 -231 -178c-104 0 -185 50 -227 131
c-44 -86 -127 -131 -228 -131zM301 61c113 0 175 94 175 209c0 119 -69 200 -175 200s-175 -81 -175 -200c0 -136 79 -209 175 -209zM583 320h319c-15 93 -71 150 -156 150c-84 0 -146 -55 -163 -150z" />
    <glyph glyph-name="p" unicode="p" horiz-adv-x="618" 
d="M153 -200h-83v730h66l9 -96c38 66 108 108 194 108c140 0 238 -112 238 -274c0 -165 -98 -279 -238 -279c-81 0 -148 37 -186 99v-288zM326 61c98 0 165 85 165 207c0 119 -67 202 -166 202c-100 0 -172 -81 -172 -198c0 -124 72 -211 173 -211z" />
    <glyph glyph-name="thorn" unicode="&#xfe;" horiz-adv-x="618" 
d="M153 -200h-82v950h82v-303c39 58 106 95 186 95c140 0 238 -112 238 -274c0 -165 -98 -279 -238 -279c-81 0 -148 37 -186 99v-288zM326 61c98 0 165 85 165 207c0 119 -67 202 -166 202c-100 0 -172 -81 -172 -198c0 -124 72 -211 173 -211z" />
    <glyph glyph-name="q" unicode="q" horiz-adv-x="619" 
d="M549 -200h-83v288c-37 -61 -103 -99 -184 -99c-142 0 -241 114 -241 279c0 162 98 274 240 274c86 0 157 -40 193 -104l9 92h66v-730zM295 61c101 0 171 86 171 209c0 119 -68 201 -166 201c-102 0 -173 -83 -173 -203c0 -122 69 -207 168 -207z" />
    <glyph glyph-name="r" unicode="r" horiz-adv-x="373" 
d="M151 0h-83v530h66l10 -101c34 68 96 104 184 104h18v-82h-18c-112 0 -177 -64 -177 -173v-278z" />
    <glyph glyph-name="racute" unicode="&#x155;" horiz-adv-x="373" 
d="M479 817l-281 -227l-47 52l281 227zM151 0h-83v530h66l10 -101c34 68 96 104 184 104h18v-82h-18c-112 0 -177 -64 -177 -173v-278z" />
    <glyph glyph-name="rcaron" unicode="&#x159;" horiz-adv-x="373" 
d="M248 607h-59l-189 173l51 47l167 -155l167 155l51 -48zM151 0h-83v530h66l10 -101c34 68 96 104 184 104h18v-82h-18c-112 0 -177 -64 -177 -173v-278z" />
    <glyph glyph-name="uni0157" unicode="&#x157;" horiz-adv-x="373" 
d="M151 0h-83v530h66l10 -101c34 68 96 104 184 104h18v-82h-18c-112 0 -177 -64 -177 -173v-278zM151 -55l-109 -334l-67 21l105 335z" />
    <glyph glyph-name="r.ss04" horiz-adv-x="389" 
d="M151 0h-83v530h66l13 -136l184 148l49 -56l-229 -181v-305z" />
    <glyph glyph-name="racute.ss04" horiz-adv-x="389" 
d="M489 817l-281 -227l-47 52l281 227zM151 0h-83v530h66l13 -136l184 148l49 -56l-229 -181v-305z" />
    <glyph glyph-name="rcaron.ss04" horiz-adv-x="389" 
d="M258 607h-59l-189 173l51 47l167 -155l167 155l51 -48zM151 0h-83v530h66l13 -136l184 148l49 -56l-229 -181v-305z" />
    <glyph glyph-name="uni0157.ss04" horiz-adv-x="389" 
d="M151 0h-83v530h66l13 -136l184 148l49 -56l-229 -181v-305zM150 -55l-109 -334l-67 21l105 335z" />
    <glyph glyph-name="s" unicode="s" horiz-adv-x="497" 
d="M266 -11c-126 0 -219 66 -226 178h81c6 -69 69 -107 149 -107c75 0 111 29 111 82c0 50 -39 61 -94 80l-77 26c-78 26 -156 50 -156 146c0 90 70 148 186 148c117 0 198 -63 211 -181h-81c-9 74 -61 110 -133 110c-65 0 -103 -29 -103 -75c0 -55 58 -66 102 -81l72 -24
c97 -32 155 -65 155 -153c0 -93 -68 -149 -197 -149z" />
    <glyph glyph-name="sacute" unicode="&#x15b;" horiz-adv-x="497" 
d="M510 817l-281 -227l-47 52l281 227zM266 -11c-126 0 -219 66 -226 178h81c6 -69 69 -107 149 -107c75 0 111 29 111 82c0 50 -39 61 -94 80l-77 26c-78 26 -156 50 -156 146c0 90 70 148 186 148c117 0 198 -63 211 -181h-81c-9 74 -61 110 -133 110
c-65 0 -103 -29 -103 -75c0 -55 58 -66 102 -81l72 -24c97 -32 155 -65 155 -153c0 -93 -68 -149 -197 -149z" />
    <glyph glyph-name="scaron" unicode="&#x161;" horiz-adv-x="497" 
d="M279 607h-59l-189 173l51 47l167 -155l167 155l51 -48zM266 -11c-126 0 -219 66 -226 178h81c6 -69 69 -107 149 -107c75 0 111 29 111 82c0 50 -39 61 -94 80l-77 26c-78 26 -156 50 -156 146c0 90 70 148 186 148c117 0 198 -63 211 -181h-81c-9 74 -61 110 -133 110
c-65 0 -103 -29 -103 -75c0 -55 58 -66 102 -81l72 -24c97 -32 155 -65 155 -153c0 -93 -68 -149 -197 -149z" />
    <glyph glyph-name="scedilla" unicode="&#x15f;" horiz-adv-x="497" 
d="M463 138c0 -83 -54 -136 -157 -147l-67 -203l-68 13l63 189c-110 11 -188 75 -194 177h81c6 -69 69 -107 149 -107c75 0 111 29 111 82c0 50 -39 61 -94 80l-77 26c-78 26 -156 50 -156 146c0 90 70 148 186 148c117 0 198 -63 211 -181h-81c-9 74 -61 110 -133 110
c-65 0 -103 -29 -103 -75c0 -55 58 -66 102 -81l72 -24c97 -32 155 -65 155 -153z" />
    <glyph glyph-name="uni0219" unicode="&#x219;" horiz-adv-x="497" 
d="M266 -11c-126 0 -219 66 -226 178h81c6 -69 69 -107 149 -107c75 0 111 29 111 82c0 50 -39 61 -94 80l-77 26c-78 26 -156 50 -156 146c0 90 70 148 186 148c117 0 198 -63 211 -181h-81c-9 74 -61 110 -133 110c-65 0 -103 -29 -103 -75c0 -55 58 -66 102 -81l72 -24
c97 -32 155 -65 155 -153c0 -93 -68 -149 -197 -149zM314 -55l-109 -334l-67 21l105 335z" />
    <glyph glyph-name="germandbls" unicode="&#xdf;" horiz-adv-x="589" 
d="M328 -11c-40 0 -77 7 -107 16v74c30 -11 65 -19 99 -19c85 0 140 50 140 127c0 81 -62 136 -152 136h-51v72h51c73 0 124 50 124 120c0 74 -55 124 -134 124c-91 0 -144 -59 -144 -160v-479h-83v479c0 146 85 232 227 232c129 0 219 -75 219 -183
c0 -83 -57 -146 -142 -163c101 -21 168 -95 168 -191c0 -108 -84 -185 -215 -185z" />
    <glyph glyph-name="t" unicode="t" horiz-adv-x="383" 
d="M344 0h-59c-103 0 -158 53 -158 151v309h-98v70h98v181h83v-181h143v-70h-143v-309c0 -53 26 -81 75 -81h59v-70z" />
    <glyph glyph-name="tbar" unicode="&#x167;" horiz-adv-x="383" 
d="M344 0h-59c-103 0 -158 53 -158 151v114h-98v67h98v128h-98v70h98v181h83v-181h143v-70h-143v-128h143v-67h-143v-114c0 -53 26 -81 75 -81h59v-70z" />
    <glyph glyph-name="tcaron" unicode="&#x165;" horiz-adv-x="383" 
d="M327 570h-78v245h78v-245zM344 0h-59c-103 0 -158 53 -158 151v309h-98v70h98v181h83v-181h143v-70h-143v-309c0 -53 26 -81 75 -81h59v-70z" />
    <glyph glyph-name="uni0163" unicode="&#x163;" horiz-adv-x="383" 
d="M353 530v-70h-143v-309c0 -53 26 -81 75 -81h59v-70h-52l-70 -212l-68 13l69 207c-63 18 -96 67 -96 143v309h-98v70h98v181h83v-181h143z" />
    <glyph glyph-name="uni021B" unicode="&#x21b;" horiz-adv-x="383" 
d="M344 0h-59c-103 0 -158 53 -158 151v309h-98v70h98v181h83v-181h143v-70h-143v-309c0 -53 26 -81 75 -81h59v-70zM297 -55l-109 -334l-67 21l105 335z" />
    <glyph glyph-name="u" unicode="u" horiz-adv-x="574" 
d="M261 -11c-129 0 -203 79 -203 187v354h83v-351c0 -76 53 -117 128 -117c99 0 153 66 154 146v322h83v-530h-66l-7 80c-35 -60 -99 -91 -172 -91z" />
    <glyph glyph-name="uacute" unicode="&#xfa;" horiz-adv-x="574" 
d="M543 817l-281 -227l-47 52l281 227zM261 -11c-129 0 -203 79 -203 187v354h83v-351c0 -76 53 -117 128 -117c99 0 153 66 154 146v322h83v-530h-66l-7 80c-35 -60 -99 -91 -172 -91z" />
    <glyph glyph-name="ubreve" unicode="&#x16d;" horiz-adv-x="574" 
d="M282 609c-98 0 -166 60 -166 146v13h72v-13c0 -49 39 -83 94 -83c54 0 92 34 92 83v13h72v-13c0 -86 -67 -146 -164 -146zM261 -11c-129 0 -203 79 -203 187v354h83v-351c0 -76 53 -117 128 -117c99 0 153 66 154 146v322h83v-530h-66l-7 80c-35 -60 -99 -91 -172 -91z
" />
    <glyph glyph-name="ucircumflex" unicode="&#xfb;" horiz-adv-x="574" 
d="M282 744l-167 -155l-51 47l189 173h59l188 -172l-51 -48zM261 -11c-129 0 -203 79 -203 187v354h83v-351c0 -76 53 -117 128 -117c99 0 153 66 154 146v322h83v-530h-66l-7 80c-35 -60 -99 -91 -172 -91z" />
    <glyph glyph-name="udieresis" unicode="&#xfc;" horiz-adv-x="574" 
d="M179 605c-35 0 -63 28 -63 63s28 62 63 62s62 -27 62 -62s-27 -63 -62 -63zM385 605c-35 0 -63 28 -63 63s28 62 63 62s62 -27 62 -62s-27 -63 -62 -63zM261 -11c-129 0 -203 79 -203 187v354h83v-351c0 -76 53 -117 128 -117c99 0 153 66 154 146v322h83v-530h-66l-7 80
c-35 -60 -99 -91 -172 -91z" />
    <glyph glyph-name="ugrave" unicode="&#xf9;" horiz-adv-x="574" 
d="M349 642l-47 -52l-281 227l47 52zM261 -11c-129 0 -203 79 -203 187v354h83v-351c0 -76 53 -117 128 -117c99 0 153 66 154 146v322h83v-530h-66l-7 80c-35 -60 -99 -91 -172 -91z" />
    <glyph glyph-name="uhungarumlaut" unicode="&#x171;" horiz-adv-x="574" 
d="M437 854l-206 -260l-62 36l208 259zM571 835l-206 -260l-62 36l208 259zM261 -11c-129 0 -203 79 -203 187v354h83v-351c0 -76 53 -117 128 -117c99 0 153 66 154 146v322h83v-530h-66l-7 80c-35 -60 -99 -91 -172 -91z" />
    <glyph glyph-name="umacron" unicode="&#x16b;" horiz-adv-x="574" 
d="M464 636h-364v67h364v-67zM261 -11c-129 0 -203 79 -203 187v354h83v-351c0 -76 53 -117 128 -117c99 0 153 66 154 146v322h83v-530h-66l-7 80c-35 -60 -99 -91 -172 -91z" />
    <glyph glyph-name="uogonek" unicode="&#x173;" horiz-adv-x="574" 
d="M513 -134l11 -67c-22 -8 -43 -11 -64 -11c-65 0 -104 35 -104 85c0 43 29 93 84 130l-7 77c-35 -60 -99 -91 -172 -91c-129 0 -203 79 -203 187v354h83v-351c0 -76 53 -117 128 -117c99 0 153 66 154 146v322h83v-530c-56 -37 -83 -74 -83 -105c0 -25 18 -38 45 -38
c16 0 28 3 45 9z" />
    <glyph glyph-name="uring" unicode="&#x16f;" horiz-adv-x="574" 
d="M282 587c-57 0 -100 41 -100 95s43 95 100 95s100 -41 100 -95s-43 -95 -100 -95zM282 637c26 0 45 19 45 45s-19 45 -45 45s-45 -19 -45 -45s19 -45 45 -45zM261 -11c-129 0 -203 79 -203 187v354h83v-351c0 -76 53 -117 128 -117c99 0 153 66 154 146v322h83v-530h-66
l-7 80c-35 -60 -99 -91 -172 -91z" />
    <glyph glyph-name="uni01D4" unicode="&#x1d4;" horiz-adv-x="574" 
d="M312 607h-59l-189 173l51 47l167 -155l167 155l51 -48zM261 -11c-129 0 -203 79 -203 187v354h83v-351c0 -76 53 -117 128 -117c99 0 153 66 154 146v322h83v-530h-66l-7 80c-35 -60 -99 -91 -172 -91z" />
    <glyph glyph-name="uni01D8" unicode="&#x1d8;" horiz-adv-x="574" 
d="M543 1012l-281 -227l-47 52l281 227zM179 605c-35 0 -63 28 -63 63s28 62 63 62s62 -27 62 -62s-27 -63 -62 -63zM385 605c-35 0 -63 28 -63 63s28 62 63 62s62 -27 62 -62s-27 -63 -62 -63zM261 -11c-129 0 -203 79 -203 187v354h83v-351c0 -76 53 -117 128 -117
c99 0 153 66 154 146v322h83v-530h-66l-7 80c-35 -60 -99 -91 -172 -91z" />
    <glyph glyph-name="uni01DA" unicode="&#x1da;" horiz-adv-x="574" 
d="M312 802h-59l-189 173l51 47l167 -155l167 155l51 -48zM179 605c-35 0 -63 28 -63 63s28 62 63 62s62 -27 62 -62s-27 -63 -62 -63zM385 605c-35 0 -63 28 -63 63s28 62 63 62s62 -27 62 -62s-27 -63 -62 -63zM261 -11c-129 0 -203 79 -203 187v354h83v-351
c0 -76 53 -117 128 -117c99 0 153 66 154 146v322h83v-530h-66l-7 80c-35 -60 -99 -91 -172 -91z" />
    <glyph glyph-name="uni01DC" unicode="&#x1dc;" horiz-adv-x="574" 
d="M349 837l-47 -52l-281 227l47 52zM179 605c-35 0 -63 28 -63 63s28 62 63 62s62 -27 62 -62s-27 -63 -62 -63zM385 605c-35 0 -63 28 -63 63s28 62 63 62s62 -27 62 -62s-27 -63 -62 -63zM261 -11c-129 0 -203 79 -203 187v354h83v-351c0 -76 53 -117 128 -117
c99 0 153 66 154 146v322h83v-530h-66l-7 80c-35 -60 -99 -91 -172 -91z" />
    <glyph glyph-name="uni01D6" unicode="&#x1d6;" horiz-adv-x="574" 
d="M464 831h-364v67h364v-67zM179 605c-35 0 -63 28 -63 63s28 62 63 62s62 -27 62 -62s-27 -63 -62 -63zM385 605c-35 0 -63 28 -63 63s28 62 63 62s62 -27 62 -62s-27 -63 -62 -63zM261 -11c-129 0 -203 79 -203 187v354h83v-351c0 -76 53 -117 128 -117
c99 0 153 66 154 146v322h83v-530h-66l-7 80c-35 -60 -99 -91 -172 -91z" />
    <glyph glyph-name="v" unicode="v" horiz-adv-x="569" 
d="M328 0h-87l-221 530h90l175 -433l174 433h90z" />
    <glyph glyph-name="w" unicode="w" horiz-adv-x="761" 
d="M269 0h-92l-157 530h85l122 -427l118 427h72l118 -425l121 425h85l-157 -530h-91l-112 404z" />
    <glyph glyph-name="wacute" unicode="&#x1e83;" horiz-adv-x="761" 
d="M642 817l-281 -227l-47 52l281 227zM269 0h-92l-157 530h85l122 -427l118 427h72l118 -425l121 425h85l-157 -530h-91l-112 404z" />
    <glyph glyph-name="wcircumflex" unicode="&#x175;" horiz-adv-x="761" 
d="M381 744l-167 -155l-51 47l189 173h59l188 -172l-51 -48zM269 0h-92l-157 530h85l122 -427l118 427h72l118 -425l121 425h85l-157 -530h-91l-112 404z" />
    <glyph glyph-name="wdieresis" unicode="&#x1e85;" horiz-adv-x="761" 
d="M278 605c-35 0 -63 28 -63 63s28 62 63 62s62 -27 62 -62s-27 -63 -62 -63zM484 605c-35 0 -63 28 -63 63s28 62 63 62s62 -27 62 -62s-27 -63 -62 -63zM269 0h-92l-157 530h85l122 -427l118 427h72l118 -425l121 425h85l-157 -530h-91l-112 404z" />
    <glyph glyph-name="wgrave" unicode="&#x1e81;" horiz-adv-x="761" 
d="M448 642l-47 -52l-281 227l47 52zM269 0h-92l-157 530h85l122 -427l118 427h72l118 -425l121 425h85l-157 -530h-91l-112 404z" />
    <glyph glyph-name="x" unicode="x" horiz-adv-x="529" 
d="M120 0h-94l192 263l-190 267h93l144 -205l143 205h93l-190 -266l192 -264h-94l-144 204z" />
    <glyph glyph-name="y" unicode="y" horiz-adv-x="552" 
d="M132 -200h-85v70h85c54 0 77 19 89 51l29 79h-20l-210 530h89l172 -447l166 447h85l-238 -641c-22 -58 -71 -89 -162 -89z" />
    <glyph glyph-name="yacute" unicode="&#xfd;" horiz-adv-x="552" 
d="M539 817l-281 -227l-47 52l281 227zM132 -200h-85v70h85c54 0 77 19 89 51l29 79h-20l-210 530h89l172 -447l166 447h85l-238 -641c-22 -58 -71 -89 -162 -89z" />
    <glyph glyph-name="ycircumflex" unicode="&#x177;" horiz-adv-x="552" 
d="M278 744l-167 -155l-51 47l189 173h59l188 -172l-51 -48zM132 -200h-85v70h85c54 0 77 19 89 51l29 79h-20l-210 530h89l172 -447l166 447h85l-238 -641c-22 -58 -71 -89 -162 -89z" />
    <glyph glyph-name="ydieresis" unicode="&#xff;" horiz-adv-x="552" 
d="M175 605c-35 0 -63 28 -63 63s28 62 63 62s62 -27 62 -62s-27 -63 -62 -63zM381 605c-35 0 -63 28 -63 63s28 62 63 62s62 -27 62 -62s-27 -63 -62 -63zM132 -200h-85v70h85c54 0 77 19 89 51l29 79h-20l-210 530h89l172 -447l166 447h85l-238 -641
c-22 -58 -71 -89 -162 -89z" />
    <glyph glyph-name="ygrave" unicode="&#x1ef3;" horiz-adv-x="552" 
d="M345 642l-47 -52l-281 227l47 52zM132 -200h-85v70h85c54 0 77 19 89 51l29 79h-20l-210 530h89l172 -447l166 447h85l-238 -641c-22 -58 -71 -89 -162 -89z" />
    <glyph glyph-name="y.ss05" horiz-adv-x="558" 
d="M282 82l171 448h85l-285 -742l-77 18l74 194h-20l-210 530h89z" />
    <glyph glyph-name="yacute.ss05" horiz-adv-x="558" 
d="M495 869l47 -52l-281 -227l-47 52zM109 530l173 -448l171 448h85l-285 -742l-77 18l74 194h-20l-210 530h89z" />
    <glyph glyph-name="ycircumflex.ss05" horiz-adv-x="558" 
d="M448 589l-167 155l-167 -155l-51 47l189 173h59l188 -172zM282 82l171 448h85l-285 -742l-77 18l74 194h-20l-210 530h89z" />
    <glyph glyph-name="ydieresis.ss05" horiz-adv-x="558" 
d="M178 605c-35 0 -63 28 -63 63s28 62 63 62s62 -27 62 -62s-27 -63 -62 -63zM384 605c-35 0 -63 28 -63 63s28 62 63 62s62 -27 62 -62s-27 -63 -62 -63zM282 82l171 448h85l-285 -742l-77 18l74 194h-20l-210 530h89z" />
    <glyph glyph-name="ygrave.ss05" horiz-adv-x="558" 
d="M67 869l281 -227l-47 -52l-281 227zM282 82l171 448h85l-285 -742l-77 18l74 194h-20l-210 530h89z" />
    <glyph glyph-name="z" unicode="z" horiz-adv-x="505" 
d="M458 0h-411v75l312 380h-303v75h398v-75l-312 -380h316v-75z" />
    <glyph glyph-name="zacute" unicode="&#x17a;" horiz-adv-x="505" 
d="M516 817l-281 -227l-47 52l281 227zM458 0h-411v75l312 380h-303v75h398v-75l-312 -380h316v-75z" />
    <glyph glyph-name="zcaron" unicode="&#x17e;" horiz-adv-x="505" 
d="M285 607h-59l-189 173l51 47l167 -155l167 155l51 -48zM458 0h-411v75l312 380h-303v75h398v-75l-312 -380h316v-75z" />
    <glyph glyph-name="zdotaccent" unicode="&#x17c;" horiz-adv-x="505" 
d="M255 605c-36 0 -63 27 -63 63c0 35 27 62 63 62s63 -27 63 -62c0 -36 -27 -63 -63 -63zM458 0h-411v75l312 380h-303v75h398v-75l-312 -380h316v-75z" />
    <glyph glyph-name="f_f_i" horiz-adv-x="882" 
d="M210 0h-83v460h-98v70h98v74c0 95 53 146 151 146h118v-70h-118c-44 0 -68 -27 -68 -76v-74h223v74c0 95 53 146 151 146h78v-70h-78c-44 0 -68 -27 -68 -76v-74h299v-530h-83v460h-216v-460h-83v460h-223v-460zM773 617c-35 0 -62 27 -62 62s27 61 62 61s61 -26 61 -61
s-26 -62 -61 -62z" />
    <glyph glyph-name="f_i" horiz-adv-x="576" 
d="M210 0h-83v460h-98v70h98v74c0 95 53 146 151 146h78v-70h-78c-44 0 -68 -27 -68 -76v-74h299v-530h-83v460h-216v-460zM467 617c-35 0 -62 27 -62 62s27 61 62 61s61 -26 61 -61s-26 -62 -61 -62z" />
    <glyph glyph-name="fi" unicode="&#xfb01;" horiz-adv-x="576" 
d="M210 0h-83v460h-98v70h98v74c0 95 53 146 151 146h78v-70h-78c-44 0 -68 -27 -68 -76v-74h299v-530h-83v460h-216v-460zM467 617c-35 0 -62 27 -62 62s27 61 62 61s61 -26 61 -61s-26 -62 -61 -62z" />
    <glyph glyph-name="f_l" horiz-adv-x="587" 
d="M210 0h-83v460h-98v70h98v74c0 95 53 146 151 146h238v-750h-83v680h-155c-44 0 -68 -27 -68 -76v-74h172v-70h-172v-460z" />
    <glyph glyph-name="fl" unicode="&#xfb02;" horiz-adv-x="587" 
d="M210 0h-83v460h-98v70h98v74c0 95 53 146 151 146h238v-750h-83v680h-155c-44 0 -68 -27 -68 -76v-74h172v-70h-172v-460z" />
    <glyph glyph-name="w_w_w" horiz-adv-x="2109" 
d="M269 0h-92l-157 530h85l122 -427l118 427h72l118 -425l121 425h123l122 -427l118 427h72l118 -425l121 425h123l122 -427l118 427h72l118 -425l121 425h85l-157 -530h-91l-112 404l-112 -404h-92l-133 451l-134 -451h-91l-112 404l-112 -404h-92l-133 451l-134 -451h-91
l-112 404z" />
    <glyph glyph-name="ordfeminine" unicode="&#xaa;" horiz-adv-x="463" 
d="M185 309c-83 0 -143 44 -143 116c0 89 87 105 158 113c65 7 117 5 117 39c0 44 -35 75 -88 75c-62 0 -103 -26 -110 -71h-69c8 79 76 130 180 130c94 0 154 -56 154 -139v-181c0 -12 8 -19 20 -19h22v-58h-31c-47 0 -74 23 -74 62v8c-24 -46 -70 -75 -136 -75zM196 367
c67 0 121 42 121 104v45c-15 -26 -61 -28 -108 -33c-54 -6 -99 -13 -99 -59c0 -38 35 -57 86 -57z" />
    <glyph glyph-name="ordmasculine" unicode="&#xba;" horiz-adv-x="462" 
d="M231 305c-124 0 -191 89 -191 206c0 130 85 200 191 200c124 0 191 -90 191 -200c0 -134 -81 -206 -191 -206zM231 364c79 0 123 67 123 147c0 85 -48 141 -123 141c-74 0 -123 -56 -123 -141c0 -95 57 -147 123 -147z" />
    <glyph glyph-name="zero" unicode="0" horiz-adv-x="640" 
d="M320 -11c-163 0 -267 142 -267 363c0 219 104 359 267 359s267 -140 267 -359c0 -221 -104 -363 -267 -363zM320 66c110 0 181 112 181 286c0 172 -71 282 -181 282s-181 -110 -181 -282c0 -174 71 -286 181 -286z" />
    <glyph glyph-name="one" unicode="1" horiz-adv-x="371" 
d="M286 0h-84v545c-33 -44 -87 -66 -160 -66h-12v82h12c105 0 161 45 161 129v10h83v-700z" />
    <glyph glyph-name="two" unicode="2" horiz-adv-x="567" 
d="M521 510c0 -240 -367 -230 -367 -433h357v-77h-446v66c0 257 369 254 369 444c0 74 -52 124 -136 124c-88 0 -158 -55 -160 -168h-88c8 160 113 245 249 245c134 0 222 -81 222 -201z" />
    <glyph glyph-name="three" unicode="3" horiz-adv-x="606" 
d="M314 -11c-158 0 -265 91 -274 234h87c6 -96 79 -157 188 -157c100 0 165 53 165 133c0 78 -62 126 -168 126h-94v69h94c83 0 141 48 141 119c0 70 -57 121 -142 121c-87 0 -152 -55 -165 -141h-87c18 133 118 218 257 218c130 0 221 -75 221 -181
c0 -81 -53 -143 -131 -164c100 -23 157 -86 157 -176c0 -119 -99 -201 -249 -201z" />
    <glyph glyph-name="four" unicode="4" horiz-adv-x="619" 
d="M471 0h-84v175h-347v75l346 450h85v-448h123v-77h-123v-175zM387 583l-255 -331h255v331z" />
    <glyph glyph-name="five" unicode="5" horiz-adv-x="602" 
d="M307 -11c-140 0 -243 86 -258 222h87c11 -89 79 -145 171 -145c99 0 165 66 165 162c0 95 -66 161 -161 161c-53 0 -100 -21 -145 -69h-93l57 380h397v-77h-327l-36 -236c43 47 100 74 169 74c131 0 224 -96 224 -232c0 -142 -101 -240 -250 -240z" />
    <glyph glyph-name="six" unicode="6" horiz-adv-x="637" 
d="M343 -11c-191 0 -290 156 -290 366c0 226 114 356 289 356c133 0 235 -89 248 -218h-87c-10 83 -76 141 -161 141c-138 0 -212 -118 -212 -284c0 -15 1 -27 2 -40c24 83 109 153 224 153c133 0 229 -96 229 -235c0 -141 -99 -239 -242 -239zM337 65c81 0 162 54 162 163
c0 110 -79 163 -160 163c-82 0 -166 -56 -166 -164c0 -107 82 -162 164 -162z" />
    <glyph glyph-name="seven" unicode="7" horiz-adv-x="527" 
d="M175 0h-96l327 623h-377v77h470v-77z" />
    <glyph glyph-name="eight" unicode="8" horiz-adv-x="622" 
d="M312 -11c-158 0 -267 80 -267 205c0 81 53 144 138 175c-66 30 -106 86 -106 155c0 110 96 187 235 187c137 0 233 -77 233 -187c0 -69 -40 -124 -105 -155c84 -31 137 -94 137 -175c0 -121 -103 -205 -265 -205zM312 398c88 0 149 50 149 122c0 68 -61 116 -149 116
c-89 0 -151 -48 -151 -116c0 -72 62 -122 151 -122zM312 66c105 0 178 55 178 133c0 79 -73 134 -178 134c-106 0 -180 -55 -180 -134c0 -78 74 -133 180 -133z" />
    <glyph glyph-name="nine" unicode="9" horiz-adv-x="616" 
d="M299 -11c-137 0 -233 78 -252 210h87c13 -86 72 -133 165 -133c120 0 187 104 187 281c0 11 -1 21 -2 31c-18 -78 -89 -136 -190 -136c-143 0 -244 97 -244 235s101 234 243 234c177 0 270 -143 270 -364c0 -222 -93 -358 -264 -358zM293 315c79 0 158 52 158 159
c0 109 -78 161 -156 161c-80 0 -161 -54 -162 -160s80 -160 160 -160z" />
    <glyph glyph-name="uni2080" unicode="&#x2080;" horiz-adv-x="415" 
d="M208 -109c-94 0 -155 78 -155 202c0 123 61 202 155 202c93 0 154 -77 154 -200c0 -124 -61 -204 -154 -204zM208 -50c53 0 86 56 86 144c0 87 -33 142 -86 142c-52 0 -87 -54 -87 -142c0 -90 34 -144 87 -144z" />
    <glyph glyph-name="uni2081" unicode="&#x2081;" horiz-adv-x="278" 
d="M193 -100h-67v284c-16 -24 -45 -34 -79 -34h-17v68h17c51 0 79 20 79 62v6h67v-386z" />
    <glyph glyph-name="uni2082" unicode="&#x2082;" horiz-adv-x="377" 
d="M331 -100h-268v36c0 147 192 145 192 243c0 31 -22 57 -60 57c-46 0 -71 -30 -76 -69h-69c10 80 67 128 149 128c75 0 124 -47 124 -113c0 -121 -188 -143 -188 -223h196v-59z" />
    <glyph glyph-name="uni2083" unicode="&#x2083;" horiz-adv-x="388" 
d="M200 -109c-93 0 -156 50 -160 133h68c4 -48 41 -75 94 -75c45 0 75 23 75 63c0 36 -30 59 -79 59h-60v54h60c43 0 64 28 64 57c0 26 -16 56 -65 56c-38 0 -71 -25 -78 -69h-69c11 81 71 126 151 126c76 0 129 -43 129 -105c0 -41 -26 -73 -70 -88c54 -14 85 -50 85 -97
c0 -68 -58 -114 -145 -114z" />
    <glyph glyph-name="uni2084" unicode="&#x2084;" horiz-adv-x="376" 
d="M290 -100h-67v79h-183v66l183 241h67v-250h61v-57h-61v-79zM223 199l-124 -163h124v163z" />
    <glyph glyph-name="uni2085" unicode="&#x2085;" horiz-adv-x="386" 
d="M197 -109c-81 0 -139 48 -148 127h69c5 -37 33 -69 80 -69c45 0 77 33 77 79c0 44 -31 75 -75 75c-28 0 -49 -10 -68 -27h-67l29 210h234v-59h-181l-14 -100c24 21 53 29 85 29c73 0 123 -52 123 -128c0 -81 -59 -137 -144 -137z" />
    <glyph glyph-name="uni2086" unicode="&#x2086;" horiz-adv-x="412" 
d="M215 -109c-99 0 -162 78 -162 201c0 122 66 203 168 203c82 0 136 -47 144 -123h-68c-4 34 -30 65 -76 65c-66 0 -105 -57 -105 -153c19 48 63 75 114 75c75 0 130 -52 130 -133c0 -80 -60 -135 -145 -135zM218 -52c45 0 76 32 76 78c0 45 -31 77 -76 77s-77 -33 -77 -80
c0 -44 32 -75 77 -75z" />
    <glyph glyph-name="uni2087" unicode="&#x2087;" horiz-adv-x="343" 
d="M144 -100h-76l179 327h-218v59h286v-66z" />
    <glyph glyph-name="uni2088" unicode="&#x2088;" horiz-adv-x="399" 
d="M200 -109c-91 0 -155 47 -155 115c0 45 32 80 80 97c-38 17 -63 49 -63 88c0 60 56 104 137 104s137 -43 137 -105c0 -38 -22 -70 -61 -87c49 -17 79 -51 79 -97c0 -68 -63 -115 -154 -115zM200 130c45 0 73 22 73 54c0 31 -28 52 -73 52s-73 -21 -73 -52
c0 -32 28 -54 73 -54zM200 -52c54 0 88 26 88 63c0 40 -34 64 -88 64s-89 -24 -89 -64c0 -37 35 -63 89 -63z" />
    <glyph glyph-name="uni2089" unicode="&#x2089;" horiz-adv-x="399" 
d="M190 -109c-80 0 -137 49 -143 120h68c3 -37 34 -62 80 -62c63 0 90 59 88 143c-12 -36 -52 -61 -97 -61c-80 0 -136 53 -136 129c0 80 57 135 140 135c99 0 156 -76 156 -202c0 -121 -53 -202 -156 -202zM191 86c45 0 76 32 76 77s-31 75 -75 75c-45 0 -76 -31 -76 -75
c0 -45 30 -77 75 -77z" />
    <glyph glyph-name="uni2070" unicode="&#x2070;" horiz-adv-x="415" 
d="M208 405c-94 0 -155 78 -155 202c0 123 61 202 155 202c93 0 154 -77 154 -200c0 -124 -61 -204 -154 -204zM208 464c53 0 86 56 86 144c0 87 -33 142 -86 142c-52 0 -87 -54 -87 -142c0 -90 34 -144 87 -144z" />
    <glyph glyph-name="uni00B9" unicode="&#xb9;" horiz-adv-x="278" 
d="M193 414h-67v284c-16 -24 -45 -34 -79 -34h-17v68h17c51 0 79 20 79 62v6h67v-386z" />
    <glyph glyph-name="uni00B2" unicode="&#xb2;" horiz-adv-x="377" 
d="M331 414h-268v36c0 147 192 145 192 243c0 31 -22 57 -60 57c-46 0 -71 -30 -76 -69h-69c10 80 67 128 149 128c75 0 124 -47 124 -113c0 -121 -188 -143 -188 -223h196v-59z" />
    <glyph glyph-name="uni00B3" unicode="&#xb3;" horiz-adv-x="388" 
d="M200 405c-93 0 -156 50 -160 133h68c4 -48 41 -75 94 -75c45 0 75 23 75 63c0 36 -30 59 -79 59h-60v54h60c43 0 64 28 64 57c0 26 -16 56 -65 56c-38 0 -71 -25 -78 -69h-69c11 81 71 126 151 126c76 0 129 -43 129 -105c0 -41 -26 -73 -70 -88c54 -14 85 -50 85 -97
c0 -68 -58 -114 -145 -114z" />
    <glyph glyph-name="uni2074" unicode="&#x2074;" horiz-adv-x="376" 
d="M290 414h-67v79h-183v66l183 241h67v-250h61v-57h-61v-79zM223 713l-124 -163h124v163z" />
    <glyph glyph-name="uni2075" unicode="&#x2075;" horiz-adv-x="386" 
d="M197 405c-81 0 -139 48 -148 127h69c5 -37 33 -69 80 -69c45 0 77 33 77 79c0 44 -31 75 -75 75c-28 0 -49 -10 -68 -27h-67l29 210h234v-59h-181l-14 -100c24 21 53 29 85 29c73 0 123 -52 123 -128c0 -81 -59 -137 -144 -137z" />
    <glyph glyph-name="uni2076" unicode="&#x2076;" horiz-adv-x="412" 
d="M215 405c-99 0 -162 78 -162 201c0 122 66 203 168 203c82 0 136 -47 144 -123h-68c-4 34 -30 65 -76 65c-66 0 -105 -57 -105 -153c19 48 63 75 114 75c75 0 130 -52 130 -133c0 -80 -60 -135 -145 -135zM218 462c45 0 76 32 76 78c0 45 -31 77 -76 77s-77 -33 -77 -80
c0 -44 32 -75 77 -75z" />
    <glyph glyph-name="uni2077" unicode="&#x2077;" horiz-adv-x="343" 
d="M144 414h-76l179 327h-218v59h286v-66z" />
    <glyph glyph-name="uni2078" unicode="&#x2078;" horiz-adv-x="399" 
d="M200 405c-91 0 -155 47 -155 115c0 45 32 80 80 97c-38 17 -63 49 -63 88c0 60 56 104 137 104s137 -43 137 -105c0 -38 -22 -70 -61 -87c49 -17 79 -51 79 -97c0 -68 -63 -115 -154 -115zM200 644c45 0 73 22 73 54c0 31 -28 52 -73 52s-73 -21 -73 -52
c0 -32 28 -54 73 -54zM200 462c54 0 88 26 88 63c0 40 -34 64 -88 64s-89 -24 -89 -64c0 -37 35 -63 89 -63z" />
    <glyph glyph-name="uni2079" unicode="&#x2079;" horiz-adv-x="399" 
d="M190 405c-80 0 -137 49 -143 120h68c3 -37 34 -62 80 -62c63 0 90 59 88 143c-12 -36 -52 -61 -97 -61c-80 0 -136 53 -136 129c0 80 57 135 140 135c99 0 156 -76 156 -202c0 -121 -53 -202 -156 -202zM191 600c45 0 76 32 76 77s-31 75 -75 75c-45 0 -76 -31 -76 -75
c0 -45 30 -77 75 -77z" />
    <glyph glyph-name="fraction" unicode="&#x2044;" horiz-adv-x="662" 
d="M617 704l-509 -735l-63 31l509 735z" />
    <glyph glyph-name="onehalf" unicode="&#xbd;" horiz-adv-x="831" 
d="M656 704l-509 -735l-63 31l509 735zM193 314h-67v284c-16 -24 -45 -34 -79 -34h-17v68h17c51 0 79 20 79 62v6h67v-386zM785 0h-268v36c0 147 192 145 192 243c0 31 -22 57 -60 57c-46 0 -71 -30 -76 -69h-69c10 80 67 128 149 128c75 0 124 -47 124 -113
c0 -121 -188 -143 -188 -223h196v-59z" />
    <glyph glyph-name="onequarter" unicode="&#xbc;" horiz-adv-x="773" 
d="M656 704l-509 -735l-63 31l509 735zM193 314h-67v284c-16 -24 -45 -34 -79 -34h-17v68h17c51 0 79 20 79 62v6h67v-386zM687 0h-67v79h-183v66l183 241h67v-250h61v-57h-61v-79zM620 299l-124 -163h124v163z" />
    <glyph glyph-name="threequarters" unicode="&#xbe;" horiz-adv-x="882" 
d="M765 704l-509 -735l-63 31l509 735zM190 305c-93 0 -156 50 -160 133h68c4 -48 41 -75 94 -75c45 0 75 23 75 63c0 36 -30 59 -79 59h-60v54h60c43 0 64 28 64 57c0 26 -16 56 -65 56c-38 0 -71 -25 -78 -69h-69c11 81 71 126 151 126c76 0 129 -43 129 -105
c0 -41 -26 -73 -70 -88c54 -14 85 -50 85 -97c0 -68 -58 -114 -145 -114zM796 0h-67v79h-183v66l183 241h67v-250h61v-57h-61v-79zM729 299l-124 -163h124v163z" />
    <glyph glyph-name="uni24EA" unicode="&#x24ea;" horiz-adv-x="890" 
d="M445 -40c-222 0 -390 160 -390 390c0 222 160 390 390 390c222 0 390 -160 390 -390c0 -222 -160 -390 -390 -390zM445 18c186 0 327 136 327 332c0 189 -134 332 -327 332c-186 0 -327 -136 -327 -332c0 -189 134 -332 327 -332zM446 148c-94 0 -155 78 -155 202
c0 123 61 202 155 202c93 0 154 -77 154 -200c0 -124 -61 -204 -154 -204zM446 207c53 0 86 56 86 144c0 87 -33 142 -86 142c-52 0 -87 -54 -87 -142c0 -90 34 -144 87 -144z" />
    <glyph glyph-name="uni2460" unicode="&#x2460;" horiz-adv-x="890" 
d="M445 -40c-222 0 -390 160 -390 390c0 222 160 390 390 390c222 0 390 -160 390 -390c0 -222 -160 -390 -390 -390zM445 18c186 0 327 136 327 332c0 189 -134 332 -327 332c-186 0 -327 -136 -327 -332c0 -189 134 -332 327 -332zM510 157h-67v284
c-16 -24 -45 -34 -79 -34h-17v68h17c51 0 79 20 79 62v6h67v-386z" />
    <glyph glyph-name="uni2461" unicode="&#x2461;" horiz-adv-x="890" 
d="M445 -40c-222 0 -390 160 -390 390c0 222 160 390 390 390c222 0 390 -160 390 -390c0 -222 -160 -390 -390 -390zM445 18c186 0 327 136 327 332c0 189 -134 332 -327 332c-186 0 -327 -136 -327 -332c0 -189 134 -332 327 -332zM587 157h-268v36c0 147 192 145 192 243
c0 31 -22 57 -60 57c-46 0 -71 -30 -76 -69h-69c10 80 67 128 149 128c75 0 124 -47 124 -113c0 -121 -188 -143 -188 -223h196v-59z" />
    <glyph glyph-name="uni2462" unicode="&#x2462;" horiz-adv-x="890" 
d="M445 -40c-222 0 -390 160 -390 390c0 222 160 390 390 390c222 0 390 -160 390 -390c0 -222 -160 -390 -390 -390zM445 18c186 0 327 136 327 332c0 189 -134 332 -327 332c-186 0 -327 -136 -327 -332c0 -189 134 -332 327 -332zM454 148c-93 0 -156 50 -160 133h68
c4 -48 41 -75 94 -75c45 0 75 23 75 63c0 36 -30 59 -79 59h-60v54h60c43 0 64 28 64 57c0 26 -16 56 -65 56c-38 0 -71 -25 -78 -69h-69c11 81 71 126 151 126c76 0 129 -43 129 -105c0 -41 -26 -73 -70 -88c54 -14 85 -50 85 -97c0 -68 -58 -114 -145 -114z" />
    <glyph glyph-name="uni2463" unicode="&#x2463;" horiz-adv-x="890" 
d="M445 -40c-222 0 -390 160 -390 390c0 222 160 390 390 390c222 0 390 -160 390 -390c0 -222 -160 -390 -390 -390zM445 18c186 0 327 136 327 332c0 189 -134 332 -327 332c-186 0 -327 -136 -327 -332c0 -189 134 -332 327 -332zM527 157h-67v79h-183v66l183 241h67
v-250h61v-57h-61v-79zM460 456l-124 -163h124v163z" />
    <glyph glyph-name="uni2464" unicode="&#x2464;" horiz-adv-x="890" 
d="M445 -40c-222 0 -390 160 -390 390c0 222 160 390 390 390c222 0 390 -160 390 -390c0 -222 -160 -390 -390 -390zM445 18c186 0 327 136 327 332c0 189 -134 332 -327 332c-186 0 -327 -136 -327 -332c0 -189 134 -332 327 -332zM449 148c-81 0 -139 48 -148 127h69
c5 -37 33 -69 80 -69c45 0 77 33 77 79c0 44 -31 75 -75 75c-28 0 -49 -10 -68 -27h-67l29 210h234v-59h-181l-14 -100c24 21 53 29 85 29c73 0 123 -52 123 -128c0 -81 -59 -137 -144 -137z" />
    <glyph glyph-name="uni2465" unicode="&#x2465;" horiz-adv-x="890" 
d="M445 -40c-222 0 -390 160 -390 390c0 222 160 390 390 390c222 0 390 -160 390 -390c0 -222 -160 -390 -390 -390zM445 18c186 0 327 136 327 332c0 189 -134 332 -327 332c-186 0 -327 -136 -327 -332c0 -189 134 -332 327 -332zM448 148c-99 0 -162 78 -162 201
c0 122 66 203 168 203c82 0 136 -47 144 -123h-68c-4 34 -30 65 -76 65c-66 0 -105 -57 -105 -153c19 48 63 75 114 75c75 0 130 -52 130 -133c0 -80 -60 -135 -145 -135zM451 205c45 0 76 32 76 78c0 45 -31 77 -76 77s-77 -33 -77 -80c0 -44 32 -75 77 -75z" />
    <glyph glyph-name="uni2466" unicode="&#x2466;" horiz-adv-x="890" 
d="M445 -40c-222 0 -390 160 -390 390c0 222 160 390 390 390c222 0 390 -160 390 -390c0 -222 -160 -390 -390 -390zM445 18c186 0 327 136 327 332c0 189 -134 332 -327 332c-186 0 -327 -136 -327 -332c0 -189 134 -332 327 -332zM428 157h-76l179 327h-218v59h286v-66z
" />
    <glyph glyph-name="uni2467" unicode="&#x2467;" horiz-adv-x="890" 
d="M445 -40c-222 0 -390 160 -390 390c0 222 160 390 390 390c222 0 390 -160 390 -390c0 -222 -160 -390 -390 -390zM445 18c186 0 327 136 327 332c0 189 -134 332 -327 332c-186 0 -327 -136 -327 -332c0 -189 134 -332 327 -332zM446 148c-91 0 -155 47 -155 115
c0 45 32 80 80 97c-38 17 -63 49 -63 88c0 60 56 104 137 104s137 -43 137 -105c0 -38 -22 -70 -61 -87c49 -17 79 -51 79 -97c0 -68 -63 -115 -154 -115zM446 387c45 0 73 22 73 54c0 31 -28 52 -73 52s-73 -21 -73 -52c0 -32 28 -54 73 -54zM446 205c54 0 88 26 88 63
c0 40 -34 64 -88 64s-89 -24 -89 -64c0 -37 35 -63 89 -63z" />
    <glyph glyph-name="uni2468" unicode="&#x2468;" horiz-adv-x="890" 
d="M445 -40c-222 0 -390 160 -390 390c0 222 160 390 390 390c222 0 390 -160 390 -390c0 -222 -160 -390 -390 -390zM445 18c186 0 327 136 327 332c0 189 -134 332 -327 332c-186 0 -327 -136 -327 -332c0 -189 134 -332 327 -332zM447 148c-80 0 -137 49 -143 120h68
c3 -37 34 -62 80 -62c63 0 90 59 88 143c-12 -36 -52 -61 -97 -61c-80 0 -136 53 -136 129c0 80 57 135 140 135c99 0 156 -76 156 -202c0 -121 -53 -202 -156 -202zM448 343c45 0 76 32 76 77s-31 75 -75 75c-45 0 -76 -31 -76 -75c0 -45 30 -77 75 -77z" />
    <glyph glyph-name="uni24FF" unicode="&#x24ff;" horiz-adv-x="890" 
d="M445 -40c230 0 390 168 390 390c0 230 -168 390 -390 390c-230 0 -390 -168 -390 -390c0 -230 168 -390 390 -390zM446 148c-94 0 -155 78 -155 202c0 123 61 202 155 202c93 0 154 -77 154 -200c0 -124 -61 -204 -154 -204zM446 207c53 0 86 56 86 144
c0 87 -33 142 -86 142c-52 0 -87 -54 -87 -142c0 -90 34 -144 87 -144z" />
    <glyph glyph-name="uni2776" unicode="&#x2776;" horiz-adv-x="890" 
d="M445 -40c230 0 390 168 390 390c0 230 -168 390 -390 390c-230 0 -390 -168 -390 -390c0 -230 168 -390 390 -390zM510 157h-67v284c-16 -24 -45 -34 -79 -34h-17v68h17c51 0 79 20 79 62v6h67v-386z" />
    <glyph glyph-name="uni2777" unicode="&#x2777;" horiz-adv-x="890" 
d="M445 -40c230 0 390 168 390 390c0 230 -168 390 -390 390c-230 0 -390 -168 -390 -390c0 -230 168 -390 390 -390zM587 157h-268v36c0 147 192 145 192 243c0 31 -22 57 -60 57c-46 0 -71 -30 -76 -69h-69c10 80 67 128 149 128c75 0 124 -47 124 -113
c0 -121 -188 -143 -188 -223h196v-59z" />
    <glyph glyph-name="uni2778" unicode="&#x2778;" horiz-adv-x="890" 
d="M445 -40c230 0 390 168 390 390c0 230 -168 390 -390 390c-230 0 -390 -168 -390 -390c0 -230 168 -390 390 -390zM454 148c-93 0 -156 50 -160 133h68c4 -48 41 -75 94 -75c45 0 75 23 75 63c0 36 -30 59 -79 59h-60v54h60c43 0 64 28 64 57c0 26 -16 56 -65 56
c-38 0 -71 -25 -78 -69h-69c11 81 71 126 151 126c76 0 129 -43 129 -105c0 -41 -26 -73 -70 -88c54 -14 85 -50 85 -97c0 -68 -58 -114 -145 -114z" />
    <glyph glyph-name="uni2779" unicode="&#x2779;" horiz-adv-x="890" 
d="M445 -40c230 0 390 168 390 390c0 230 -168 390 -390 390c-230 0 -390 -168 -390 -390c0 -230 168 -390 390 -390zM527 157h-67v79h-183v66l183 241h67v-250h61v-57h-61v-79zM460 456l-124 -163h124v163z" />
    <glyph glyph-name="uni277A" unicode="&#x277a;" horiz-adv-x="890" 
d="M445 -40c230 0 390 168 390 390c0 230 -168 390 -390 390c-230 0 -390 -168 -390 -390c0 -230 168 -390 390 -390zM449 148c-81 0 -139 48 -148 127h69c5 -37 33 -69 80 -69c45 0 77 33 77 79c0 44 -31 75 -75 75c-28 0 -49 -10 -68 -27h-67l29 210h234v-59h-181
l-14 -100c24 21 53 29 85 29c73 0 123 -52 123 -128c0 -81 -59 -137 -144 -137z" />
    <glyph glyph-name="uni277B" unicode="&#x277b;" horiz-adv-x="890" 
d="M445 -40c230 0 390 168 390 390c0 230 -168 390 -390 390c-230 0 -390 -168 -390 -390c0 -230 168 -390 390 -390zM448 148c-99 0 -162 78 -162 201c0 122 66 203 168 203c82 0 136 -47 144 -123h-68c-4 34 -30 65 -76 65c-66 0 -105 -57 -105 -153c19 48 63 75 114 75
c75 0 130 -52 130 -133c0 -80 -60 -135 -145 -135zM451 205c45 0 76 32 76 78c0 45 -31 77 -76 77s-77 -33 -77 -80c0 -44 32 -75 77 -75z" />
    <glyph glyph-name="uni277C" unicode="&#x277c;" horiz-adv-x="890" 
d="M445 -40c230 0 390 168 390 390c0 230 -168 390 -390 390c-230 0 -390 -168 -390 -390c0 -230 168 -390 390 -390zM428 157h-76l179 327h-218v59h286v-66z" />
    <glyph glyph-name="uni277D" unicode="&#x277d;" horiz-adv-x="890" 
d="M445 -40c230 0 390 168 390 390c0 230 -168 390 -390 390c-230 0 -390 -168 -390 -390c0 -230 168 -390 390 -390zM446 148c-91 0 -155 47 -155 115c0 45 32 80 80 97c-38 17 -63 49 -63 88c0 60 56 104 137 104s137 -43 137 -105c0 -38 -22 -70 -61 -87
c49 -17 79 -51 79 -97c0 -68 -63 -115 -154 -115zM446 387c45 0 73 22 73 54c0 31 -28 52 -73 52s-73 -21 -73 -52c0 -32 28 -54 73 -54zM446 205c54 0 88 26 88 63c0 40 -34 64 -88 64s-89 -24 -89 -64c0 -37 35 -63 89 -63z" />
    <glyph glyph-name="uni277E" unicode="&#x277e;" horiz-adv-x="890" 
d="M445 -40c230 0 390 168 390 390c0 230 -168 390 -390 390c-230 0 -390 -168 -390 -390c0 -230 168 -390 390 -390zM447 148c-80 0 -137 49 -143 120h68c3 -37 34 -62 80 -62c63 0 90 59 88 143c-12 -36 -52 -61 -97 -61c-80 0 -136 53 -136 129c0 80 57 135 140 135
c99 0 156 -76 156 -202c0 -121 -53 -202 -156 -202zM448 343c45 0 76 32 76 77s-31 75 -75 75c-45 0 -76 -31 -76 -75c0 -45 30 -77 75 -77z" />
    <glyph glyph-name="zero.squared" horiz-adv-x="898" 
d="M810 -11h-722v722h722v-722zM150 653v-606h598v606h-598zM450 148c-94 0 -155 78 -155 202c0 123 61 202 155 202c93 0 154 -77 154 -200c0 -124 -61 -204 -154 -204zM450 207c53 0 86 56 86 144c0 87 -33 142 -86 142c-52 0 -87 -54 -87 -142c0 -90 34 -144 87 -144z
" />
    <glyph glyph-name="one.squared" horiz-adv-x="898" 
d="M810 -11h-722v722h722v-722zM150 653v-606h598v606h-598zM517 157h-67v284c-16 -24 -45 -34 -79 -34h-17v68h17c51 0 79 20 79 62v6h67v-386z" />
    <glyph glyph-name="two.squared" horiz-adv-x="898" 
d="M810 -11h-722v722h722v-722zM150 653v-606h598v606h-598zM597 157h-268v36c0 147 192 145 192 243c0 31 -22 57 -60 57c-46 0 -71 -30 -76 -69h-69c10 80 67 128 149 128c75 0 124 -47 124 -113c0 -121 -188 -143 -188 -223h196v-59z" />
    <glyph glyph-name="three.squared" horiz-adv-x="898" 
d="M810 -11h-722v722h722v-722zM150 653v-606h598v606h-598zM468 148c-93 0 -156 50 -160 133h68c4 -48 41 -75 94 -75c45 0 75 23 75 63c0 36 -30 59 -79 59h-60v54h60c43 0 64 28 64 57c0 26 -16 56 -65 56c-38 0 -71 -25 -78 -69h-69c11 81 71 126 151 126
c76 0 129 -43 129 -105c0 -41 -26 -73 -70 -88c54 -14 85 -50 85 -97c0 -68 -58 -114 -145 -114z" />
    <glyph glyph-name="four.squared" horiz-adv-x="898" 
d="M810 -11h-722v722h722v-722zM150 653v-606h598v606h-598zM550 157h-67v79h-183v66l183 241h67v-250h61v-57h-61v-79zM483 456l-124 -163h124v163z" />
    <glyph glyph-name="five.squared" horiz-adv-x="898" 
d="M810 -11h-722v722h722v-722zM150 653v-606h598v606h-598zM462 148c-81 0 -139 48 -148 127h69c5 -37 33 -69 80 -69c45 0 77 33 77 79c0 44 -31 75 -75 75c-28 0 -49 -10 -68 -27h-67l29 210h234v-59h-181l-14 -100c24 21 53 29 85 29c73 0 123 -52 123 -128
c0 -81 -59 -137 -144 -137z" />
    <glyph glyph-name="six.squared" horiz-adv-x="898" 
d="M810 -11h-722v722h722v-722zM150 653v-606h598v606h-598zM463 161c-99 0 -162 78 -162 201c0 122 66 203 168 203c82 0 136 -47 144 -123h-68c-4 34 -30 65 -76 65c-66 0 -105 -57 -105 -153c19 48 63 75 114 75c75 0 130 -52 130 -133c0 -80 -60 -135 -145 -135z
M466 218c45 0 76 32 76 78c0 45 -31 77 -76 77s-77 -33 -77 -80c0 -44 32 -75 77 -75z" />
    <glyph glyph-name="seven.squared" horiz-adv-x="898" 
d="M810 -11h-722v722h722v-722zM150 653v-606h598v606h-598zM431 157h-76l179 327h-218v59h286v-66z" />
    <glyph glyph-name="eight.squared" horiz-adv-x="898" 
d="M810 -11h-722v722h722v-722zM150 653v-606h598v606h-598zM450 148c-91 0 -155 47 -155 115c0 45 32 80 80 97c-38 17 -63 49 -63 88c0 60 56 104 137 104s137 -43 137 -105c0 -38 -22 -70 -61 -87c49 -17 79 -51 79 -97c0 -68 -63 -115 -154 -115zM450 387
c45 0 73 22 73 54c0 31 -28 52 -73 52s-73 -21 -73 -52c0 -32 28 -54 73 -54zM450 205c54 0 88 26 88 63c0 40 -34 64 -88 64s-89 -24 -89 -64c0 -37 35 -63 89 -63z" />
    <glyph glyph-name="nine.squared" horiz-adv-x="898" 
d="M810 -11h-722v722h722v-722zM150 653v-606h598v606h-598zM454 148c-80 0 -137 49 -143 120h68c3 -37 34 -62 80 -62c63 0 90 59 88 143c-12 -36 -52 -61 -97 -61c-80 0 -136 53 -136 129c0 80 57 135 140 135c99 0 156 -76 156 -202c0 -121 -53 -202 -156 -202zM455 343
c45 0 76 32 76 77s-31 75 -75 75c-45 0 -76 -31 -76 -75c0 -45 30 -77 75 -77z" />
    <glyph glyph-name="zero.blacksquared" horiz-adv-x="898" 
d="M88 711v-722h722v722h-722zM450 148c-94 0 -155 78 -155 202c0 123 61 202 155 202c93 0 154 -77 154 -200c0 -124 -61 -204 -154 -204zM450 207c53 0 86 56 86 144c0 87 -33 142 -86 142c-52 0 -87 -54 -87 -142c0 -90 34 -144 87 -144z" />
    <glyph glyph-name="one.blacksquared" horiz-adv-x="898" 
d="M88 711v-722h722v722h-722zM517 157h-67v284c-16 -24 -45 -34 -79 -34h-17v68h17c51 0 79 20 79 62v6h67v-386z" />
    <glyph glyph-name="two.blacksquared" horiz-adv-x="898" 
d="M88 711v-722h722v722h-722zM597 157h-268v36c0 147 192 145 192 243c0 31 -22 57 -60 57c-46 0 -71 -30 -76 -69h-69c10 80 67 128 149 128c75 0 124 -47 124 -113c0 -121 -188 -143 -188 -223h196v-59z" />
    <glyph glyph-name="three.blacksquared" horiz-adv-x="898" 
d="M88 711v-722h722v722h-722zM468 148c-93 0 -156 50 -160 133h68c4 -48 41 -75 94 -75c45 0 75 23 75 63c0 36 -30 59 -79 59h-60v54h60c43 0 64 28 64 57c0 26 -16 56 -65 56c-38 0 -71 -25 -78 -69h-69c11 81 71 126 151 126c76 0 129 -43 129 -105
c0 -41 -26 -73 -70 -88c54 -14 85 -50 85 -97c0 -68 -58 -114 -145 -114z" />
    <glyph glyph-name="four.blacksquared" horiz-adv-x="898" 
d="M88 711v-722h722v722h-722zM550 157h-67v79h-183v66l183 241h67v-250h61v-57h-61v-79zM483 456l-124 -163h124v163z" />
    <glyph glyph-name="five.blacksquared" horiz-adv-x="898" 
d="M88 711v-722h722v722h-722zM462 148c-81 0 -139 48 -148 127h69c5 -37 33 -69 80 -69c45 0 77 33 77 79c0 44 -31 75 -75 75c-28 0 -49 -10 -68 -27h-67l29 210h234v-59h-181l-14 -100c24 21 53 29 85 29c73 0 123 -52 123 -128c0 -81 -59 -137 -144 -137z" />
    <glyph glyph-name="six.blacksquared" horiz-adv-x="898" 
d="M88 711v-722h722v722h-722zM463 161c-99 0 -162 78 -162 201c0 122 66 203 168 203c82 0 136 -47 144 -123h-68c-4 34 -30 65 -76 65c-66 0 -105 -57 -105 -153c19 48 63 75 114 75c75 0 130 -52 130 -133c0 -80 -60 -135 -145 -135zM466 218c45 0 76 32 76 78
c0 45 -31 77 -76 77s-77 -33 -77 -80c0 -44 32 -75 77 -75z" />
    <glyph glyph-name="seven.blacksquared" horiz-adv-x="898" 
d="M88 711v-722h722v722h-722zM431 157h-76l179 327h-218v59h286v-66z" />
    <glyph glyph-name="eight.blacksquared" horiz-adv-x="898" 
d="M88 711v-722h722v722h-722zM450 148c-91 0 -155 47 -155 115c0 45 32 80 80 97c-38 17 -63 49 -63 88c0 60 56 104 137 104s137 -43 137 -105c0 -38 -22 -70 -61 -87c49 -17 79 -51 79 -97c0 -68 -63 -115 -154 -115zM450 387c45 0 73 22 73 54c0 31 -28 52 -73 52
s-73 -21 -73 -52c0 -32 28 -54 73 -54zM450 205c54 0 88 26 88 63c0 40 -34 64 -88 64s-89 -24 -89 -64c0 -37 35 -63 89 -63z" />
    <glyph glyph-name="nine.blacksquared" horiz-adv-x="898" 
d="M88 711v-722h722v722h-722zM454 148c-80 0 -137 49 -143 120h68c3 -37 34 -62 80 -62c63 0 90 59 88 143c-12 -36 -52 -61 -97 -61c-80 0 -136 53 -136 129c0 80 57 135 140 135c99 0 156 -76 156 -202c0 -121 -53 -202 -156 -202zM455 343c45 0 76 32 76 77
s-31 75 -75 75c-45 0 -76 -31 -76 -75c0 -45 30 -77 75 -77z" />
    <glyph glyph-name="period" unicode="." horiz-adv-x="226" 
d="M113 -10c-36 0 -63 27 -63 63c0 35 27 62 63 62s63 -27 63 -62c0 -36 -27 -63 -63 -63z" />
    <glyph glyph-name="comma" unicode="," horiz-adv-x="252" 
d="M203 151l-109 -334l-67 21l105 335z" />
    <glyph glyph-name="colon" unicode=":" horiz-adv-x="226" 
d="M113 417c-36 0 -63 27 -63 63c0 35 27 62 63 62s63 -27 63 -62c0 -36 -27 -63 -63 -63zM113 -10c-36 0 -63 27 -63 63c0 35 27 62 63 62s63 -27 63 -62c0 -36 -27 -63 -63 -63z" />
    <glyph glyph-name="semicolon" unicode=";" horiz-adv-x="275" 
d="M143 417c-36 0 -63 27 -63 63c0 35 27 62 63 62s63 -27 63 -62c0 -36 -27 -63 -63 -63zM211 151l-109 -334l-67 21l105 335z" />
    <glyph glyph-name="ellipsis" unicode="&#x2026;" horiz-adv-x="640" 
d="M113 -10c-36 0 -63 27 -63 63c0 35 27 62 63 62s63 -27 63 -62c0 -36 -27 -63 -63 -63zM320 -10c-36 0 -63 27 -63 63c0 35 27 62 63 62s63 -27 63 -62c0 -36 -27 -63 -63 -63zM527 -10c-36 0 -63 27 -63 63c0 35 27 62 63 62s63 -27 63 -62c0 -36 -27 -63 -63 -63z" />
    <glyph glyph-name="exclam" unicode="!" horiz-adv-x="252" 
d="M168 180h-83v570h83v-570zM126 -10c-36 0 -63 27 -63 63c0 35 27 62 63 62s63 -27 63 -62c0 -36 -27 -63 -63 -63z" />
    <glyph glyph-name="exclamdown" unicode="&#xa1;" horiz-adv-x="252" 
d="M126 417c-36 0 -63 27 -63 62c0 36 27 63 63 63s63 -27 63 -63c0 -35 -27 -62 -63 -62zM168 -218h-83v570h83v-570z" />
    <glyph glyph-name="question" unicode="?" horiz-adv-x="563" 
d="M322 173h-82v38c0 163 189 178 189 308c0 65 -54 115 -138 115c-88 0 -158 -55 -160 -168h-88c8 160 113 245 249 245c134 0 222 -81 222 -191c0 -167 -192 -176 -192 -309v-38zM281 -10c-36 0 -63 27 -63 63c0 35 27 62 63 62s63 -27 63 -62c0 -36 -27 -63 -63 -63z" />
    <glyph glyph-name="questiondown" unicode="&#xbf;" horiz-adv-x="563" 
d="M282 542c36 0 63 -27 63 -63c0 -35 -27 -62 -63 -62s-63 27 -63 62c0 36 27 63 63 63zM241 359h82v-38c0 -163 -189 -178 -189 -308c0 -65 54 -115 138 -115c88 0 158 55 160 168h88c-8 -160 -113 -245 -249 -245c-134 0 -222 81 -222 191c0 167 192 176 192 309v38z" />
    <glyph glyph-name="periodcentered" unicode="&#xb7;" horiz-adv-x="246" 
d="M123 248c-36 0 -63 27 -63 63c0 35 27 62 63 62s63 -27 63 -62c0 -36 -27 -63 -63 -63z" />
    <glyph glyph-name="bullet" unicode="&#x2022;" horiz-adv-x="318" 
d="M159 212c-56 0 -99 43 -99 99s43 99 99 99s99 -43 99 -99s-43 -99 -99 -99z" />
    <glyph glyph-name="asterisk" unicode="*" horiz-adv-x="495" 
d="M279 298h-62v163l-149 -87l-31 54l150 88l-150 87l31 54l149 -87v163h62v-164l150 88l29 -55l-148 -86l148 -87l-30 -54l-149 87v-164z" />
    <glyph glyph-name="numbersign" unicode="#" horiz-adv-x="816" 
d="M281 184l-49 -204l-69 20l44 184h-168v64h183l50 208h-168v64h183l48 200l69 -20l-43 -180h174l48 200l69 -20l-43 -180h168v-64h-183l-50 -208h168v-64h-183l-49 -204l-69 20l44 184h-174zM346 456l-50 -208h174l50 208h-174z" />
    <glyph glyph-name="slash" unicode="/" horiz-adv-x="359" 
d="M353 767l-266 -880l-74 23l265 878z" />
    <glyph glyph-name="backslash" unicode="\" horiz-adv-x="359" 
d="M346 -90l-74 -23l-266 880l75 21z" />
    <glyph glyph-name="parenleft" unicode="(" horiz-adv-x="318" 
d="M299 -107l-68 -23c-103 115 -154 269 -154 434c0 168 52 329 154 453l66 -26c-98 -115 -145 -266 -144 -427c1 -157 50 -303 146 -411z" />
    <glyph glyph-name="parenright" unicode=")" horiz-adv-x="318" 
d="M87 -130l-68 23c96 108 145 254 146 411c1 161 -46 312 -144 427l66 26c102 -124 154 -285 154 -453c0 -165 -51 -319 -154 -434z" />
    <glyph glyph-name="braceleft" unicode="{" horiz-adv-x="363" 
d="M338 -128h-68c-96 0 -148 52 -148 141v207c0 40 -31 65 -84 65v66c51 0 84 27 84 74v197c0 90 52 142 148 142h68v-64h-68c-47 0 -74 -27 -74 -78v-197c0 -55 -28 -96 -75 -107c45 -10 75 -47 75 -98v-207c0 -50 27 -77 74 -77h68v-64z" />
    <glyph glyph-name="braceright" unicode="}" horiz-adv-x="363" 
d="M93 -128h-68v64h68c47 0 74 27 74 77v207c0 51 30 88 75 98c-47 11 -75 52 -75 107v197c0 51 -27 78 -74 78h-68v64h68c96 0 148 -52 148 -142v-197c0 -47 33 -74 84 -74v-66c-53 0 -84 -25 -84 -65v-207c0 -89 -52 -141 -148 -141z" />
    <glyph glyph-name="bracketleft" unicode="[" horiz-adv-x="359" 
d="M334 -128h-234v892h234v-64h-160v-764h160v-64z" />
    <glyph glyph-name="bracketright" unicode="]" horiz-adv-x="359" 
d="M259 764v-892h-234v64h160v764h-160v64h234z" />
    <glyph glyph-name="uni3010" unicode="&#x3010;" horiz-adv-x="372" 
d="M320 -88h-220v893h220v-9c-89 -115 -133 -279 -132 -442c1 -161 45 -321 132 -433v-9z" />
    <glyph glyph-name="uni3011" unicode="&#x3011;" horiz-adv-x="372" 
d="M272 805v-893h-220v9c87 112 131 272 132 433c1 163 -43 327 -132 442v9h220z" />
    <glyph glyph-name="hyphen" unicode="-" horiz-adv-x="518" 
d="M473 276h-428v70h428v-70z" />
    <glyph glyph-name="endash" unicode="&#x2013;" horiz-adv-x="538" 
d="M493 276h-448v70h448v-70z" />
    <glyph glyph-name="emdash" unicode="&#x2014;" horiz-adv-x="883" 
d="M838 276h-793v70h793v-70z" />
    <glyph glyph-name="underscore" unicode="_" horiz-adv-x="538" 
d="M493 -81h-448v70h448v-70z" />
    <glyph glyph-name="uni301C" unicode="&#x301c;" horiz-adv-x="1177" 
d="M845 217c-203 0 -300 137 -504 137c-93 0 -186 -37 -250 -88l-43 58c80 61 188 103 293 103c231 0 330 -136 505 -136c80 0 149 23 230 115l53 -48c-90 -108 -179 -141 -284 -141z" />
    <glyph glyph-name="quotesinglbase" unicode="&#x201a;" horiz-adv-x="252" 
d="M203 151l-109 -334l-67 21l105 335z" />
    <glyph glyph-name="quotedblbase" unicode="&#x201e;" horiz-adv-x="419" 
d="M203 151l-109 -334l-67 21l105 335zM370 151l-109 -334l-67 21l105 335z" />
    <glyph glyph-name="quotedblleft" unicode="&#x201c;" horiz-adv-x="422" 
d="M52 437l109 334l67 -21l-105 -335zM219 437l109 334l67 -21l-105 -335z" />
    <glyph glyph-name="quotedblright" unicode="&#x201d;" horiz-adv-x="422" 
d="M228 751l-109 -334l-67 21l105 335zM395 751l-109 -334l-67 21l105 335z" />
    <glyph glyph-name="quoteleft" unicode="&#x2018;" horiz-adv-x="255" 
d="M52 437l109 334l67 -21l-105 -335z" />
    <glyph glyph-name="quoteright" unicode="&#x2019;" horiz-adv-x="255" 
d="M228 751l-109 -334l-67 21l105 335z" />
    <glyph glyph-name="quotedbl" unicode="&#x22;" horiz-adv-x="376" 
d="M146 419h-75v331h75v-331zM305 419h-75v331h75v-331z" />
    <glyph glyph-name="quotesingle" unicode="'" horiz-adv-x="217" 
d="M146 418h-75v332h75v-332z" />
    <glyph glyph-name="guillemotleft" unicode="&#xab;" horiz-adv-x="556" 
d="M312 76l-53 -48l-214 214v74l214 214l53 -48l-204 -203zM519 76l-53 -48l-214 214v74l214 214l53 -48l-204 -203z" />
    <glyph glyph-name="guillemotright" unicode="&#xbb;" horiz-adv-x="556" 
d="M304 242l-214 -214l-53 48l204 203l-204 203l53 48l214 -214v-74zM511 242l-214 -214l-53 48l204 203l-204 203l53 48l214 -214v-74z" />
    <glyph glyph-name="guilsinglleft" unicode="&#x2039;" horiz-adv-x="349" 
d="M312 76l-53 -48l-214 214v74l214 214l53 -48l-204 -203z" />
    <glyph glyph-name="guilsinglright" unicode="&#x203a;" horiz-adv-x="349" 
d="M304 242l-214 -214l-53 48l204 203l-204 203l53 48l214 -214v-74z" />
    <glyph glyph-name="cent" unicode="&#xa2;" horiz-adv-x="586" 
d="M326 -51h-67v127c-142 21 -218 137 -218 276c0 160 94 254 218 271v119h67v-117c120 -9 205 -87 219 -215h-81c-13 79 -63 132 -138 142v-406c74 8 124 60 138 145h81c-14 -130 -94 -209 -219 -217v-125zM259 151v399c-82 -18 -134 -90 -134 -198
c0 -113 57 -182 134 -201z" />
    <glyph glyph-name="currency" unicode="&#xa4;" horiz-adv-x="564" 
d="M162 149l-78 -78l-39 36l78 78c-26 33 -41 76 -41 125c0 47 14 89 40 121l-77 77l39 36l77 -77c33 22 74 35 121 35s89 -12 121 -35l77 77l39 -36l-77 -77c26 -32 41 -74 41 -122c0 -49 -15 -92 -42 -124l78 -78l-39 -36l-78 78c-33 -22 -73 -34 -120 -34
c-46 0 -87 12 -120 34zM282 184c73 0 123 51 123 125c0 73 -50 124 -123 124c-72 0 -122 -51 -122 -124c0 -74 50 -125 122 -125z" />
    <glyph glyph-name="dollar" unicode="$" horiz-adv-x="647" 
d="M605 186c0 -122 -92 -195 -244 -197v-124h-67v128c-142 19 -236 103 -244 219h88c8 -74 67 -126 156 -142v261l-25 8c-56 18 -197 48 -197 185c0 109 86 181 222 187v116h67v-119c130 -16 209 -95 219 -227h-87c-6 81 -53 133 -132 149v-234l48 -15
c89 -28 196 -63 196 -195zM156 528c0 -76 78 -93 138 -111v218c-82 -4 -138 -43 -138 -107zM361 310v-245c104 1 158 45 158 117c0 71 -62 98 -129 119z" />
    <glyph glyph-name="Euro" unicode="&#x20ac;" horiz-adv-x="852" 
d="M469 66c131 0 216 71 243 203h87c-31 -182 -147 -280 -330 -280c-177 0 -294 102 -330 256h-111v64h101c-1 14 -2 28 -2 43c0 10 0 21 1 31h-100v64h109c33 157 151 264 332 264c178 0 300 -104 330 -280h-87c-26 128 -116 203 -243 203c-126 0 -213 -70 -243 -187h315
v-64h-325c-1 -10 -1 -20 -1 -31c0 -15 1 -29 2 -43h324v-64h-312c31 -114 117 -179 240 -179z" />
    <glyph glyph-name="sterling" unicode="&#xa3;" horiz-adv-x="646" 
d="M416 0h-371v77c108 0 144 49 144 110c0 37 -14 71 -31 106h-113v74h75c-19 39 -35 82 -35 131c0 125 99 213 240 213c134 0 228 -82 243 -224h-87c-17 95 -74 147 -157 147c-86 0 -148 -55 -148 -136c0 -44 19 -88 40 -131h213v-74h-177c15 -33 26 -65 26 -98
c0 -60 -37 -105 -95 -118h233c60 0 93 29 93 84v101h83v-101c0 -105 -62 -161 -176 -161z" />
    <glyph glyph-name="yen" unicode="&#xa5;" horiz-adv-x="651" 
d="M367 0h-84v107h-208v64h208v74h-208v64h208l-266 391h99l210 -311l209 311h99l-267 -391h209v-64h-209v-74h209v-64h-209v-107z" />
    <glyph glyph-name="plus" unicode="+" horiz-adv-x="564" 
d="M320 86h-76v190h-199v70h199v190h76v-190h199v-70h-199v-190z" />
    <glyph glyph-name="minus" unicode="&#x2212;" horiz-adv-x="534" 
d="M489 276h-444v70h444v-70z" />
    <glyph glyph-name="multiply" unicode="&#xd7;" horiz-adv-x="513" 
d="M257 242l-167 -167l-50 50l167 167l-167 166l50 50l167 -166l166 166l50 -50l-166 -166l166 -167l-50 -50z" />
    <glyph glyph-name="divide" unicode="&#xf7;" horiz-adv-x="574" 
d="M287 430c-36 0 -63 27 -63 63c0 35 27 62 63 62s63 -27 63 -62c0 -36 -27 -63 -63 -63zM529 276h-484v70h484v-70zM287 67c-36 0 -63 27 -63 63c0 35 27 62 63 62s63 -27 63 -62c0 -36 -27 -63 -63 -63z" />
    <glyph glyph-name="equal" unicode="=" horiz-adv-x="572" 
d="M522 364h-472v70h472v-70zM522 152h-472v70h472v-70z" />
    <glyph glyph-name="notequal" unicode="&#x2260;" horiz-adv-x="572" 
d="M224 152l-71 -113l-39 28l54 85h-118v70h162l90 142h-252v70h297l68 108l38 -27l-51 -81h120v-70h-164l-90 -142h254v-70h-298z" />
    <glyph glyph-name="greater" unicode="&#x3e;" horiz-adv-x="570" 
d="M525 238l-446 -232l-39 62l406 211l-406 211l39 62l446 -232v-82z" />
    <glyph glyph-name="less" unicode="&#x3c;" horiz-adv-x="570" 
d="M530 68l-39 -62l-446 232v82l446 232l39 -62l-406 -211z" />
    <glyph glyph-name="greaterequal" unicode="&#x2265;" horiz-adv-x="632" 
d="M567 309l-483 -161l-19 69l390 130l-390 129l19 69l483 -161v-75zM567 33h-499v70h499v-70z" />
    <glyph glyph-name="lessequal" unicode="&#x2264;" horiz-adv-x="632" 
d="M567 217l-19 -69l-483 161v75l483 161l19 -69l-390 -129zM564 33h-499v70h499v-70z" />
    <glyph glyph-name="plusminus" unicode="&#xb1;" horiz-adv-x="602" 
d="M339 154h-76v156h-213v70h213v156h76v-156h213v-70h-213v-156zM552 33h-502v70h502v-70z" />
    <glyph glyph-name="approxequal" unicode="&#x2248;" horiz-adv-x="594" 
d="M423 291c-107 0 -181 116 -240 116c-41 0 -63 -34 -63 -98h-75c0 112 48 173 134 173c90 0 166 -116 239 -116c36 0 56 33 56 95h75c0 -110 -46 -170 -126 -170zM423 55c-107 0 -181 116 -240 116c-41 0 -63 -34 -63 -98h-75c0 112 48 173 134 173
c90 0 166 -116 239 -116c36 0 56 33 56 95h75c0 -110 -46 -170 -126 -170z" />
    <glyph glyph-name="asciitilde" unicode="~" horiz-adv-x="594" 
d="M423 195c-107 0 -181 116 -240 116c-41 0 -63 -34 -63 -98h-75c0 112 48 173 134 173c90 0 166 -116 239 -116c36 0 56 33 56 95h75c0 -110 -46 -170 -126 -170z" />
    <glyph glyph-name="logicalnot" unicode="&#xac;" horiz-adv-x="573" 
d="M513 17h-76v239h-392v70h468v-309z" />
    <glyph glyph-name="asciicircum" unicode="^" horiz-adv-x="472" 
d="M127 432h-87l156 268h79l157 -268h-87l-109 191z" />
    <glyph glyph-name="emptyset" unicode="&#x2205;" horiz-adv-x="736" 
d="M666 673l-78 -99c59 -56 95 -137 95 -230c0 -180 -135 -315 -315 -315c-65 0 -125 18 -174 49l-79 -99l-45 31l81 102c-61 56 -98 138 -98 232c0 180 135 315 315 315c67 0 127 -19 177 -51l76 96zM129 344c0 -69 26 -129 70 -172l298 375c-37 23 -81 36 -129 36
c-136 0 -239 -103 -239 -239zM368 105c137 0 239 103 239 239c0 68 -25 127 -68 170l-297 -375c36 -22 79 -34 126 -34z" />
    <glyph glyph-name="integral" unicode="&#x222b;" horiz-adv-x="613" 
d="M141 -147h-96v77h96c41 0 65 21 72 59l101 575c16 90 72 136 158 136h96v-77h-96c-40 0 -65 -21 -72 -59l-101 -575c-16 -90 -72 -136 -158 -136z" />
    <glyph glyph-name="summation" unicode="&#x2211;" horiz-adv-x="592" 
d="M537 0h-482v77l242 281l-242 265v77h482v-77h-378l211 -230v-72l-211 -244h378v-77z" />
    <glyph glyph-name="radical" unicode="&#x221a;" horiz-adv-x="662" 
d="M425 0h-90l-158 453h-155v77h216l140 -413l205 648l82 -15z" />
    <glyph glyph-name="partialdiff" unicode="&#x2202;" horiz-adv-x="599" 
d="M279 -11c-141 0 -237 103 -237 250c0 150 100 254 244 254c70 0 125 -24 170 -68c-23 135 -118 227 -266 271l20 76c217 -56 336 -205 336 -432c0 -205 -99 -351 -267 -351zM280 64c108 0 182 103 181 278c-47 50 -101 79 -165 79c-101 0 -169 -73 -169 -181
c0 -103 62 -176 153 -176z" />
    <glyph glyph-name="product" unicode="&#x220f;" horiz-adv-x="748" 
d="M292 0h-84v623h-130v77h592v-77h-130v-623h-84v623h-164v-623z" />
    <glyph glyph-name="percent" unicode="%" horiz-adv-x="906" 
d="M741 705l-502 -725l-63 31l501 724zM200 345c-94 0 -160 75 -160 182c0 109 66 184 160 184s160 -74 160 -181c0 -109 -66 -185 -160 -185zM200 404c56 0 95 51 95 125c0 73 -39 123 -95 123s-95 -51 -95 -124s39 -124 95 -124zM706 -11c-94 0 -160 75 -160 182
c0 109 66 184 160 184s160 -74 160 -181c0 -109 -66 -185 -160 -185zM706 48c56 0 95 51 95 125c0 73 -39 123 -95 123s-95 -51 -95 -124s39 -124 95 -124z" />
    <glyph glyph-name="perthousand" unicode="&#x2030;" horiz-adv-x="1252" 
d="M741 705l-502 -725l-63 31l501 724zM200 345c-94 0 -160 75 -160 182c0 109 66 184 160 184s160 -74 160 -181c0 -109 -66 -185 -160 -185zM200 404c56 0 95 51 95 125c0 73 -39 123 -95 123s-95 -51 -95 -124s39 -124 95 -124zM706 -11c-94 0 -160 75 -160 182
c0 109 66 184 160 184s160 -74 160 -181c0 -109 -66 -185 -160 -185zM1052 -11c-94 0 -160 75 -160 182c0 109 66 184 160 184s160 -74 160 -181c0 -109 -66 -185 -160 -185zM1052 46c57 0 97 52 97 127c0 74 -40 125 -97 125s-97 -52 -97 -126s40 -126 97 -126zM706 48
c56 0 95 51 95 125c0 73 -39 123 -95 123s-95 -51 -95 -124s39 -124 95 -124z" />
    <glyph glyph-name="arrowup" unicode="&#x2191;" horiz-adv-x="782" 
d="M431 -70h-80v686l-258 -258l-54 52l312 311h80l312 -311l-54 -52l-258 258v-686z" />
    <glyph glyph-name="uni2197" unicode="&#x2197;" horiz-adv-x="816" 
d="M654 557l-558 -557l-57 56l559 558h-398v76h474l57 -56v-474h-77v397z" />
    <glyph glyph-name="arrowright" unicode="&#x2192;" horiz-adv-x="946" 
d="M896 300l-312 -312l-57 50l263 262h-745v76h745l-263 262l57 50l312 -312v-76z" />
    <glyph glyph-name="uni2198" unicode="&#x2198;" horiz-adv-x="816" 
d="M674 10h-474v76h398l-559 558l57 56l558 -557v397h77v-474z" />
    <glyph glyph-name="arrowdown" unicode="&#x2193;" horiz-adv-x="782" 
d="M431 -21h-80l-312 311l54 52l258 -258v686h80v-686l258 258l54 -52z" />
    <glyph glyph-name="uni2199" unicode="&#x2199;" horiz-adv-x="816" 
d="M616 10h-474l-57 56v474h77v-397l558 557l57 -56l-559 -558h398v-76z" />
    <glyph glyph-name="arrowleft" unicode="&#x2190;" horiz-adv-x="946" 
d="M419 38l-57 -50l-312 312v76l312 312l57 -50l-263 -262h745v-76h-745z" />
    <glyph glyph-name="uni2196" unicode="&#x2196;" horiz-adv-x="816" 
d="M777 57l-57 -56l-558 557v-397h-77v474l57 56h474v-76h-398z" />
    <glyph glyph-name="arrowboth" unicode="&#x2194;" horiz-adv-x="1057" 
d="M418 38l-56 -50l-312 312v76l312 312l56 -50l-263 -262h747l-263 262l56 50l312 -312v-76l-312 -312l-56 50l263 262h-747z" />
    <glyph glyph-name="uni21B0" unicode="&#x21b0;" horiz-adv-x="926" 
d="M845 0h-77v389h-610l169 -168l-53 -52l-220 220v76l223 224l54 -52l-173 -172h687v-465z" />
    <glyph glyph-name="uni21B1" unicode="&#x21b1;" horiz-adv-x="926" 
d="M158 0h-77v465h687l-173 172l54 52l223 -224v-76l-220 -220l-53 52l169 168h-610v-389z" />
    <glyph glyph-name="uni21B2" unicode="&#x21b2;" horiz-adv-x="926" 
d="M331 63l-54 -52l-223 224v76l220 220l53 -52l-169 -168h610v389h77v-465h-687z" />
    <glyph glyph-name="uni21B3" unicode="&#x21b3;" horiz-adv-x="926" 
d="M876 235l-223 -224l-54 52l173 172h-687v465h77v-389h610l-169 168l53 52l220 -220v-76z" />
    <glyph glyph-name="lozenge" unicode="&#x25ca;" horiz-adv-x="568" 
d="M323 0h-79l-204 350l204 350h79l205 -350zM127 350l157 -268l157 268l-157 268z" />
    <glyph glyph-name="at" unicode="@" horiz-adv-x="891" 
d="M472 -102c-250 0 -413 142 -413 374c0 238 168 409 408 409c219 0 371 -146 371 -355c0 -142 -69 -240 -170 -240c-61 0 -100 36 -100 89c-32 -55 -86 -89 -154 -89c-100 0 -166 75 -166 183c0 133 89 234 200 234c65 0 117 -35 142 -87l17 73h40l-30 -285
c-4 -41 15 -68 53 -68c65 0 110 78 110 186c0 180 -128 301 -312 301c-204 0 -346 -148 -346 -350c0 -198 138 -318 354 -318c79 0 148 16 210 47v-63c-61 -26 -132 -41 -214 -41zM426 141c75 0 131 65 140 154c10 90 -38 153 -113 153c-81 0 -143 -75 -143 -174
c0 -78 46 -133 116 -133z" />
    <glyph glyph-name="ampersand" unicode="&#x26;" horiz-adv-x="709" 
d="M310 -11c-153 0 -260 85 -260 207c0 113 83 169 168 212c-47 53 -75 96 -75 151c0 87 73 152 170 152s170 -64 170 -151c0 -84 -67 -128 -142 -166l181 -186c21 50 32 111 32 182h85c0 -97 -20 -179 -56 -244l99 -102l-63 -55l-86 90c-56 -58 -132 -90 -223 -90zM292 443
c59 30 105 63 105 115c0 46 -36 80 -83 80c-48 0 -85 -35 -85 -82c0 -38 25 -73 63 -113zM310 66c71 0 127 25 168 70l-212 221c-70 -37 -130 -79 -130 -156c0 -80 65 -135 174 -135z" />
    <glyph glyph-name="paragraph" unicode="&#xb6;" horiz-adv-x="599" 
d="M355 -103h-79v380h-12c-124 0 -224 76 -224 218c0 112 78 205 224 205h245v-803h-79v734h-75v-734z" />
    <glyph glyph-name="section" unicode="&#xa7;" horiz-adv-x="602" 
d="M302 -93c-126 0 -211 66 -218 168h81c6 -59 61 -97 141 -97c75 0 119 29 119 82c0 50 -39 61 -94 80l-77 26c-78 26 -156 50 -156 141c0 56 39 103 101 129c-56 22 -102 53 -102 127c0 90 74 148 190 148c117 0 194 -63 207 -171h-81c-9 64 -57 100 -129 100
c-65 0 -107 -29 -107 -75c0 -55 58 -66 102 -81l72 -24c97 -32 155 -65 155 -151c0 -52 -38 -99 -96 -122c62 -27 97 -62 97 -131c0 -93 -76 -149 -205 -149zM280 233l82 -27c41 19 68 55 68 96c0 58 -45 70 -100 89l-77 26c-52 -24 -78 -53 -78 -94c0 -64 61 -75 105 -90z
" />
    <glyph glyph-name="copyright" unicode="&#xa9;" horiz-adv-x="890" 
d="M445 -40c-222 0 -390 160 -390 390c0 222 160 390 390 390c222 0 390 -160 390 -390c0 -222 -160 -390 -390 -390zM445 18c186 0 327 136 327 332c0 189 -134 332 -327 332c-186 0 -327 -136 -327 -332c0 -189 134 -332 327 -332zM453 160c-108 0 -183 79 -183 192
c0 112 74 189 180 189c94 0 160 -58 170 -149h-61c-10 57 -52 94 -109 94c-68 0 -116 -55 -116 -134c0 -81 50 -137 121 -137c54 0 95 37 104 95h61c-10 -91 -76 -150 -167 -150z" />
    <glyph glyph-name="copyright.ss06" horiz-adv-x="882" 
d="M441 -36c-228 0 -386 158 -386 386s158 386 386 386s386 -158 386 -386s-158 -386 -386 -386zM449 160c91 0 157 59 167 150h-61c-9 -58 -50 -95 -104 -95c-71 0 -121 56 -121 137c0 79 48 134 116 134c57 0 99 -37 109 -94h61c-10 91 -76 149 -170 149
c-106 0 -180 -77 -180 -189c0 -113 75 -192 183 -192z" />
    <glyph glyph-name="registered" unicode="&#xae;" horiz-adv-x="615" 
d="M308 209c-152 0 -267 109 -267 267c0 152 109 266 267 266c152 0 266 -109 266 -266c0 -152 -109 -267 -266 -267zM308 263c118 0 207 87 207 213c0 121 -85 212 -207 212c-119 0 -208 -87 -208 -212c0 -121 85 -213 208 -213zM257 355h-50v242h131c49 0 83 -30 83 -72
c0 -31 -20 -55 -49 -65c16 -3 27 -11 33 -30l24 -75h-51l-20 64c-3 11 -11 17 -24 17h-77v-81zM257 552v-73h82c22 0 33 18 33 37c0 18 -11 36 -33 36h-82z" />
    <glyph glyph-name="registered.ss07" horiz-adv-x="615" 
d="M308 209c-152 0 -267 109 -267 267c0 152 109 266 267 266c152 0 266 -109 266 -266c0 -152 -109 -267 -266 -267zM207 597v-242h50v81h77c13 0 21 -6 24 -17l20 -64h51l-24 75c-6 19 -17 27 -33 30c29 10 49 34 49 65c0 42 -34 72 -83 72h-131zM339 479h-82v73h82
c22 0 33 -18 33 -36c0 -19 -11 -37 -33 -37z" />
    <glyph glyph-name="trademark" unicode="&#x2122;" horiz-adv-x="700" 
d="M189 362h-52v289h-111v49h274v-49h-111v-289zM378 362h-53v338h53l111 -278l111 278h52v-338h-52v218l-87 -218h-49l-86 215v-215z" />
    <glyph glyph-name="degree" unicode="&#xb0;" horiz-adv-x="375" 
d="M187 397c-86 0 -150 64 -150 148s64 147 150 147s151 -63 151 -147s-65 -148 -151 -148zM187 454c50 0 88 39 88 91c0 51 -38 90 -88 90s-87 -39 -87 -90c0 -52 37 -91 87 -91z" />
    <glyph glyph-name="bar" unicode="|" horiz-adv-x="264" 
d="M174 -115h-84v865h84v-865z" />
    <glyph glyph-name="brokenbar" unicode="&#xa6;" horiz-adv-x="264" 
d="M174 370h-84v380h84v-380zM174 -115h-84v380h84v-380z" />
    <glyph glyph-name="dagger" unicode="&#x2020;" horiz-adv-x="538" 
d="M310 242h-82v311h-183v69h183v128h82v-128h183v-69h-183v-311z" />
    <glyph glyph-name="daggerdbl" unicode="&#x2021;" horiz-adv-x="548" 
d="M315 242h-82v128h-183v69h183v114h-183v69h183v128h82v-128h183v-69h-183v-114h183v-69h-183v-128z" />
    <glyph glyph-name="uni2116" unicode="&#x2116;" horiz-adv-x="1062" 
d="M874 393c-88 0 -150 66 -150 160s62 158 150 158c87 0 148 -64 148 -158s-61 -160 -148 -160zM169 0h-84v700h96l396 -580v580h84v-700h-96l-396 580v-580zM874 452c50 0 85 42 85 101s-35 99 -85 99c-51 0 -86 -40 -86 -99s35 -101 86 -101zM990 240h-232v70h232v-70z
" />
    <glyph glyph-name="estimated" unicode="&#x212e;" horiz-adv-x="798" 
d="M422 -15c-217 0 -380 156 -380 365c0 207 158 365 367 365c201 0 351 -140 347 -341v-26h-581v-238c61 -59 148 -94 247 -94c149 0 262 82 299 205h33c-31 -139 -161 -236 -332 -236zM175 593v-215h453v225c-55 51 -130 81 -219 81c-94 0 -175 -34 -234 -91z" />
    <glyph glyph-name="uni23CE" unicode="&#x23ce;" horiz-adv-x="927" 
d="M331 63l-54 -52l-223 224v76l220 220l53 -52l-169 -168h610v317h-343v72h421l-1 -465h-687z" />
    <glyph glyph-name="uni2600" unicode="&#x2600;" horiz-adv-x="874" 
d="M457 551h-36v182h36v-182zM379 543l-33 -14l-69 168l33 14zM601 697l-69 -168l-33 14l69 168zM310 505l-25 -25l-128 129l25 25zM721 609l-128 -129l-25 25l128 129zM261 444l-13 -33l-168 71l14 32zM798 482l-168 -71l-13 33l167 70zM439 201c-86 0 -151 65 -151 151
s65 151 151 151s151 -65 151 -151s-65 -151 -151 -151zM240 336h-185v32h185v-32zM819 336h-181v32h181v-32zM261 260l-167 -70l-14 32l168 71zM798 222l-14 -32l-167 70l13 33zM310 199l-128 -129l-25 25l128 129zM721 95l-25 -25l-128 129l25 25zM379 161l-69 -168l-33 14
l69 168zM601 7l-33 -14l-69 168l33 14zM457 -29h-36v182h36v-182z" />
    <glyph glyph-name="sun" unicode="&#x263c;" horiz-adv-x="874" 
d="M457 551h-36v182h36v-182zM379 543l-33 -14l-69 168l33 14zM601 697l-69 -168l-33 14l69 168zM310 505l-25 -25l-128 129l25 25zM721 609l-128 -129l-25 25l128 129zM261 444l-13 -33l-168 71l14 32zM798 482l-168 -71l-13 33l167 70zM439 201c-86 0 -151 65 -151 151
s65 151 151 151s151 -65 151 -151s-65 -151 -151 -151zM440 260c52 0 92 40 92 93c0 52 -40 92 -92 92c-53 0 -93 -40 -93 -92c0 -53 40 -93 93 -93zM240 336h-185v32h185v-32zM819 336h-181v32h181v-32zM261 260l-167 -70l-14 32l168 71zM798 222l-14 -32l-167 70l13 33z
M310 199l-128 -129l-25 25l128 129zM721 95l-25 -25l-128 129l25 25zM379 161l-69 -168l-33 14l69 168zM601 7l-33 -14l-69 168l33 14zM457 -29h-36v182h36v-182z" />
    <glyph glyph-name="u1F311" unicode="&#x1f311;" horiz-adv-x="657" 
d="M330 62c-165 0 -289 124 -289 289c0 163 124 286 289 286c163 0 286 -123 286 -286c0 -165 -123 -289 -286 -289z" />
    <glyph glyph-name="u1F312" unicode="&#x1f312;" horiz-adv-x="657" 
d="M330 62c-166 0 -289 123 -289 289c0 164 123 286 289 286c164 0 286 -122 286 -286c0 -166 -122 -289 -286 -289zM438 538v-376c64 36 105 105 105 189c0 83 -41 151 -105 187z" />
    <glyph glyph-name="u1F313" unicode="&#x1f313;" horiz-adv-x="657" 
d="M330 62c-166 0 -289 123 -289 289c0 164 123 286 289 286c164 0 286 -122 286 -286c0 -166 -122 -289 -286 -289zM330 565v-431c122 0 213 92 213 217c0 123 -91 214 -213 214z" />
    <glyph glyph-name="u1F314" unicode="&#x1f314;" horiz-adv-x="657" 
d="M330 62c-166 0 -289 123 -289 289c0 164 123 286 289 286c164 0 286 -122 286 -286c0 -166 -122 -289 -286 -289zM330 134c122 0 213 92 213 217c0 123 -91 214 -213 214c-46 0 -88 -13 -122 -35v-361c34 -22 76 -35 122 -35z" />
    <glyph glyph-name="u1F315" unicode="&#x1f315;" horiz-adv-x="657" 
d="M330 62c-166 0 -289 123 -289 289c0 164 123 286 289 286c164 0 286 -122 286 -286c0 -166 -122 -289 -286 -289zM330 134c122 0 213 92 213 217c0 123 -91 214 -213 214c-124 0 -216 -91 -216 -214c0 -125 92 -217 216 -217z" />
    <glyph glyph-name="u1F316" unicode="&#x1f316;" horiz-adv-x="657" 
d="M327 62c-164 0 -286 123 -286 289c0 164 122 286 286 286c166 0 289 -122 289 -286c0 -166 -123 -289 -289 -289zM327 134c46 0 88 13 122 35v361c-34 22 -76 35 -122 35c-122 0 -213 -91 -213 -214c0 -125 91 -217 213 -217z" />
    <glyph glyph-name="u1F317" unicode="&#x1f317;" horiz-adv-x="657" 
d="M327 62c-164 0 -286 123 -286 289c0 164 122 286 286 286c166 0 289 -122 289 -286c0 -166 -123 -289 -289 -289zM327 134v431c-122 0 -213 -91 -213 -214c0 -125 91 -217 213 -217z" />
    <glyph glyph-name="u1F318" unicode="&#x1f318;" horiz-adv-x="657" 
d="M327 62c-164 0 -286 123 -286 289c0 164 122 286 286 286c166 0 289 -122 289 -286c0 -166 -123 -289 -289 -289zM219 162v376c-64 -36 -105 -104 -105 -187c0 -84 41 -153 105 -189z" />
    <glyph glyph-name="circled" horiz-adv-x="890" 
d="M445 -40c-222 0 -390 160 -390 390c0 222 160 390 390 390c222 0 390 -160 390 -390c0 -222 -160 -390 -390 -390zM445 18c186 0 327 136 327 332c0 189 -134 332 -327 332c-186 0 -327 -136 -327 -332c0 -189 134 -332 327 -332z" />
    <glyph glyph-name="blackcircled" horiz-adv-x="890" 
d="M445 -40c-222 0 -390 160 -390 390c0 222 160 390 390 390c222 0 390 -160 390 -390c0 -222 -160 -390 -390 -390z" />
    <glyph glyph-name="squared" horiz-adv-x="898" 
d="M810 -11h-722v722h722v-722zM150 653v-606h598v606h-598z" />
    <glyph glyph-name="blacksquared" horiz-adv-x="898" 
d="M810 -11h-722v722h722v-722z" />
    <glyph glyph-name="dieresis" unicode="&#xa8;" horiz-adv-x="401" 
d="M98 605c-35 0 -63 28 -63 63s28 62 63 62s62 -27 62 -62s-27 -63 -62 -63zM304 605c-35 0 -63 28 -63 63s28 62 63 62s62 -27 62 -62s-27 -63 -62 -63z" />
    <glyph glyph-name="dotaccent" unicode="&#x2d9;" horiz-adv-x="196" 
d="M98 605c-36 0 -63 27 -63 63c0 35 27 62 63 62s63 -27 63 -62c0 -36 -27 -63 -63 -63z" />
    <glyph glyph-name="grave" unicode="`" horiz-adv-x="372" 
d="M350 642l-47 -52l-281 227l47 52z" />
    <glyph glyph-name="acute" unicode="&#xb4;" horiz-adv-x="372" 
d="M350 817l-281 -227l-47 52l281 227z" />
    <glyph glyph-name="hungarumlaut" unicode="&#x2dd;" horiz-adv-x="446" 
d="M290 854l-206 -260l-62 36l208 259zM424 835l-206 -260l-62 36l208 259z" />
    <glyph glyph-name="circumflex" unicode="&#x2c6;" horiz-adv-x="472" 
d="M236 744l-167 -155l-51 47l189 173h59l188 -172l-51 -48z" />
    <glyph glyph-name="caron" unicode="&#x2c7;" horiz-adv-x="472" 
d="M266 607h-59l-189 173l51 47l167 -155l167 155l51 -48z" />
    <glyph glyph-name="breve" unicode="&#x2d8;" horiz-adv-x="420" 
d="M211 609c-98 0 -166 60 -166 146v13h72v-13c0 -49 39 -83 94 -83c54 0 92 34 92 83v13h72v-13c0 -86 -67 -146 -164 -146z" />
    <glyph glyph-name="ring" unicode="&#x2da;" horiz-adv-x="270" 
d="M135 587c-57 0 -100 41 -100 95s43 95 100 95s100 -41 100 -95s-43 -95 -100 -95zM135 637c26 0 45 19 45 45s-19 45 -45 45s-45 -19 -45 -45s19 -45 45 -45z" />
    <glyph glyph-name="tilde" unicode="&#x2dc;" horiz-adv-x="460" 
d="M321 639c-73 0 -125 78 -166 78c-25 0 -42 -30 -42 -72h-68c0 81 39 137 98 137c70 0 119 -78 165 -78c23 0 39 20 39 69h68c0 -85 -36 -134 -94 -134z" />
    <glyph glyph-name="macron" unicode="&#xaf;" horiz-adv-x="414" 
d="M389 636h-364v67h364v-67z" />
    <glyph glyph-name="cedilla" unicode="&#xb8;" horiz-adv-x="182" 
d="M160 0l-70 -212l-68 13l70 211z" />
    <glyph glyph-name="uni0308" unicode="&#x308;" 
d="M-303 605c-35 0 -63 28 -63 63s28 62 63 62s62 -27 62 -62s-27 -63 -62 -63zM-97 605c-35 0 -63 28 -63 63s28 62 63 62s62 -27 62 -62s-27 -63 -62 -63z" />
    <glyph glyph-name="uni0307" unicode="&#x307;" 
d="M-98 605c-36 0 -63 27 -63 63c0 35 27 62 63 62s63 -27 63 -62c0 -36 -27 -63 -63 -63z" />
    <glyph glyph-name="gravecomb" unicode="&#x300;" 
d="M-22 642l-47 -52l-281 227l47 52z" />
    <glyph glyph-name="acutecomb" unicode="&#x301;" 
d="M-22 817l-281 -227l-47 52l281 227z" />
    <glyph glyph-name="uni030B" unicode="&#x30b;" 
d="M-156 854l-206 -260l-62 36l208 259zM-22 835l-206 -260l-62 36l208 259z" />
    <glyph glyph-name="uni0302" unicode="&#x302;" 
d="M-236 744l-167 -155l-51 47l189 173h59l188 -172l-51 -48z" />
    <glyph glyph-name="uni030C" unicode="&#x30c;" 
d="M-206 607h-59l-189 173l51 47l167 -155l167 155l51 -48z" />
    <glyph glyph-name="uni0306" unicode="&#x306;" 
d="M-209 609c-98 0 -166 60 -166 146v13h72v-13c0 -49 39 -83 94 -83c54 0 92 34 92 83v13h72v-13c0 -86 -67 -146 -164 -146z" />
    <glyph glyph-name="uni030A" unicode="&#x30a;" 
d="M-135 587c-57 0 -100 41 -100 95s43 95 100 95s100 -41 100 -95s-43 -95 -100 -95zM-135 637c26 0 45 19 45 45s-19 45 -45 45s-45 -19 -45 -45s19 -45 45 -45z" />
    <glyph glyph-name="tildecomb" unicode="&#x303;" 
d="M-139 639c-73 0 -125 78 -166 78c-25 0 -42 -30 -42 -72h-68c0 81 39 137 98 137c70 0 119 -78 165 -78c23 0 39 20 39 69h68c0 -85 -36 -134 -94 -134z" />
    <glyph glyph-name="uni0304" unicode="&#x304;" 
d="M-25 636h-364v67h364v-67z" />
    <glyph glyph-name="uni0327" unicode="&#x327;" 
d="M-22 0l-70 -212l-68 13l70 211z" />
    <glyph glyph-name="uni0326" unicode="&#x326;" 
d="M-22 -55l-109 -334l-67 21l105 335z" />
    <glyph glyph-name="uni0328" unicode="&#x328;" 
d="M-100 -212c-65 0 -104 35 -104 85c0 48 36 105 105 143h4v-16h41c-56 -37 -83 -74 -83 -105c0 -25 18 -38 45 -38c16 0 28 3 45 9l11 -67c-22 -8 -43 -11 -64 -11z" />
    <glyph glyph-name="uni0308.case" 
d="M-303 595c-35 0 -63 28 -63 63s28 62 63 62s62 -27 62 -62s-27 -63 -62 -63zM-97 595c-35 0 -63 28 -63 63s28 62 63 62s62 -27 62 -62s-27 -63 -62 -63z" />
    <glyph glyph-name="uni0307.case" 
d="M-98 595c-36 0 -63 27 -63 63c0 35 27 62 63 62s63 -27 63 -62c0 -36 -27 -63 -63 -63z" />
    <glyph glyph-name="gravecomb.case" 
d="M-22 622l-47 -52l-267 220l47 52z" />
    <glyph glyph-name="acutecomb.case" 
d="M-22 790l-267 -220l-47 52l267 220z" />
    <glyph glyph-name="uni030B.case" 
d="M-156 834l-206 -260l-62 36l208 259zM-22 815l-206 -260l-62 36l208 259z" />
    <glyph glyph-name="uni0302.case" 
d="M-227 724l-153 -143l-51 48l175 160h59l175 -160l-51 -48z" />
    <glyph glyph-name="uni030C.case" 
d="M-197 596h-59l-175 160l51 48l153 -143l154 143l51 -48z" />
    <glyph glyph-name="uni0306.case" 
d="M-209 599c-98 0 -166 60 -166 146v13h72v-13c0 -49 39 -83 94 -83c54 0 92 34 92 83v13h72v-13c0 -86 -67 -146 -164 -146z" />
    <glyph glyph-name="uni030A.case" 
d="M-135 577c-57 0 -100 41 -100 95s43 95 100 95s100 -41 100 -95s-43 -95 -100 -95zM-135 622c29 0 50 21 50 50s-21 50 -50 50s-50 -21 -50 -50s21 -50 50 -50z" />
    <glyph glyph-name="tildecomb.case" 
d="M-139 609c-73 0 -125 78 -165 78c-26 0 -43 -30 -43 -72h-68c0 81 39 137 98 137c70 0 119 -78 165 -78c23 0 39 20 39 69h68c0 -85 -36 -134 -94 -134z" />
    <glyph glyph-name="uni0304.case" 
d="M-25 638h-364v67h364v-67z" />
    <glyph glyph-name="exclam.ss01" horiz-adv-x="223" 
d="M125 170h-26v580h26v-580zM112 -2c-21 0 -36 15 -36 35c0 21 15 36 36 36c20 0 35 -15 35 -36c0 -20 -15 -35 -35 -35z" />
    <glyph glyph-name="exclamdown.ss01" horiz-adv-x="223" 
d="M112 471c-21 0 -36 15 -36 36c0 20 15 35 36 35c20 0 35 -15 35 -35c0 -21 -15 -36 -35 -36zM125 -210h-26v580h26v-580z" />
    <glyph glyph-name="question.ss01" horiz-adv-x="522" 
d="M280 152h-26v38c0 163 189 187 189 337c0 92 -68 156 -170 156c-113 0 -187 -75 -195 -190h-26c9 131 96 214 221 214c117 0 197 -73 197 -178c0 -163 -190 -178 -190 -339v-38zM267 -2c-21 0 -36 15 -36 35c0 21 15 36 36 36c20 0 35 -15 35 -36c0 -20 -15 -35 -35 -35z
" />
    <glyph glyph-name="questiondown.ss01" horiz-adv-x="522" 
d="M255 542c21 0 36 -15 36 -35c0 -21 -15 -36 -36 -36c-20 0 -35 15 -35 36c0 20 15 35 35 35zM242 388h26v-38c0 -163 -189 -187 -189 -337c0 -92 68 -156 170 -156c113 0 187 75 195 190h26c-9 -131 -96 -214 -221 -214c-117 0 -197 73 -197 178c0 163 190 178 190 339
v38z" />
    <glyph glyph-name="asterisk.ss01" horiz-adv-x="492" 
d="M258 289h-24v196l-182 -105l-12 17l184 106l-184 107l11 18l183 -107v199h24v-199l183 107l11 -18l-184 -107l184 -106l-12 -17l-182 105v-196z" />
    <glyph glyph-name="numbersign.ss01" horiz-adv-x="775" 
d="M252 212l-52 -223l-25 6l50 217h-190v24h196l55 240h-188v24h194l50 217l25 -6l-49 -211h195l50 217l25 -6l-49 -211h201v-24h-206l-56 -240h199v-24h-204l-52 -223l-25 6l50 217h-194zM313 476l-56 -240h195l55 240h-194z" />
    <glyph glyph-name="slash.ss01" horiz-adv-x="219" 
d="M219 733l-184 -789l-27 6l184 789z" />
    <glyph glyph-name="backslash.ss01" horiz-adv-x="215" 
d="M215 -50l-27 -6l-184 789l27 6z" />
    <glyph glyph-name="parenleft.ss01" horiz-adv-x="258" 
d="M242 -135l-24 -14c-94 121 -154 296 -154 453s60 332 154 453l24 -14c-91 -114 -150 -285 -150 -439s59 -325 150 -439z" />
    <glyph glyph-name="parenright.ss01" horiz-adv-x="258" 
d="M40 -149l-24 14c91 114 150 285 150 439s-59 325 -150 439l24 14c94 -121 154 -296 154 -453s-60 -332 -154 -453z" />
    <glyph glyph-name="braceleft.ss01" horiz-adv-x="368" 
d="M333 -128h-64c-78 0 -120 43 -120 122v227c0 55 -29 85 -84 85v26c55 0 84 33 84 94v216c0 79 42 122 120 122h64v-24h-64c-61 0 -94 -34 -94 -98v-216c0 -58 -26 -96 -76 -107c50 -11 76 -45 76 -98v-227c0 -64 33 -98 94 -98h64v-24z" />
    <glyph glyph-name="braceright.ss01" horiz-adv-x="368" 
d="M99 -128h-64v24h64c61 0 94 34 94 98v227c0 53 26 87 76 98c-50 11 -76 49 -76 107v216c0 64 -33 98 -94 98h-64v24h64c78 0 120 -43 120 -122v-216c0 -61 29 -94 84 -94v-26c-55 0 -84 -30 -84 -85v-227c0 -79 -42 -122 -120 -122z" />
    <glyph glyph-name="bracketleft.ss01" horiz-adv-x="342" 
d="M301 -128h-207v892h207v-23h-181v-846h181v-23z" />
    <glyph glyph-name="bracketright.ss01" horiz-adv-x="342" 
d="M248 764v-892h-207v23h181v846h-181v23h207z" />
    <glyph glyph-name="hyphen.ss01" horiz-adv-x="455" 
d="M401 301h-347v24h347v-24z" />
    <glyph glyph-name="endash.ss01" horiz-adv-x="535" 
d="M481 301h-427v24h427v-24z" />
    <glyph glyph-name="emdash.ss01" horiz-adv-x="880" 
d="M826 301h-772v24h772v-24z" />
    <glyph glyph-name="underscore.ss01" horiz-adv-x="535" 
d="M481 -31h-427v24h427v-24z" />
    <glyph glyph-name="uni301C.ss01" horiz-adv-x="1125" 
d="M816 235c-200 0 -290 159 -479 159c-92 0 -181 -38 -264 -104l-17 21c89 71 186 109 281 109c194 0 293 -159 480 -159c96 0 169 42 231 119l21 -17c-62 -78 -142 -128 -253 -128z" />
    <glyph glyph-name="quotesinglbase.ss01" horiz-adv-x="183" 
d="M157 162l-106 -335l-24 7l104 335z" />
    <glyph glyph-name="quotedblbase.ss01" horiz-adv-x="304" 
d="M157 162l-106 -335l-24 7l104 335zM278 162l-106 -335l-24 7l104 335z" />
    <glyph glyph-name="quotedblleft.ss01" horiz-adv-x="304" 
d="M26 419l106 335l24 -7l-104 -335zM147 419l106 335l24 -7l-104 -335z" />
    <glyph glyph-name="quotedblright.ss01" horiz-adv-x="304" 
d="M157 747l-106 -335l-24 7l104 335zM278 747l-106 -335l-24 7l104 335z" />
    <glyph glyph-name="quoteleft.ss01" horiz-adv-x="183" 
d="M156 747l-104 -335l-26 7l106 335z" />
    <glyph glyph-name="quoteright.ss01" horiz-adv-x="183" 
d="M157 747l-106 -335l-24 7l104 335z" />
    <glyph glyph-name="quotedbl.ss01" horiz-adv-x="269" 
d="M86 418h-26v332h26v-332zM209 418h-26v332h26v-332z" />
    <glyph glyph-name="quotesingle.ss01" horiz-adv-x="146" 
d="M86 418h-26v332h26v-332z" />
    <glyph glyph-name="guillemotleft.ss01" horiz-adv-x="493" 
d="M291 65l-21 -17l-217 217v28l217 217l21 -17l-217 -214zM448 65l-21 -17l-217 217v28l217 217l21 -17l-217 -214z" />
    <glyph glyph-name="guillemotright.ss01" horiz-adv-x="493" 
d="M283 265l-217 -217l-21 17l217 214l-217 214l21 17l217 -217v-28zM440 265l-217 -217l-21 17l217 214l-217 214l21 17l217 -217v-28z" />
    <glyph glyph-name="guilsinglleft.ss01" horiz-adv-x="336" 
d="M291 65l-21 -17l-217 217v28l217 217l21 -17l-217 -214z" />
    <glyph glyph-name="guilsinglright.ss01" horiz-adv-x="336" 
d="M283 265l-217 -217l-21 17l217 214l-217 214l21 17l217 -217v-28z" />
    <glyph glyph-name="cent.ss01" horiz-adv-x="590" 
d="M311 -51h-27v125c-139 9 -234 120 -234 278c0 156 95 266 234 274v116h27v-116c126 -5 215 -91 229 -216h-29c-16 111 -94 184 -200 189v-499c105 3 184 73 199 191h29c-14 -131 -103 -215 -228 -218v-124zM284 101v498c-121 -8 -205 -107 -205 -247
c0 -141 84 -241 205 -251z" />
    <glyph glyph-name="currency.ss01" horiz-adv-x="541" 
d="M414 186l82 -82l-19 -19l-82 82c-33 -28 -76 -44 -124 -44s-91 16 -124 44l-82 -82l-19 19l82 82c-28 32 -45 75 -45 124s18 93 48 125l-86 86l19 19l86 -86c32 26 74 41 121 41c46 0 88 -15 119 -41l86 86l19 -19l-85 -85c30 -32 48 -76 48 -126c0 -48 -16 -91 -44 -124
zM271 150c91 0 159 69 159 160c0 90 -68 158 -159 158s-160 -68 -160 -158c0 -91 69 -160 160 -160z" />
    <glyph glyph-name="dollar.ss01" horiz-adv-x="640" 
d="M585 172c0 -109 -95 -178 -245 -179v-128h-27v129c-154 7 -249 86 -258 215h29c7 -113 90 -182 229 -189v317l-68 20c-109 32 -173 62 -173 164c0 110 98 186 240 186h1v120h27v-121c122 -11 209 -91 227 -206h-29c-20 103 -96 169 -198 180v-323l73 -21
c110 -32 172 -66 172 -164zM252 383l61 -18v316h-2c-124 0 -210 -66 -210 -160c0 -87 53 -109 151 -138zM340 329v-310c133 1 216 58 216 151c0 84 -52 111 -147 139z" />
    <glyph glyph-name="Euro.ss01" horiz-adv-x="814" 
d="M454 20c145 0 249 92 281 249h29c-29 -174 -144 -276 -310 -276c-171 0 -297 112 -326 282h-99v24h96c-2 17 -3 35 -3 53c0 19 1 37 3 54h-96v24h100c29 166 154 277 325 277c168 0 282 -108 310 -276h-29c-31 152 -130 249 -281 249c-153 0 -267 -99 -296 -250h359v-24
h-363c-2 -17 -3 -35 -3 -54c0 -18 1 -36 3 -53h363v-24h-359c28 -154 142 -255 296 -255z" />
    <glyph glyph-name="sterling.ss01" horiz-adv-x="600" 
d="M404 0h-371v24c91 0 145 54 145 136c0 57 -25 106 -50 160h-95v27h84c-19 44 -34 91 -34 150c0 124 92 210 224 210c120 0 203 -77 221 -213h-28c-19 119 -90 188 -193 188c-116 0 -196 -76 -196 -185c0 -57 16 -105 35 -150h261v-27h-249c24 -52 48 -101 48 -157
c0 -74 -42 -128 -114 -139h312c73 0 113 41 113 117v90h28v-90c0 -92 -50 -141 -141 -141z" />
    <glyph glyph-name="yen.ss01" horiz-adv-x="628" 
d="M327 0h-26v166h-220v24h220v95h-220v24h220l-267 391h34l246 -362l246 362h34l-267 -391h215v-24h-215v-95h215v-24h-215v-166z" />
    <glyph glyph-name="plus.ss01" horiz-adv-x="556" 
d="M291 105h-26v194h-211v24h211v205h26v-205h211v-24h-211v-194z" />
    <glyph glyph-name="minus.ss01" horiz-adv-x="526" 
d="M472 299h-418v24h418v-24z" />
    <glyph glyph-name="multiply.ss01" horiz-adv-x="498" 
d="M249 271l-181 -181l-20 18l182 182l-182 183l19 18l182 -182l182 182l19 -18l-182 -183l182 -182l-20 -18z" />
    <glyph glyph-name="divide.ss01" horiz-adv-x="566" 
d="M285 460c-21 0 -36 15 -36 35c0 21 15 36 36 36c20 0 35 -15 35 -36c0 -20 -15 -35 -35 -35zM512 299h-458v24h458v-24zM285 102c-21 0 -36 15 -36 35c0 21 15 36 36 36c20 0 35 -15 35 -36c0 -20 -15 -35 -35 -35z" />
    <glyph glyph-name="equal.ss01" horiz-adv-x="554" 
d="M500 387h-446v24h446v-24zM500 174h-446v24h446v-24z" />
    <glyph glyph-name="notequal.ss01" horiz-adv-x="554" 
d="M218 174l-79 -125l-19 14l70 111h-136v24h152l119 189h-271v24h287l77 122l19 -14l-68 -108h131v-24h-147l-120 -189h267v-24h-282z" />
    <glyph glyph-name="greater.ss01" horiz-adv-x="584" 
d="M532 265l-446 -232l-14 21l436 227l-436 226l14 21l446 -232v-31z" />
    <glyph glyph-name="less.ss01" horiz-adv-x="584" 
d="M512 54l-14 -21l-446 232v31l446 232l14 -21l-436 -226z" />
    <glyph glyph-name="greaterequal.ss01" horiz-adv-x="631" 
d="M565 333l-484 -161l-7 23l458 152l-458 152l7 23l484 -161v-28zM565 60h-499v24h499v-24z" />
    <glyph glyph-name="lessequal.ss01" horiz-adv-x="631" 
d="M557 195l-7 -23l-484 161v28l484 161l7 -23l-458 -152zM565 60h-499v24h499v-24z" />
    <glyph glyph-name="plusminus.ss01" horiz-adv-x="588" 
d="M307 154h-26v179h-225v24h225v171h26v-171h225v-24h-225v-179zM532 60h-476v24h476v-24z" />
    <glyph glyph-name="approxequal.ss01" horiz-adv-x="587" 
d="M418 299c-110 0 -174 140 -251 140c-55 0 -87 -46 -87 -122h-26c0 93 42 147 114 147c97 0 145 -140 253 -140c52 0 86 45 86 119h26c0 -88 -43 -144 -115 -144zM418 70c-110 0 -174 140 -251 140c-55 0 -87 -46 -87 -122h-26c0 93 42 147 114 147
c97 0 145 -140 253 -140c52 0 86 45 86 119h26c0 -88 -43 -144 -115 -144z" />
    <glyph glyph-name="asciitilde.ss01" horiz-adv-x="587" 
d="M418 208c-110 0 -174 140 -251 140c-55 0 -87 -46 -87 -122h-26c0 93 42 147 114 147c97 0 145 -140 253 -140c52 0 86 45 86 119h26c0 -88 -43 -144 -115 -144z" />
    <glyph glyph-name="logicalnot.ss01" horiz-adv-x="552" 
d="M482 17h-26v272h-416v24h442v-296z" />
    <glyph glyph-name="asciicircum.ss01" horiz-adv-x="432" 
d="M76 432h-28l156 268h23l157 -268h-28l-140 240z" />
    <glyph glyph-name="emptyset.ss01" horiz-adv-x="726" 
d="M177 93l-81 -104l-21 15l82 105c-64 56 -104 139 -104 235c0 176 134 310 310 310c68 0 130 -20 180 -55l79 101l21 -15l-80 -101c68 -56 110 -142 110 -240c0 -176 -134 -310 -310 -310c-71 0 -134 22 -186 59zM174 130l352 448c-45 31 -101 49 -163 49
c-161 0 -283 -122 -283 -283c0 -87 36 -163 94 -214zM363 61c161 0 283 122 283 283c0 90 -38 167 -99 218l-353 -448c47 -34 105 -53 169 -53z" />
    <glyph glyph-name="integral.ss01" horiz-adv-x="509" 
d="M75 -147h-69v26h69c59 0 98 38 111 109l102 577c16 88 65 135 144 135h71v-26h-71c-61 0 -100 -38 -113 -109l-102 -577c-16 -88 -66 -135 -142 -135z" />
    <glyph glyph-name="summation.ss01" horiz-adv-x="588" 
d="M522 0h-456v24l283 326l-283 326v24h456v-24h-419l265 -306v-40l-265 -306h419v-24z" />
    <glyph glyph-name="radical.ss01" horiz-adv-x="658" 
d="M395 0h-32l-176 506h-154v24h175l172 -487l221 694l28 -7z" />
    <glyph glyph-name="partialdiff.ss01" horiz-adv-x="588" 
d="M277 -7c-130 0 -220 103 -220 250s96 249 236 249c82 0 152 -35 202 -96c-18 164 -111 282 -287 333l7 26c191 -51 310 -193 310 -416c0 -211 -100 -346 -248 -346zM279 20c137 0 220 126 219 340c-43 65 -117 106 -202 106c-124 0 -211 -91 -211 -223s80 -223 194 -223z
" />
    <glyph glyph-name="product.ss01" horiz-adv-x="684" 
d="M235 0h-27v676h-139v24h546v-24h-139v-676h-27v676h-214v-676z" />
    <glyph glyph-name="percent.ss01" horiz-adv-x="828" 
d="M664 723l-473 -756l-24 11l473 756zM195 347c-87 0 -149 74 -149 181c0 106 62 179 149 179s149 -73 149 -179c0 -107 -62 -181 -149 -181zM195 371c72 0 121 64 121 157c0 91 -49 155 -122 155c-71 0 -120 -64 -120 -156s49 -156 121 -156zM633 -11
c-87 0 -149 74 -149 181c0 106 62 179 149 179s149 -73 149 -179c0 -107 -62 -181 -149 -181zM633 13c72 0 121 64 121 157c0 91 -49 155 -122 155c-71 0 -120 -64 -120 -156s49 -156 121 -156z" />
    <glyph glyph-name="perthousand.ss01" horiz-adv-x="1152" 
d="M664 723l-473 -756l-24 11l473 756zM195 347c-87 0 -149 74 -149 181c0 106 62 179 149 179s149 -73 149 -179c0 -107 -62 -181 -149 -181zM195 371c72 0 121 64 121 157c0 91 -49 155 -122 155c-71 0 -120 -64 -120 -156s49 -156 121 -156zM633 -11
c-87 0 -149 74 -149 181c0 106 62 179 149 179s149 -73 149 -179c0 -107 -62 -181 -149 -181zM957 -11c-87 0 -149 74 -149 181c0 106 62 179 149 179s149 -73 149 -179c0 -107 -62 -181 -149 -181zM633 13c72 0 121 64 121 157c0 91 -49 155 -122 155
c-71 0 -120 -64 -120 -156s49 -156 121 -156zM957 13c72 0 121 64 121 157c0 91 -49 155 -122 155c-71 0 -120 -64 -120 -156s49 -156 121 -156z" />
    <glyph glyph-name="arrowup.ss01" horiz-adv-x="760" 
d="M393 -70h-26v755l-294 -294l-18 19l312 311h26l312 -311l-18 -19l-294 294v-755z" />
    <glyph glyph-name="uni2197.ss01" horiz-adv-x="810" 
d="M684 633l-609 -608l-20 20l610 609h-463v24h487l21 -19v-486h-26v460z" />
    <glyph glyph-name="arrowright.ss01" horiz-adv-x="951" 
d="M891 327l-312 -312l-20 17l296 295h-795v24h795l-296 295l20 17l312 -312v-24z" />
    <glyph glyph-name="uni2198.ss01" horiz-adv-x="810" 
d="M689 22h-487v24h463l-610 609l20 20l609 -608v460h26v-486z" />
    <glyph glyph-name="arrowdown.ss01" horiz-adv-x="760" 
d="M393 -21h-26l-312 311l18 19l294 -294v755h26v-755l294 294l18 -19z" />
    <glyph glyph-name="uni2199.ss01" horiz-adv-x="810" 
d="M608 22h-487l-21 19v486h26v-460l609 608l20 -20l-610 -609h463v-24z" />
    <glyph glyph-name="arrowleft.ss01" horiz-adv-x="951" 
d="M392 32l-20 -17l-312 312v24l312 312l20 -17l-296 -295h795v-24h-795z" />
    <glyph glyph-name="uni2196.ss01" horiz-adv-x="810" 
d="M755 45l-20 -20l-609 608v-460h-26v486l21 19h487v-24h-463z" />
    <glyph glyph-name="arrowboth.ss01" horiz-adv-x="1072" 
d="M392 32l-20 -17l-312 312v24l312 312l20 -17l-296 -295h880l-296 295l20 17l312 -312v-24l-312 -312l-20 17l296 295h-880z" />
    <glyph glyph-name="uni21B0.ss01" horiz-adv-x="953" 
d="M833 0h-26v419h-716l218 -217l-20 -17l-234 234v24l234 234l20 -17l-218 -217h742v-443z" />
    <glyph glyph-name="uni21B1.ss01" horiz-adv-x="953" 
d="M146 0h-26v443h742l-218 217l20 17l234 -234v-24l-234 -234l-20 17l218 217h-716v-419z" />
    <glyph glyph-name="uni21B2.ss01" horiz-adv-x="953" 
d="M309 40l-20 -17l-234 234v24l234 234l20 -17l-218 -217h716v419h26v-443h-742z" />
    <glyph glyph-name="uni21B3.ss01" horiz-adv-x="953" 
d="M898 257l-234 -234l-20 17l218 217h-742v443h26v-419h716l-218 217l20 17l234 -234v-24z" />
    <glyph glyph-name="lozenge.ss01" horiz-adv-x="513" 
d="M268 0h-24l-204 350l204 350h24l205 -350zM70 350l186 -319l187 319l-187 318z" />
    <glyph glyph-name="at.ss01" horiz-adv-x="895" 
d="M462 -98c-239 0 -395 138 -395 367c0 234 164 406 399 406c214 0 362 -140 362 -348c0 -137 -64 -237 -157 -237c-62 0 -97 44 -88 120h-6c-30 -73 -84 -120 -161 -120c-92 0 -157 65 -157 177c0 130 81 236 195 236c75 0 127 -44 143 -113l17 99h23l-31 -279
c-7 -59 19 -96 67 -96c75 0 128 90 128 211c0 195 -137 324 -334 324c-219 0 -372 -161 -372 -380c0 -213 146 -341 372 -341c79 0 145 16 206 44v-30c-63 -26 -127 -40 -211 -40zM414 116c91 0 154 75 169 184c12 104 -38 177 -127 177c-101 0 -169 -93 -169 -209
c0 -99 51 -152 127 -152z" />
    <glyph glyph-name="ampersand.ss01" horiz-adv-x="695" 
d="M300 -7c-146 0 -242 75 -242 190c0 113 86 166 176 210c-54 68 -88 111 -88 171c0 84 66 142 160 142c85 0 149 -57 149 -133c0 -97 -89 -142 -179 -187c61 -69 145 -155 247 -252c44 63 70 149 70 253h27c0 -109 -28 -203 -78 -271c35 -33 72 -67 110 -102l-21 -20
l-106 100c-55 -64 -133 -101 -225 -101zM259 406c87 42 169 81 169 164c0 63 -52 111 -122 111c-78 0 -133 -48 -133 -117c0 -49 31 -94 86 -158zM300 20c83 0 155 33 206 93c-103 99 -184 182 -255 261c-85 -44 -165 -93 -165 -192c0 -98 85 -162 214 -162z" />
    <glyph glyph-name="paragraph.ss01" horiz-adv-x="550" 
d="M318 -103h-26v380h-23c-124 0 -224 76 -224 218c0 112 78 205 224 205h201v-803h-26v779h-126v-779z" />
    <glyph glyph-name="section.ss01" horiz-adv-x="586" 
d="M302 -88c-117 0 -203 64 -210 163h26c8 -81 80 -137 185 -137c97 0 159 35 159 107c0 60 -41 80 -95 102l-113 46c-81 33 -155 61 -155 139c0 55 45 97 116 122c-58 24 -105 54 -105 123c0 81 73 130 174 130c102 0 181 -64 194 -161h-29c-14 87 -79 135 -165 135
c-85 0 -146 -38 -146 -104c0 -72 65 -92 136 -120l108 -42c61 -24 112 -51 112 -118c0 -66 -58 -102 -135 -119l18 -7c63 -25 112 -50 112 -125c0 -87 -75 -134 -187 -134zM263 216l77 -30c87 23 127 62 127 109c0 51 -43 75 -95 96l-107 43l-32 12
c-66 -23 -106 -64 -106 -110c0 -67 63 -91 136 -120z" />
    <glyph glyph-name="copyright.ss01" horiz-adv-x="944" 
d="M472 -40c-222 0 -390 160 -390 390c0 222 160 390 390 390c222 0 390 -160 390 -390c0 -222 -160 -390 -390 -390zM472 -13c206 0 362 149 362 363c0 207 -148 363 -362 363c-206 0 -362 -149 -362 -363c0 -207 148 -363 362 -363zM480 162c-104 0 -176 78 -176 190
c0 110 71 186 173 186c86 0 150 -57 163 -146h-28c-12 73 -65 119 -135 119c-86 0 -145 -65 -145 -159c0 -96 62 -162 151 -162c70 0 120 47 129 120h28c-10 -90 -72 -148 -160 -148z" />
    <glyph glyph-name="registered.ss01" horiz-adv-x="554" 
d="M277 252c-129 0 -226 93 -226 226c0 129 93 226 226 226c129 0 226 -93 226 -226c0 -129 -93 -226 -226 -226zM277 276c115 0 201 83 201 202c0 115 -82 202 -201 202c-115 0 -201 -83 -201 -202c0 -115 82 -202 201 -202zM218 358h-23v236h113c40 0 68 -27 68 -64
c0 -29 -19 -53 -45 -61c13 -2 21 -10 25 -21l30 -90h-24l-27 82c-4 11 -10 17 -18 17h-99v-99zM218 574v-97h93c24 0 41 21 41 50c0 28 -17 47 -41 47h-93z" />
    <glyph glyph-name="trademark.ss01" horiz-adv-x="682" 
d="M171 362h-26v313h-124v25h274v-25h-124v-313zM352 362h-26v338h27l130 -307l132 307h26v-338h-26v277l-118 -277h-27l-118 277v-277z" />
    <glyph glyph-name="degree.ss01" horiz-adv-x="361" 
d="M180 415c-77 0 -135 58 -135 134s58 133 135 133c78 0 136 -57 136 -133s-58 -134 -136 -134zM180 440c62 0 109 47 109 109s-47 108 -109 108s-108 -46 -108 -108s46 -109 108 -109z" />
    <glyph glyph-name="bar.ss01" horiz-adv-x="234" 
d="M131 -115h-28v865h28v-865z" />
    <glyph glyph-name="brokenbar.ss01" horiz-adv-x="234" 
d="M131 370h-28v380h28v-380zM131 -115h-28v380h28v-380z" />
    <glyph glyph-name="dagger.ss01" horiz-adv-x="516" 
d="M271 242h-26v333h-202v24h202v151h26v-151h202v-24h-202v-333z" />
    <glyph glyph-name="daggerdbl.ss01" horiz-adv-x="516" 
d="M271 242h-26v156h-202v24h202v153h-202v24h202v151h26v-151h202v-24h-202v-153h202v-24h-202v-156z" />
    <glyph glyph-name="uni2116.ss01" horiz-adv-x="1052" 
d="M863 394c-86 0 -146 65 -146 159c0 90 60 153 146 153s146 -63 146 -153c0 -94 -60 -159 -146 -159zM120 0h-27v700h40l471 -670v670h27v-700h-38l-473 676v-676zM864 418c70 0 119 55 119 134c0 76 -49 130 -119 130c-71 0 -121 -54 -121 -130c0 -79 50 -134 121 -134z
M972 301h-217v24h217v-24z" />
    <glyph glyph-name="uni23CE.ss01" horiz-adv-x="953" 
d="M309 40l-20 -17l-234 234v24l234 234l20 -17l-218 -217h716v395h-382v24h408v-443h-742z" />
    </font>
</defs>
</svg>
