<svg width="33" height="33" viewBox="0 0 33 33" fill="none" xmlns="http://www.w3.org/2000/svg">
<rect x="2.5" y="2.40259" width="28" height="28" rx="6" fill="url(#paint0_radial_1_239)"/>
<rect x="2.5" y="2.40259" width="28" height="28" rx="6" fill="url(#paint1_radial_1_239)"/>
<rect x="2.5" y="2.40259" width="28" height="28" rx="6" fill="url(#paint2_radial_1_239)"/>
<path d="M23.5 10.9026C23.5 11.731 22.8284 12.4026 22 12.4026C21.1716 12.4026 20.5 11.731 20.5 10.9026C20.5 10.0742 21.1716 9.40259 22 9.40259C22.8284 9.40259 23.5 10.0742 23.5 10.9026Z" fill="white"/>
<path fill-rule="evenodd" clip-rule="evenodd" d="M16.5 21.4026C19.2614 21.4026 21.5 19.164 21.5 16.4026C21.5 13.6412 19.2614 11.4026 16.5 11.4026C13.7386 11.4026 11.5 13.6412 11.5 16.4026C11.5 19.164 13.7386 21.4026 16.5 21.4026ZM16.5 19.4026C18.1569 19.4026 19.5 18.0594 19.5 16.4026C19.5 14.7457 18.1569 13.4026 16.5 13.4026C14.8431 13.4026 13.5 14.7457 13.5 16.4026C13.5 18.0594 14.8431 19.4026 16.5 19.4026Z" fill="white"/>
<path fill-rule="evenodd" clip-rule="evenodd" d="M6.5 16.0026C6.5 12.6423 6.5 10.9621 7.15396 9.67864C7.7292 8.54967 8.64708 7.63179 9.77606 7.05655C11.0595 6.40259 12.7397 6.40259 16.1 6.40259H16.9C20.2603 6.40259 21.9405 6.40259 23.2239 7.05655C24.3529 7.63179 25.2708 8.54967 25.846 9.67864C26.5 10.9621 26.5 12.6423 26.5 16.0026V16.8026C26.5 20.1629 26.5 21.8431 25.846 23.1265C25.2708 24.2555 24.3529 25.1734 23.2239 25.7486C21.9405 26.4026 20.2603 26.4026 16.9 26.4026H16.1C12.7397 26.4026 11.0595 26.4026 9.77606 25.7486C8.64708 25.1734 7.7292 24.2555 7.15396 23.1265C6.5 21.8431 6.5 20.1629 6.5 16.8026V16.0026ZM16.1 8.40259H16.9C18.6132 8.40259 19.7777 8.40414 20.6779 8.47769C21.5548 8.54933 22.0032 8.67918 22.316 8.83856C23.0686 9.22206 23.6805 9.83398 24.064 10.5866C24.2234 10.8994 24.3533 11.3478 24.4249 12.2247C24.4984 13.1248 24.5 14.2894 24.5 16.0026V16.8026C24.5 18.5157 24.4984 19.6803 24.4249 20.5805C24.3533 21.4573 24.2234 21.9058 24.064 22.2185C23.6805 22.9712 23.0686 23.5831 22.316 23.9666C22.0032 24.126 21.5548 24.2558 20.6779 24.3275C19.7777 24.401 18.6132 24.4026 16.9 24.4026H16.1C14.3868 24.4026 13.2223 24.401 12.3221 24.3275C11.4452 24.2558 10.9968 24.126 10.684 23.9666C9.93139 23.5831 9.31947 22.9712 8.93597 22.2185C8.77659 21.9058 8.64674 21.4573 8.5751 20.5805C8.50156 19.6803 8.5 18.5157 8.5 16.8026V16.0026C8.5 14.2894 8.50156 13.1248 8.5751 12.2247C8.64674 11.3478 8.77659 10.8994 8.93597 10.5866C9.31947 9.83398 9.93139 9.22206 10.684 8.83856C10.9968 8.67918 11.4452 8.54933 12.3221 8.47769C13.2223 8.40414 14.3868 8.40259 16.1 8.40259Z" fill="white"/>
<defs>
<radialGradient id="paint0_radial_1_239" cx="0" cy="0" r="1" gradientUnits="userSpaceOnUse" gradientTransform="translate(12.5 23.4026) rotate(-55.3758) scale(25.5196)">
<stop stop-color="#B13589"/>
<stop offset="0.79309" stop-color="#C62F94"/>
<stop offset="1" stop-color="#8A3AC8"/>
</radialGradient>
<radialGradient id="paint1_radial_1_239" cx="0" cy="0" r="1" gradientUnits="userSpaceOnUse" gradientTransform="translate(11.5 31.4026) rotate(-65.1363) scale(22.5942)">
<stop stop-color="#E0E8B7"/>
<stop offset="0.444662" stop-color="#FB8A2E"/>
<stop offset="0.71474" stop-color="#E2425C"/>
<stop offset="1" stop-color="#E2425C" stop-opacity="0"/>
</radialGradient>
<radialGradient id="paint2_radial_1_239" cx="0" cy="0" r="1" gradientUnits="userSpaceOnUse" gradientTransform="translate(1 3.40259) rotate(-8.1301) scale(38.8909 8.31836)">
<stop offset="0.156701" stop-color="#406ADC"/>
<stop offset="0.467799" stop-color="#6A45BE"/>
<stop offset="1" stop-color="#6A45BE" stop-opacity="0"/>
</radialGradient>
</defs>
</svg>
