<svg width="108" height="36" viewBox="0 0 108 36" fill="none" xmlns="http://www.w3.org/2000/svg">
<path fill-rule="evenodd" clip-rule="evenodd" d="M58.0428 22.1027C56.2052 22.5757 54.6925 24.3457 54.6819 26.0344C54.6754 27.1205 55.2295 28.0074 56.4554 28.8707C57.9522 29.9251 58.5798 30.5895 58.5798 31.1196C58.5798 32.0284 57.7477 32.3118 57.1185 31.6172C56.466 30.8977 55.2307 31.6522 55.0965 32.8522C55.0047 33.6733 55.3581 34.218 56.2917 34.6936C58.1497 35.6399 60.3039 34.8664 61.3971 32.8604C62.0366 31.6871 62.1019 30.6186 61.5971 29.5879C61.1303 28.6353 60.8556 28.3556 59.4196 27.3685C58.2272 26.5495 57.7898 25.9585 58.0583 25.5306C58.3178 25.1171 58.7818 25.1299 59.1878 25.5611C59.7151 26.1214 60.3264 26.0765 60.9744 25.4296C62.2321 24.1735 61.1935 22.3108 59.0928 22.0558C58.7683 22.0165 58.2958 22.0376 58.0428 22.1027ZM64.8711 22.4641C64.1561 22.9501 63.7893 23.5004 63.6905 24.2361C63.6126 24.8185 63.6391 24.8834 64.019 25.0275C64.2463 25.1138 64.7678 25.1844 65.1784 25.1844H65.9247L65.9741 29.284C66.0198 33.0569 66.048 33.4252 66.3308 33.904C66.7368 34.5927 67.2803 34.9795 68.0071 35.0972C69.0159 35.2607 69.0167 35.2571 69.0167 29.9239V25.2201L70.0246 25.1561C70.6804 25.1144 71.082 25.0143 71.1734 24.87C71.4096 24.4972 71.3452 22.8382 71.0799 22.46C70.8481 22.1295 70.7584 22.1193 68.1095 22.1193C65.5301 22.1193 65.3501 22.1384 64.8711 22.4641ZM73.781 22.4192C73.4831 22.7168 73.468 22.9081 73.4729 26.2955C73.4786 30.3919 73.6479 32.6787 74.0131 33.5896C74.5179 34.8492 75.7152 35.4053 76.9599 34.9582C77.5254 34.7553 77.6336 34.7529 77.7389 34.9409C77.8331 35.1092 78.16 35.149 79.1561 35.1144L80.4509 35.0695L80.4909 28.5944L80.5309 22.1193H79.2434C78.3979 22.1193 77.9033 22.185 77.8021 22.3108C77.7144 22.4198 77.6136 24.0546 77.5675 26.104C77.4895 29.5913 77.3014 31.3283 76.9566 31.7458C76.5914 32.1883 76.4885 31.2767 76.3992 26.8045L76.3069 22.1959L75.2006 22.151C74.2555 22.1127 74.0491 22.1516 73.781 22.4192ZM83.5657 22.2977C83.0552 22.6972 83.0144 23.2351 83.0993 28.4592C83.1793 33.393 83.1985 33.6594 83.5054 34.1078C84.3056 35.2771 85.9134 35.4456 87.8113 34.5589C90.2206 33.433 91.5644 31.2859 91.5746 28.546C91.586 25.4632 90.4398 23.4154 88.2243 22.5617C87.1339 22.1415 83.993 21.9634 83.5657 22.2977ZM94.5646 22.4017C93.5668 23.0162 93.1245 24.4828 93.8423 24.7987C94.1863 24.9501 94.1875 24.9628 94.1875 28.5962V32.2419L93.8039 32.3875C93.4428 32.5245 93.4203 32.5993 93.4203 33.6557C93.4203 34.3245 93.4946 34.8526 93.6044 34.9622C93.8557 35.2131 95.6121 35.1962 96.2332 34.9371C96.8975 34.6598 97.5268 33.8905 97.6573 33.1959C97.7463 32.7239 97.7104 32.599 97.4333 32.4154C97.1113 32.2021 97.1036 32.1101 97.1036 28.5743C97.1036 25.0931 97.1158 24.944 97.417 24.7562C97.6957 24.5826 97.7255 24.4299 97.6855 23.3784L97.641 22.1959L96.3364 22.155C95.2795 22.1219 94.9428 22.1688 94.5646 22.4017ZM102.355 22.3745C101.153 22.9659 100.066 24.7057 99.7026 26.6178C99.4843 27.7671 99.5316 30.0696 99.7944 31.0909C100.594 34.1995 102.839 35.8296 105.051 34.9084C108.253 33.5751 109.08 26.3391 106.372 23.3466C106.056 22.9965 105.535 22.5772 105.217 22.4148C104.493 22.046 103.063 22.0258 102.355 22.3745ZM87.2849 25.6011C87.8946 26.0243 88.1823 26.4367 88.43 27.243C88.8323 28.5519 88.6471 29.7907 87.9272 30.6043C87.6404 30.9286 86.3749 31.7745 86.1766 31.7745C86.1085 31.7745 86.053 30.3262 86.053 28.5561V25.3377H86.4794C86.7136 25.3377 87.0764 25.4563 87.2849 25.6011ZM104.527 26.0862C104.757 26.4793 104.847 26.982 104.899 28.1659C104.977 29.9073 104.709 31.2053 104.171 31.6911C103.207 32.5628 102.349 29.8992 102.777 27.3631C103.084 25.5464 103.876 24.9688 104.527 26.0862Z" fill="white"/>
<path fill-rule="evenodd" clip-rule="evenodd" d="M10.2148 0.324893C9.08674 0.893934 8.23244 2.15723 6.09478 6.41684C1.27224 16.0266 -0.411453 21.6515 0.0827561 26.5021C0.406601 29.6815 1.44505 32.4555 2.76668 33.6719C4.03873 34.8428 6.39235 35.3396 8.41493 34.8642C10.2765 34.4267 11.5823 33.6666 16.0249 30.4352C20.1346 27.4457 21.6536 26.6308 23.7284 26.3021C24.5205 26.1765 24.9734 26.1934 25.9059 26.3833C28.065 26.823 29.922 27.8915 35.6973 32.0168C37.7937 33.5145 39.9176 34.638 41.2003 34.9283C42.4988 35.2219 44.0724 35.0543 45.2701 34.4947C47.1092 33.6351 48.3677 32.1505 48.9982 30.095C49.4247 28.705 49.3794 24.3756 48.9093 21.6032C47.7446 14.7346 45.3321 8.56151 41.586 2.86696C39.6681 -0.0485931 38.1691 -0.65779 36.5014 0.800906C36.1983 1.06589 35.2955 2.11033 34.4949 3.12183C32.1207 6.122 29.6821 8.31695 27.4093 9.4993C26.4444 10.0014 26.3538 10.0184 24.6466 10.0184C22.9786 10.0184 22.8245 9.9914 21.8426 9.52689C19.8717 8.59477 17.8617 6.72967 15.43 3.57669C13.813 1.4803 12.9962 0.65424 12.17 0.27968C11.3334 -0.0996303 11.043 -0.0928848 10.2148 0.324893ZM57.2613 0.12336C56.2179 0.377153 55.4572 0.977157 54.9773 1.92643C54.761 2.35386 54.7288 3.20459 54.7288 8.53731V14.6578L55.1577 15.4774C55.4699 16.0739 55.7906 16.423 56.335 16.7594L57.083 17.2214L61.7709 17.2682C64.3491 17.294 66.6144 17.2759 66.8053 17.2281C67.6831 17.0081 67.5676 15.5288 66.5825 14.3798C65.7231 13.3769 65.4469 13.3134 61.9476 13.3134H58.8728V6.95325C58.8728 0.797384 58.863 0.583284 58.5659 0.286579C58.2448 -0.0341874 58.0236 -0.0619272 57.2613 0.12336ZM72.9734 0.219913C72.1217 0.481829 71.246 1.37761 71.0089 2.22972C70.9073 2.59631 70.8457 5.05395 70.8453 8.8006L70.8444 14.7857L71.2272 15.5526C71.4378 15.9742 71.8002 16.4587 72.0328 16.6291C72.8832 17.2514 74.1739 17.4941 74.5065 17.0942C74.6163 16.9618 74.6901 15.6346 74.7171 13.3012L74.7583 9.71187L75.6307 11.4132C76.5763 13.2572 76.9615 13.5969 77.8784 13.3957C78.4844 13.2628 78.6574 13.0426 79.5683 11.2444L80.3448 9.71187L80.3526 13.2642C80.3611 17.1753 80.3897 17.2981 81.2973 17.2981C82.346 17.2981 83.4315 16.5652 83.9073 15.5356C84.1676 14.9717 84.1909 14.4205 84.1938 8.6492C84.197 2.54482 84.1885 2.35738 83.8681 1.69685C83.2956 0.516156 81.5352 -0.321696 80.7313 0.204128C80.5272 0.337614 80.3603 0.546043 80.3603 0.66727C80.3603 0.835698 77.6989 6.36705 77.543 6.52277C77.5246 6.54069 76.826 5.12765 75.9894 3.38267C75.1533 1.63769 74.3959 0.159225 74.3065 0.0973089C74.0809 -0.0591661 73.7956 -0.032961 72.9734 0.219913ZM91.1429 0.203819C88.9091 0.900676 87.0793 3.17271 87.0703 5.26084C87.0629 6.93178 87.7546 7.91785 90.0215 9.46788C91.7697 10.6637 92.1785 11.1431 92.1785 11.9988C92.1785 13.1741 91.2298 13.5513 90.4132 12.7004C89.8431 12.1059 89.1637 12.0852 88.501 12.642C87.5518 13.4397 87.3008 14.6268 87.8811 15.5772C88.5291 16.6381 90.5181 17.4435 91.9582 17.2279C93.6382 16.9764 95.2693 15.6926 96.1287 13.945C96.4915 13.2081 96.5523 12.8952 96.5506 11.7808C96.549 10.7174 96.4837 10.3558 96.1948 9.81225C95.7243 8.92706 94.7861 8.01151 93.3787 7.06314C91.4873 5.78865 90.9576 4.88154 91.7872 4.33868C92.263 4.02743 92.6903 4.15754 93.1057 4.74006C93.5076 5.30361 94.2095 5.34405 94.9424 4.84596C96.0891 4.06681 96.4164 3.03999 95.8749 1.92275C95.1354 0.397536 93.0041 -0.376718 91.1429 0.203819ZM62.5422 0.489795C60.219 1.71416 59.2327 6.51416 60.5843 10.0184C61.2221 11.6723 62.6822 12.8497 64.0994 12.8527C64.8196 12.8544 66.059 12.1058 66.5744 11.3583C68.3205 8.8239 68.2805 3.8124 66.4956 1.48106C65.8643 0.656542 64.8715 0.133322 63.9378 0.133322C63.4812 0.133322 62.9715 0.263435 62.5422 0.489795ZM64.3883 4.33595C64.7278 4.74451 64.9123 6.45332 64.7286 7.49333C64.5307 8.61423 64.1977 9.0898 63.7701 8.86144C62.8523 8.37086 63.0576 4.11799 63.9994 4.11799C64.1137 4.11799 64.2887 4.21609 64.3883 4.33595ZM36.4386 13.2605C36.6932 14.211 37.5633 15.0782 38.5183 15.3332L39.2384 15.5255L39.1945 16.8288L39.1506 18.1321L38.4871 18.2627C37.5972 18.4379 36.6873 19.3404 36.4495 20.2837L36.2749 20.9763H34.9313H33.5878L33.4855 20.337C33.4098 19.8651 33.2108 19.5258 32.7247 19.0403C32.2384 18.5549 31.8986 18.3562 31.426 18.2806L30.7859 18.1784V16.831V15.4834L31.2847 15.3805C32.4439 15.1416 33.5486 13.949 33.5486 12.9364C33.5486 12.5491 33.5553 12.5471 34.8981 12.5471H36.2475L36.4386 13.2605ZM16.3783 13.0878C18.5444 13.8248 19.589 16.3428 18.6046 18.4538C17.7401 20.3074 15.5021 21.1674 13.6324 20.3641C12.5835 19.9137 11.6889 18.9336 11.3808 17.8978C11.0812 16.8907 11.0811 16.6332 11.3791 15.631C12.0037 13.5312 14.2792 12.3737 16.3783 13.0878Z" fill="#DD4C5E"/>
</svg>
