<svg width="33" height="33" viewBox="0 0 33 33" fill="none" xmlns="http://www.w3.org/2000/svg">
<path d="M8.95086 20.1952C9.10713 18.9013 9.6378 18.1768 10.6378 17.4342C12.0687 16.4284 13.856 16.9973 13.856 16.9973V13.6222C14.2906 13.6111 14.7253 13.6368 15.155 13.6992V18.0427C15.155 18.0427 13.3682 17.4737 11.9374 18.48C10.9379 19.2221 10.4061 19.9471 10.2504 21.241C10.2455 21.9436 10.3774 22.862 10.9846 23.6561C10.8344 23.5792 10.6814 23.4915 10.5255 23.393C9.18798 22.4949 8.94435 21.1474 8.95086 20.1952ZM22.5351 7.38151C21.5508 6.30291 21.1785 5.21392 21.044 4.44891H22.2822C22.2822 4.44891 22.0353 6.45477 23.8346 8.42734L23.8596 8.45386C23.3746 8.14883 22.9299 7.78877 22.5351 7.38151ZM28.5 10.4394V14.6956C28.5 14.6956 26.9199 14.6337 25.7506 14.3362C24.1179 13.9202 23.0684 13.2821 23.0684 13.2821C23.0684 13.2821 22.3435 12.827 22.2849 12.7953V21.5842C22.2849 22.0736 22.1509 23.2957 21.7423 24.3151C21.2089 25.6485 20.3858 26.5237 20.2344 26.7026C20.2344 26.7026 19.2333 27.8858 17.4671 28.6825C15.8751 29.4012 14.4773 29.383 14.0595 29.4012C14.0595 29.4012 11.6433 29.4969 9.46905 28.0839C8.99889 27.7725 8.56001 27.4197 8.15811 27.0303L8.16896 27.0381C10.3437 28.4511 12.7594 28.3554 12.7594 28.3554C13.1778 28.3372 14.5755 28.3554 16.167 27.6367C17.9316 26.8399 18.9343 25.6568 18.9343 25.6568C19.0841 25.4779 19.911 24.6026 20.4422 23.2687C20.8497 22.2499 20.9848 21.0273 20.9848 20.5379V11.75C21.0434 11.7822 21.7678 12.2373 21.7678 12.2373C21.7678 12.2373 22.8178 12.8759 24.4505 13.2914C25.6203 13.5889 27.1999 13.6508 27.1999 13.6508V10.3157C27.7403 10.4368 28.201 10.4696 28.5 10.4394Z" fill="#EE1D52"/>
<path d="M27.2004 10.3157V13.6497C27.2004 13.6497 25.6209 13.5879 24.451 13.2904C22.8183 12.8743 21.7684 12.2362 21.7684 12.2362C21.7684 12.2362 21.044 11.7812 20.9854 11.7489V20.5389C20.9854 21.0283 20.8514 22.2509 20.4428 23.2697C19.9094 24.6037 19.0863 25.4789 18.9349 25.6578C18.9349 25.6578 17.9332 26.841 16.1676 27.6377C14.5761 28.3564 13.1783 28.3382 12.76 28.3564C12.76 28.3564 10.3443 28.4521 8.16951 27.0391L8.15866 27.0313C7.92905 26.809 7.71292 26.5742 7.51133 26.3282C6.81733 25.4821 6.39192 24.4815 6.28503 24.196C6.28485 24.1948 6.28485 24.1935 6.28503 24.1923C6.11302 23.6962 5.75165 22.5047 5.80102 21.3507C5.88838 19.3147 6.60463 18.065 6.794 17.7519C7.29553 16.8982 7.94784 16.1343 8.72188 15.4944C9.40494 14.9421 10.1792 14.5028 11.0128 14.1942C11.914 13.832 12.879 13.6378 13.856 13.6222V16.9973C13.856 16.9973 12.0687 16.4305 10.6384 17.4342C9.63835 18.1768 9.10768 18.9013 8.95141 20.1952C8.9449 21.1474 9.18853 22.4949 10.525 23.3935C10.6809 23.4923 10.8339 23.58 10.984 23.6567C11.2175 23.9602 11.5017 24.2246 11.8251 24.4393C13.1306 25.2657 14.2245 25.3234 15.6233 24.7867C16.5561 24.4279 17.2582 23.6192 17.5838 22.7232C17.7883 22.1636 17.7856 21.6004 17.7856 21.0179V4.44891H21.0413C21.1758 5.21392 21.5481 6.30291 22.5324 7.38151C22.9272 7.78877 23.3719 8.14883 23.8569 8.45386C24.0001 8.60208 24.7326 9.33484 25.673 9.78469C26.1592 10.0172 26.6717 10.1954 27.2004 10.3157Z" fill="black"/>
<path d="M4.98927 23.1595V23.1621L5.07006 23.3811C5.06078 23.3556 5.03076 23.2781 4.98927 23.1595Z" fill="#69C9D0"/>
<path d="M11.0128 14.1943C10.1792 14.5028 9.40498 14.9422 8.72192 15.4944C7.94763 16.1358 7.29548 16.9013 6.79458 17.7567C6.60521 18.0687 5.88897 19.3194 5.80161 21.3555C5.75223 22.5095 6.11361 23.7009 6.28561 24.1971C6.28543 24.1983 6.28543 24.1995 6.28561 24.2007C6.39413 24.4836 6.81791 25.4842 7.51191 26.3329C7.7135 26.5789 7.92963 26.8137 8.15924 27.036C7.42357 26.5484 6.76746 25.9588 6.21236 25.2866C5.52433 24.4477 5.10001 23.4575 4.98932 23.1653C4.98919 23.1632 4.98919 23.1611 4.98932 23.159V23.1554C4.81677 22.6598 4.45431 21.4678 4.50477 20.3122C4.59213 18.2762 5.30838 17.0265 5.49775 16.7134C5.9985 15.858 6.65067 15.0925 7.42509 14.4512C8.108 13.8988 8.88225 13.4594 9.71598 13.1511C10.236 12.9443 10.7778 12.7917 11.3319 12.696C12.1669 12.5563 13.0198 12.5442 13.8588 12.6601V13.6222C12.8808 13.6376 11.9148 13.8317 11.0128 14.1943Z" fill="#69C9D0"/>
<path d="M21.044 4.44894H17.7883V21.0184C17.7883 21.6009 17.7883 22.1626 17.5865 22.7237C17.2576 23.6192 16.5582 24.4279 15.626 24.7868C14.2266 25.3255 13.1327 25.2657 11.8278 24.4394C11.5038 24.2256 11.2189 23.962 10.9845 23.6593C12.0963 24.2277 13.0915 24.2178 14.3243 23.7435C15.256 23.3847 15.9565 22.576 16.2842 21.68C16.4893 21.1204 16.4866 20.5572 16.4866 19.9752V3.40259H20.9821C20.9821 3.40259 20.9316 3.81447 21.044 4.44894ZM27.2004 9.39363V10.3157C26.6726 10.1952 26.161 10.0171 25.6757 9.78472C24.7353 9.33487 24.0028 8.60211 23.8596 8.45389C24.0258 8.55849 24.1983 8.65365 24.3761 8.73888C25.5194 9.28598 26.6453 9.44928 27.2004 9.39363Z" fill="#69C9D0"/>
</svg>
