<svg width="32" height="33" viewBox="0 0 32 33" fill="none" xmlns="http://www.w3.org/2000/svg">
<path d="M2.24451 10.3437C2.37304 8.36492 3.96395 6.81415 5.94447 6.71603C8.81239 6.57395 12.9115 6.40259 16 6.40259C19.0885 6.40259 23.1876 6.57395 26.0555 6.71603C28.0361 6.81415 29.627 8.36492 29.7555 10.3437C29.8786 12.2395 30 14.5722 30 16.4026C30 18.2329 29.8786 20.5657 29.7555 22.4615C29.627 24.4403 28.0361 25.991 26.0555 26.0891C23.1876 26.2312 19.0885 26.4026 16 26.4026C12.9115 26.4026 8.81239 26.2312 5.94447 26.0891C3.96395 25.991 2.37304 24.4403 2.24451 22.4615C2.12136 20.5657 2 18.2329 2 16.4026C2 14.5722 2.12136 12.2395 2.24451 10.3437Z" fill="#FC0D1B"/>
<path d="M13 12.4026V20.4026L21 16.4026L13 12.4026Z" fill="white"/>
</svg>
